<svg width="302" height="125" viewBox="0 0 302 125" fill="none" xmlns="http://www.w3.org/2000/svg">
<path d="M40.2653 33.0055C42.1451 32.9587 44.0218 33.2128 45.8459 33.761C47.3896 34.0953 48.8645 34.7873 50.1884 35.7986C51.4259 36.7321 52.3962 38.0982 52.9692 39.7136C53.6186 41.5991 53.9364 43.6258 53.9025 45.6662C53.9778 47.9929 53.4009 50.2826 52.2645 52.1683C51.143 54.0156 49.6485 55.489 47.9219 56.4496C50.2972 57.1727 52.3824 58.8842 53.8072 61.2803C55.143 63.7105 55.8458 66.5641 55.8262 69.4766C55.8559 71.7983 55.4318 74.096 54.5881 76.1848C53.7897 78.0311 52.6172 79.6059 51.1788 80.7637C49.663 81.9643 47.9885 82.8469 46.2268 83.3737C44.4056 83.96 42.5314 84.2753 40.6462 84.3124H20V33.0055H40.2653ZM39.0273 53.8396C40.5095 53.9234 41.9759 53.4427 43.2175 52.4659C43.7577 51.9039 44.1793 51.1958 44.4475 50.3997C44.7157 49.6037 44.8229 48.7425 44.7602 47.887C44.7883 46.8669 44.6323 45.8515 44.3031 44.9107C43.9694 44.168 43.4927 43.5321 42.9127 43.0562C42.2703 42.5618 41.5708 42.1838 40.8367 41.9344C40.0184 41.7749 39.189 41.7135 38.3607 41.7512H29.4089V53.8396H39.0273ZM39.4844 75.7956C40.3766 75.7551 41.2633 75.6094 42.1318 75.3605C42.9154 75.1828 43.6567 74.7998 44.3031 74.2387C44.9302 73.6967 45.4558 73.0025 45.8459 72.2011C46.253 71.1741 46.4923 70.0626 46.5506 68.9272C46.6132 67.8554 46.4746 66.7804 46.1449 65.7817C45.8152 64.783 45.3029 63.8862 44.646 63.1577C43.188 61.9743 41.4512 61.3882 39.6939 61.4864H29.4089V75.8184L39.4844 75.7956ZM69.4062 75.6124C70.1632 76.4206 71.0465 77.0393 72.0047 77.4324C72.9629 77.8255 73.9767 77.9851 74.9868 77.9019C76.5715 77.9219 78.129 77.4062 79.4817 76.4137C80.4951 75.5929 81.2837 74.4298 81.7482 73.0711H89.3667C88.4538 76.9551 86.4902 80.3628 83.7862 82.7555C81.0947 84.7597 77.981 85.7928 74.8153 85.7318C72.5418 85.739 70.2872 85.2342 68.1682 84.2437C66.2621 83.3883 64.5611 81.9806 63.2161 80.1455C61.777 78.4385 60.7106 76.331 60.1116 74.0098C59.3395 71.4507 58.9713 68.7409 59.0259 66.0195C58.9836 63.3589 59.3517 60.7119 60.1116 58.2125C60.8602 55.8806 61.9648 53.7375 63.3685 51.8935C64.7844 50.1571 66.4658 48.7656 68.3205 47.7954C70.3862 46.8041 72.5911 46.2989 74.8153 46.3072C77.2315 46.2141 79.6285 46.8518 81.7863 48.1617C83.6966 49.2982 85.3351 50.9999 86.5479 53.107C87.8106 55.2523 88.7517 57.6465 89.3286 60.1814C89.6695 62.8931 89.7716 65.6403 89.6334 68.3777H67.1968C67.1595 71.0355 67.9471 73.6148 69.4062 75.6124ZM79.1579 56.0833C77.8431 54.672 76.1188 53.94 74.3582 54.0456C73.1756 54.0252 72.0063 54.3472 70.9489 54.9843C70.1341 55.5102 69.3998 56.1993 68.7777 57.0219C68.2066 57.7417 67.8284 58.6509 67.692 59.6319C67.526 60.4273 67.4239 61.24 67.3873 62.0588H81.3101C81.1653 59.8259 80.3929 57.7186 79.1198 56.0833H79.1579ZM101.785 33.0055V52.4659C102.736 50.4466 104.197 48.8431 105.956 47.887C107.496 46.9594 109.187 46.4512 110.908 46.3988C112.813 46.3097 114.712 46.6915 116.489 47.5207C117.834 48.1999 119.009 49.2888 119.898 50.6801C120.737 52.1309 121.314 53.7763 121.593 55.5109C121.946 57.5218 122.138 59.5688 122.165 61.6238V84.5184H113.651V63.524C113.769 61.1415 113.341 58.7655 112.413 56.6556C111.95 55.8627 111.319 55.2326 110.586 54.8302C109.853 54.4277 109.043 54.2676 108.242 54.3662C107.316 54.2774 106.386 54.4507 105.526 54.8721C104.666 55.2936 103.9 55.9515 103.29 56.793C102.085 59.276 101.559 62.1507 101.785 65.0122V84.5184H93.2141V33.0055H101.785ZM128.355 52.7177C129.252 51.1421 130.413 49.8087 131.764 48.8028C133.209 47.8215 134.78 47.1331 136.411 46.7651C138.096 46.3985 139.804 46.2146 141.516 46.2157C143.058 46.2157 144.62 46.3988 146.315 46.582C147.825 46.7657 149.295 47.2696 150.658 48.0701C151.934 48.8028 153.049 49.8849 153.915 51.2296C154.768 52.8393 155.187 54.7262 155.115 56.6327V76.1619C155.133 77.7781 155.235 79.3914 155.419 80.9926C155.543 82.2587 155.922 83.4692 156.524 84.5184H147.858C147.557 84.018 147.343 83.4495 147.229 82.8471C147.103 82.2414 147.051 81.6164 147.077 80.9926C145.735 82.6133 144.089 83.8226 142.277 84.5184C140.472 85.1955 138.587 85.5126 136.697 85.4571C135.281 85.4926 133.87 85.2371 132.526 84.7016C131.292 84.2895 130.135 83.5979 129.116 82.6639C128.143 81.6996 127.351 80.4978 126.793 79.1382C126.269 77.5421 126.004 75.8401 126.012 74.1242C125.955 72.3178 126.276 70.523 126.945 68.9043C127.546 67.6313 128.333 66.499 129.269 65.5616C130.313 64.7225 131.465 64.096 132.678 63.7072C133.929 63.2907 135.201 62.977 136.487 62.7685L140.297 62.219C141.566 62.0359 142.652 61.8527 143.554 61.6695C144.381 61.3857 145.165 60.9452 145.877 60.3646C146.17 60.0746 146.395 59.699 146.532 59.274C146.669 58.849 146.712 58.3888 146.658 57.9377C146.708 57.0337 146.55 56.1306 146.201 55.3277C145.869 54.7429 145.449 54.2381 144.963 53.8396C144.436 53.4779 143.863 53.2227 143.268 53.0841C142.552 52.9235 141.824 52.862 141.097 52.9009C139.738 52.776 138.387 53.2389 137.287 54.2059C136.276 55.31 135.668 56.8479 135.592 58.4872H126.964C126.978 56.447 127.459 54.4508 128.355 52.7177ZM145.23 67.2329C144.773 67.4161 144.144 67.5993 143.535 67.7824C142.925 67.9656 142.296 67.9656 141.516 68.1487C140.735 68.3319 140.125 68.3319 139.497 68.5151L137.592 69.0645C137.023 69.2238 136.493 69.5458 136.049 70.0032C135.609 70.4076 135.24 70.9135 134.964 71.4914C134.577 72.2099 134.415 73.0697 134.507 73.9182C134.462 74.7194 134.622 75.5178 134.964 76.2077C135.249 76.7711 135.625 77.2613 136.068 77.65C136.595 78.0117 137.168 78.2669 137.763 78.4055C138.428 78.567 139.106 78.6285 139.782 78.5887C141.127 78.6503 142.465 78.3287 143.687 77.65C144.463 77.0301 145.114 76.2086 145.592 75.2461C146.057 74.4168 146.327 73.4516 146.372 72.4529C146.492 71.6986 146.543 70.931 146.525 70.1635V66.2027C146.13 66.6093 145.695 66.9554 145.23 67.2329ZM167.971 47.1543V52.4659H168.123C169.075 50.4466 170.535 48.8431 172.294 47.887C173.941 46.9563 175.732 46.4494 177.551 46.3988C179.456 46.3097 181.355 46.6915 183.132 47.5207C184.501 48.1498 185.687 49.2484 186.541 50.6801C187.389 52.1563 188.032 53.7877 188.446 55.5109C188.748 57.5277 188.888 59.5747 188.865 61.6238V84.5184H180.351V63.524C180.47 61.1415 180.041 58.7655 179.113 56.6556C178.635 55.8226 177.98 55.1583 177.217 54.7316C176.453 54.305 175.609 54.1313 174.77 54.2288C173.798 54.1848 172.831 54.4169 171.948 54.9062C171.064 55.3954 170.289 56.1281 169.685 57.0448C168.471 59.5161 167.932 62.3824 168.142 65.2411V84.7703H159.61V47.1543H167.971ZM207.911 53.8396C206.706 53.7848 205.516 54.1764 204.502 54.9614C203.54 55.7153 202.743 56.736 202.178 57.9377C201.581 59.1472 201.162 60.4717 200.94 61.8527C200.68 63.2804 200.578 64.7429 200.635 66.2027C200.66 67.5754 200.762 68.9446 200.94 70.3008C201.161 71.6246 201.581 72.8891 202.178 74.0327C202.734 75.1337 203.473 76.0846 204.349 76.8258C205.363 77.6108 206.554 78.0024 207.759 77.9476C209.515 78.02 211.229 77.2922 212.558 75.91C213.774 74.4047 214.491 72.4189 214.577 70.3237H222.786C222.476 74.7412 220.756 78.8431 217.987 81.7711C215.077 84.4895 211.459 85.8771 207.778 85.686C205.603 85.6951 203.448 85.1895 201.435 84.1979C199.568 83.3391 197.879 82.0034 196.483 80.2829C195.058 78.5155 193.944 76.4209 193.207 74.1242C192.448 71.6881 192.08 69.1012 192.122 66.5003C192.065 63.7713 192.433 61.0535 193.207 58.4872C193.903 56.1099 194.955 53.906 196.312 51.9851C197.722 50.1933 199.402 48.7404 201.264 47.7038C203.383 46.7133 205.638 46.2085 207.911 46.2157C209.691 46.2411 211.459 46.5568 213.168 47.1543C214.788 47.68 216.313 48.5652 217.663 49.7643C219.069 50.9137 220.194 52.4948 220.92 54.3433C221.745 56.31 222.218 58.4624 222.31 60.6622H213.949C213.993 59.7143 213.864 58.7663 213.572 57.8847C213.279 57.003 212.829 56.2092 212.253 55.559C211.678 54.9087 210.991 54.4178 210.241 54.1208C209.491 53.8238 208.695 53.7278 207.911 53.8396ZM65.5017 36.5312H82.8338V41.5452H65.5017V36.5312ZM235.624 75.6124C237.163 77.2229 239.166 78.0447 241.204 77.9019C242.789 77.9219 244.346 77.4062 245.699 76.4137C246.727 75.5996 247.529 74.4359 248.004 73.0711H255.432C254.519 76.9551 252.555 80.3628 249.851 82.7555C247.137 84.7484 244.003 85.7579 240.823 85.6631C238.55 85.6703 236.295 85.1655 234.176 84.175C232.306 83.2536 230.621 81.8646 229.232 80.1001C227.843 78.3357 226.782 76.2362 226.119 73.9411C225.347 71.382 224.979 68.6722 225.034 65.9509C224.991 63.2902 225.36 60.6432 226.119 58.1438C226.872 55.802 227.983 53.6508 229.395 51.802C230.811 50.0655 232.493 48.674 234.347 47.7038C236.417 46.7299 238.619 46.2254 240.842 46.2157C243.211 46.0993 245.564 46.7391 247.661 48.0701C249.592 49.2194 251.245 50.9459 252.46 53.0841C253.723 55.2294 254.664 57.6236 255.241 60.1585C255.848 62.8879 256.06 65.7221 255.87 68.5379H233.452C233.427 71.137 234.2 73.6561 235.624 75.6124ZM245.528 56.0833C244.213 54.672 242.488 53.94 240.728 54.0456C239.545 54.0252 238.376 54.3472 237.319 54.9843C236.462 55.4617 235.707 56.1661 235.109 57.0448C234.596 57.8113 234.226 58.7014 234.024 59.6548C233.858 60.4502 233.756 61.2628 233.719 62.0817H247.642C247.36 59.9047 246.611 57.8534 245.47 56.129L245.528 56.0833Z" fill="#808080" fill-opacity="0.5"/>
</svg>
