<svg width="289" height="281" viewBox="0 0 289 281" fill="none" xmlns="http://www.w3.org/2000/svg">
<g filter="url(#filter0_df_110_397)">
<ellipse cx="131.5" cy="127.5" rx="109" ry="105.5" fill="#DDC4CB" fill-opacity="0.38" shape-rendering="crispEdges"/>
</g>
<g clip-path="url(#clip0_110_397)">
<path d="M132.5 76C93.8294 76 62.5 102.63 62.5 135.5C62.5 168.37 93.8294 195 132.5 195C171.171 195 202.5 168.37 202.5 135.5C202.5 102.63 171.171 76 132.5 76ZM103.104 114.08C107.501 114.08 110.923 116.806 111.307 120.026C111.723 122.931 110.306 125.471 106.526 126.999C104.517 127.851 103.721 127.851 103.31 127.345C103.104 126.999 103.31 126.672 103.717 126.318C107.322 123.786 107.322 121.733 106.906 118.847C106.701 116.969 105.108 115.783 103.511 115.783C96.4937 115.783 86.5144 129.033 87.9013 138.735C88.5181 142.473 91.1169 146.891 96.6994 146.891C98.5019 146.891 100.51 146.385 102.304 145.712C105.222 144.392 106.976 143.387 108.709 141.74C108.276 137.341 112.808 131.592 119.506 131.592C122.516 131.592 124.909 132.618 125.111 134.496C125.5 137.036 122.901 137.382 122.105 137.382C121.304 137.382 119.896 137.207 119.896 136.53C119.716 135.85 121.694 136.184 121.51 134.652C121.304 133.626 120.097 133.299 118.916 133.299C114.698 133.299 112.305 138.237 112.9 141.275C113.106 142.647 113.898 144.008 115.521 144.008C116.706 144.008 118.509 142.476 119.095 140.271C119.502 138.739 121.103 137.713 122.512 137.713C123.107 137.713 123.492 137.887 123.697 138.564V139.245C123.518 139.925 122.897 141.978 123.107 142.476C123.107 142.83 123.312 143.328 124.104 143.328C124.629 143.328 126.637 142.435 128.641 141.041C129.302 138.114 130.098 134.611 130.098 134.321C130.304 133.12 130.899 131.937 133.699 131.937C134.311 131.937 134.701 132.112 134.906 132.789V133.47L134.106 136.53C136.709 133.644 140.511 131.61 142.904 131.61C143.906 131.61 144.706 132.112 144.706 132.964C144.706 133.47 144.706 134.321 144.291 135.176C143.499 137.036 142.493 139.94 141.898 142.476C141.898 143.157 142.103 143.834 143.105 143.834C144.107 143.834 147.095 142.826 149.488 140.096L149.536 140.078C149.536 139.747 149.488 139.42 149.488 139.092C149.488 137.04 149.694 135.355 150.105 134.154C150.512 132.796 152.498 131.614 153.706 131.614C154.296 131.614 154.913 131.941 154.913 132.447C154.913 132.622 154.913 132.968 154.708 133.127C153.907 135.355 153.29 137.385 153.29 139.42C153.29 140.621 153.5 142.305 153.907 143.332C153.907 143.506 154.086 143.678 154.292 143.678C154.708 143.678 157.507 141.472 159.489 138.564C157.687 137.556 156.685 135.853 156.685 133.819C156.685 130.238 159.31 128.375 161.703 128.375C163.711 128.375 165.304 129.561 165.304 131.941C165.304 133.473 164.709 135.18 163.711 136.705H164.302C165.579 136.746 166.835 136.3 167.697 135.526C167.887 135.267 168.167 135.065 168.498 134.946C170.458 132.834 173.327 131.268 176.722 131.268C179.522 131.268 182.099 132.294 182.305 134.154C182.712 136.709 180.096 137.214 179.295 137.214C178.503 137.214 177.09 137.04 177.09 136.363C177.09 135.686 178.888 136.017 178.704 134.503C178.499 133.477 177.291 133.131 176.084 133.131C172.094 133.131 169.499 137.545 170.086 141.13C170.291 142.484 171.088 144.016 172.689 144.016C173.896 144.016 175.694 142.484 176.491 140.279C176.876 138.925 178.499 137.72 179.886 137.72C180.498 137.72 180.888 137.895 181.093 138.572C181.093 138.925 181.093 139.598 180.292 141.811C179.291 143.339 179.291 144.191 179.501 144.871C179.68 146.225 180.481 147.251 181.299 147.757C181.445 147.915 181.575 148.083 181.688 148.259C181.688 148.612 181.478 148.958 180.887 148.958C180.682 148.958 180.498 148.958 180.292 148.783C177.287 147.757 176.079 146.05 175.69 144.347C174.482 145.548 173.096 146.225 171.477 146.225C168.874 146.225 166.301 144.191 165.894 141.632C165.77 140.547 165.918 139.452 166.327 138.419C165.142 139.059 163.864 139.427 162.683 139.427H161.703C159.082 142.659 156.278 144.871 154.296 145.879C153.614 146.188 152.859 146.366 152.087 146.4C151.702 146.4 151.089 146.225 150.901 145.879C150.337 145.124 149.991 143.942 149.764 142.588C146.959 145.18 143.083 146.574 141.289 146.574C139.281 146.574 138.1 145.548 137.894 143.849V141.989C138.485 138.252 140.104 136.024 140.104 135.344C140.092 135.254 140.044 135.171 139.969 135.108C139.893 135.045 139.794 135.006 139.688 134.998C138.301 134.998 133.699 139.085 132.898 141.814L132.286 144.02C131.896 145.548 130.098 146.574 128.891 146.574C128.296 146.574 127.889 146.4 127.705 145.727V145.046L127.954 143.886C125.421 145.414 122.892 146.4 121.685 146.4C119.887 146.4 118.885 145.548 118.706 144.347C117.498 145.727 116.103 146.4 114.309 146.4C112.231 146.4 110.231 145.198 109.273 143.458C107.834 144.83 106.215 146.206 104.303 147.251C101.503 148.783 98.3138 149.962 94.5031 149.962C91.1081 149.962 88.1025 148.43 86.5056 147.076C84.0906 145.199 82.7038 142.313 82.4981 139.598C81.3125 131.272 87.3062 120.558 96.485 115.794C98.6944 114.768 100.908 114.095 103.096 114.095L103.104 114.08ZM160.093 130.409C159.502 130.409 159.096 131.261 159.096 132.09C159.096 133.47 159.887 134.994 160.894 135.85C161.295 134.919 161.504 133.936 161.511 132.945C161.511 131.264 160.71 130.413 160.093 130.413V130.409Z" fill="black"/>
</g>
<defs>
<filter id="filter0_df_110_397" x="0.5" y="0" width="288" height="281" filterUnits="userSpaceOnUse" color-interpolation-filters="sRGB">
<feFlood flood-opacity="0" result="BackgroundImageFix"/>
<feColorMatrix in="SourceAlpha" type="matrix" values="0 0 0 0 0 0 0 0 0 0 0 0 0 0 0 0 0 0 127 0" result="hardAlpha"/>
<feOffset dx="13" dy="13"/>
<feGaussianBlur stdDeviation="17.5"/>
<feComposite in2="hardAlpha" operator="out"/>
<feColorMatrix type="matrix" values="0 0 0 0 0 0 0 0 0 0 0 0 0 0 0 0 0 0 0.25 0"/>
<feBlend mode="normal" in2="BackgroundImageFix" result="effect1_dropShadow_110_397"/>
<feBlend mode="normal" in="SourceGraphic" in2="effect1_dropShadow_110_397" result="shape"/>
<feGaussianBlur stdDeviation="2" result="effect2_foregroundBlur_110_397"/>
</filter>
<clipPath id="clip0_110_397">
<rect width="140" height="119" fill="white" transform="translate(62.5 76)"/>
</clipPath>
</defs>
</svg>
