<svg width="128" height="128" viewBox="0 0 128 128" fill="none" xmlns="http://www.w3.org/2000/svg">
<g clip-path="url(#clip0_110_338)">
<path d="M59.39 0.152012C58.906 0.203012 57.395 0.382012 56.062 0.539012C50.688 1.15201 44.594 2.76601 39.246 5.01901C19.891 13.106 5.32403 30.849 1.30503 51.2C0.359028 56.04 0.129028 58.418 0.129028 64C0.129028 71.195 0.844028 76.16 2.73903 82.434C8.93403 102.964 25.062 119.066 45.645 125.285C51.84 127.156 56.832 127.871 64 127.871C71.195 127.871 76.16 127.156 82.434 125.261C102.964 119.066 119.066 102.938 125.285 82.355C127.156 76.16 127.871 71.168 127.871 64C127.871 60.953 127.719 57.473 127.539 56.191C125.465 41.395 119.371 28.953 109.211 18.789C99.07 8.70301 86.68 2.58601 72.19 0.512012C70.194 0.230012 60.952 -0.0279879 59.39 0.152012ZM38.527 40.472C39.887 40.882 40.523 41.266 41.445 42.187C43.238 44.007 43.648 45.004 43.648 47.742C43.648 49.793 43.57 50.176 42.957 51.25C41.777 53.246 39.039 55.09 37.145 55.14C35.812 55.168 35.867 54.578 37.325 53.043C39.27 51.02 39.551 50.253 39.551 47.23C39.527 44.313 39.168 43.316 37.812 42.496C36.684 41.805 35.457 41.856 33.664 42.699C29.004 44.929 23.961 52.352 21.992 59.957C19.379 70.094 24.012 78.207 31.641 76.824C33.867 76.414 38.066 74.266 39.887 72.574C41.395 71.195 41.395 71.168 41.547 69.454C41.883 65.867 44.414 62.285 47.797 60.621C49.355 59.851 49.742 59.777 51.84 59.777C53.836 59.777 54.297 59.879 55.27 60.414C58.367 62.184 57.727 66.304 54.375 66.304C52.43 66.304 51.43 65.304 52.84 64.77C54.223 64.258 53.707 62.336 52.098 61.902C50.203 61.414 48.051 62.695 46.695 65.152C45.055 68.122 44.98 71.656 46.539 73.266C48.051 74.879 49.945 73.602 51.406 69.937C52.172 68.07 53.273 67.07 54.555 67.07C55.68 67.07 55.887 67.762 55.398 69.863C54.68 73.113 55.168 73.957 57.191 72.961C57.855 72.652 58.957 71.938 59.621 71.426L60.875 70.426L61.723 65.996C62.645 61.031 63 60.363 64.895 60.008C66.715 59.672 67.125 60.57 66.457 63.41L66.097 65L67.43 63.64C70.578 60.414 74.445 58.828 75.777 60.16C76.492 60.875 76.414 61.773 75.391 64.945C74.906 66.457 74.238 68.84 73.934 70.195C73.473 72.242 73.445 72.73 73.704 73.063C74.524 74.035 77.031 73.035 79.258 70.859L80.563 69.582L80.719 66.738C80.871 63.461 81.176 62.285 82.047 61.234C82.867 60.262 84.352 59.547 85.145 59.75C85.938 59.957 85.938 60.723 85.223 62.977C84.223 66.074 84.328 73.215 85.352 73.215C85.762 73.215 87.859 71.015 89.192 69.172L90.188 67.812L89.395 66.996C88.012 65.536 87.68 64.59 87.68 62.207C87.68 60.469 87.809 59.828 88.242 58.98C88.961 57.652 90.086 56.68 91.418 56.293C92.824 55.859 94.566 56.574 95.281 57.855C96 59.16 95.821 62.078 94.898 64.078L94.234 65.535H95.129C96.359 65.535 96.844 65.23 99.047 63.156C100.199 62.055 101.531 61.106 102.527 60.645C106.445 58.805 111.055 59.75 111.82 62.566C112.46 64.82 111.055 66.406 108.594 66.226C106.828 66.098 106.496 65.636 107.52 64.77C109.363 63.23 107.52 61.262 104.883 61.977C103.449 62.363 101.836 63.973 100.993 65.844C99.301 69.582 100.199 73.984 102.629 73.984C103.602 73.984 105.32 72.063 105.984 70.195C106.777 68.043 108.441 66.688 109.695 67.175C110.387 67.43 110.438 68.121 110.004 70.297C109.516 72.68 109.441 74.907 109.824 75.93C109.977 76.312 110.438 77.031 110.875 77.516C111.691 78.437 111.719 78.77 111.027 79.207C110.695 79.437 110.257 79.336 109.184 78.747C107.699 77.977 106.418 76.594 105.957 75.289L105.676 74.523L104.652 75.289C104.062 75.699 103.141 76.16 102.605 76.312C100.48 76.875 97.867 75.418 96.641 72.961C96.152 72.011 96 69.223 96.359 68.148C96.563 67.558 96.563 67.558 95.742 67.968C95.309 68.199 94.387 68.453 93.672 68.531C92.492 68.661 92.312 68.789 91.137 70.273C89.473 72.343 86.527 75.137 85.324 75.727C82.766 77.004 81.922 76.645 81.254 74.007L80.793 72.242L79.691 73.215C78.285 74.445 75.469 75.93 73.855 76.289C72.32 76.621 70.68 76.133 70.015 75.109C69.02 73.574 69.352 70.324 70.937 65.945C72.113 62.695 71.27 62.645 68.301 65.742C66.098 68.07 65.152 69.734 64.539 72.32C63.899 75.008 63.129 75.98 61.391 76.39C60.34 76.621 59.851 75.98 60.059 74.574L60.211 73.445L59.238 74.113C57.855 75.059 56.113 75.93 54.91 76.262C53.707 76.594 52.121 76.238 51.738 75.57C51.047 74.395 51.047 74.395 49.973 75.238C47.641 77.133 44.313 76.594 42.625 74.086L42.085 73.293L40.398 74.855C35.531 79.309 29.441 81.305 24.934 79.922C19.199 78.184 16.027 73.266 16.078 66.176C16.102 59.059 19.25 51.559 24.551 46.004C27.547 42.879 30.363 41.035 33.231 40.344C35.301 39.832 36.559 39.858 38.527 40.472Z" fill="#808080" fill-opacity="0.45"/>
<path d="M90.4181 58.676C89.8551 59.238 90.0621 61.492 90.7781 62.926C91.1371 63.668 91.5201 64.258 91.6481 64.258C91.7501 64.258 91.9801 63.668 92.1601 62.949C92.8001 60.289 91.6481 57.445 90.4181 58.676Z" fill="#808080" fill-opacity="0.45"/>
</g>
<defs>
<clipPath id="clip0_110_338">
<rect width="128" height="128" fill="white"/>
</clipPath>
</defs>
</svg>
