<svg width="220" height="220" viewBox="0 0 220 220" fill="none" xmlns="http://www.w3.org/2000/svg">
<g filter="url(#filter0_df_110_397)">
<circle cx="97" cy="97" r="75" fill="#DDC4CB" fill-opacity="0.38" shape-rendering="crispEdges"/>
</g>
<g clip-path="url(#clip0_110_397)">
<path d="M97 47C69.3781 47 47 69.3781 47 97C47 124.622 69.3781 147 97 147C124.622 147 147 124.622 147 97C147 69.3781 124.622 47 97 47ZM76.0031 79C79.1438 79 81.5875 81.2906 81.8625 83.9969C82.1594 86.4375 81.1469 88.5719 78.4469 89.8562C77.0125 90.5719 76.4438 90.5719 76.15 90.1469C76.0031 89.8563 76.15 89.5813 76.4406 89.2844C79.0156 87.1563 79.0156 85.4313 78.7187 83.0063C78.5719 81.4281 77.4344 80.4312 76.2937 80.4312C71.2812 80.4312 64.1531 91.5656 65.1438 99.7188C65.5844 102.859 67.4406 106.572 71.4281 106.572C72.7156 106.572 74.15 106.147 75.4312 105.581C77.5156 104.472 78.7688 103.628 80.0063 102.244C79.6969 98.5469 82.9344 93.7156 87.7187 93.7156C89.8687 93.7156 91.5781 94.5781 91.7219 96.1562C92 98.2906 90.1437 98.5813 89.575 98.5813C89.0031 98.5813 87.9969 98.4344 87.9969 97.8656C87.8688 97.2938 89.2812 97.575 89.15 96.2875C89.0031 95.425 88.1406 95.15 87.2969 95.15C84.2844 95.15 82.575 99.3 83 101.853C83.1469 103.006 83.7125 104.15 84.8719 104.15C85.7188 104.15 87.0062 102.863 87.425 101.009C87.7156 99.7219 88.8594 98.8594 89.8656 98.8594C90.2906 98.8594 90.5656 99.0062 90.7125 99.575V100.147C90.5844 100.719 90.1406 102.444 90.2906 102.862C90.2906 103.159 90.4375 103.578 91.0031 103.578C91.3781 103.578 92.8125 102.828 94.2438 101.656C94.7156 99.1969 95.2844 96.2531 95.2844 96.0094C95.4313 95 95.8563 94.0062 97.8563 94.0062C98.2938 94.0062 98.5719 94.1531 98.7187 94.7219V95.2938L98.1469 97.8656C100.006 95.4406 102.722 93.7313 104.431 93.7313C105.147 93.7313 105.719 94.1531 105.719 94.8687C105.719 95.2937 105.719 96.0094 105.422 96.7281C104.856 98.2906 104.138 100.731 103.713 102.862C103.713 103.434 103.859 104.003 104.575 104.003C105.291 104.003 107.425 103.156 109.134 100.863L109.169 100.847C109.169 100.569 109.134 100.294 109.134 100.019C109.134 98.2937 109.281 96.8781 109.575 95.8687C109.866 94.7281 111.284 93.7344 112.147 93.7344C112.569 93.7344 113.009 94.0094 113.009 94.4344C113.009 94.5812 113.009 94.8719 112.863 95.0063C112.291 96.8781 111.85 98.5844 111.85 100.294C111.85 101.303 112 102.719 112.291 103.581C112.291 103.728 112.419 103.872 112.566 103.872C112.863 103.872 114.863 102.019 116.278 99.575C114.991 98.7281 114.275 97.2969 114.275 95.5875C114.275 92.5781 116.15 91.0125 117.859 91.0125C119.294 91.0125 120.431 92.0094 120.431 94.0094C120.431 95.2969 120.006 96.7312 119.294 98.0125H119.716C120.628 98.0469 121.525 97.6719 122.141 97.0219C122.277 96.8044 122.476 96.6342 122.713 96.5344C124.113 94.7594 126.162 93.4438 128.587 93.4438C130.587 93.4438 132.428 94.3062 132.575 95.8687C132.866 98.0156 130.997 98.4406 130.425 98.4406C129.859 98.4406 128.85 98.2938 128.85 97.725C128.85 97.1563 130.134 97.4344 130.003 96.1625C129.856 95.3 128.994 95.0094 128.131 95.0094C125.281 95.0094 123.428 98.7187 123.847 101.731C123.994 102.869 124.563 104.156 125.706 104.156C126.569 104.156 127.853 102.869 128.422 101.016C128.697 99.8781 129.856 98.8656 130.847 98.8656C131.284 98.8656 131.563 99.0125 131.709 99.5813C131.709 99.8781 131.709 100.444 131.137 102.303C130.422 103.588 130.422 104.303 130.572 104.875C130.7 106.013 131.272 106.875 131.856 107.3C131.961 107.433 132.054 107.574 132.134 107.722C132.134 108.019 131.984 108.309 131.562 108.309C131.416 108.309 131.284 108.309 131.137 108.163C128.991 107.3 128.128 105.866 127.85 104.434C126.987 105.444 125.997 106.013 124.841 106.013C122.981 106.013 121.144 104.303 120.853 102.153C120.764 101.241 120.87 100.321 121.163 99.4531C120.316 99.9906 119.403 100.3 118.559 100.3H117.859C115.987 103.016 113.984 104.875 112.569 105.722C112.081 105.982 111.542 106.131 110.991 106.159C110.716 106.159 110.278 106.013 110.144 105.722C109.741 105.088 109.494 104.094 109.331 102.956C107.328 105.134 104.559 106.306 103.278 106.306C101.844 106.306 101 105.444 100.853 104.016V102.453C101.275 99.3125 102.431 97.4406 102.431 96.8688C102.423 96.7935 102.389 96.7234 102.335 96.6705C102.281 96.6175 102.21 96.5849 102.134 96.5781C101.144 96.5781 97.8562 100.012 97.2844 102.306L96.8469 104.159C96.5688 105.444 95.2844 106.306 94.4219 106.306C93.9969 106.306 93.7063 106.159 93.575 105.594V105.022L93.7531 104.047C91.9438 105.331 90.1375 106.159 89.275 106.159C87.9906 106.159 87.275 105.444 87.1469 104.434C86.2844 105.594 85.2875 106.159 84.0063 106.159C82.5219 106.159 81.0937 105.15 80.4094 103.687C79.3812 104.841 78.225 105.997 76.8594 106.875C74.8594 108.162 72.5813 109.153 69.8594 109.153C67.4344 109.153 65.2875 107.866 64.1469 106.728C62.4219 105.15 61.4313 102.725 61.2844 100.444C60.4375 93.4469 64.7188 84.4438 71.275 80.4406C72.8531 79.5781 74.4344 79.0125 75.9969 79.0125L76.0031 79ZM116.709 92.7219C116.287 92.7219 115.997 93.4375 115.997 94.1344C115.997 95.2938 116.562 96.575 117.281 97.2937C117.568 96.5117 117.717 95.686 117.722 94.8531C117.722 93.4406 117.15 92.725 116.709 92.725V92.7219Z" fill="black"/>
</g>
<defs>
<filter id="filter0_df_110_397" x="0" y="0" width="220" height="220" filterUnits="userSpaceOnUse" color-interpolation-filters="sRGB">
<feFlood flood-opacity="0" result="BackgroundImageFix"/>
<feColorMatrix in="SourceAlpha" type="matrix" values="0 0 0 0 0 0 0 0 0 0 0 0 0 0 0 0 0 0 127 0" result="hardAlpha"/>
<feOffset dx="13" dy="13"/>
<feGaussianBlur stdDeviation="17.5"/>
<feComposite in2="hardAlpha" operator="out"/>
<feColorMatrix type="matrix" values="0 0 0 0 0 0 0 0 0 0 0 0 0 0 0 0 0 0 0.25 0"/>
<feBlend mode="normal" in2="BackgroundImageFix" result="effect1_dropShadow_110_397"/>
<feBlend mode="normal" in="SourceGraphic" in2="effect1_dropShadow_110_397" result="shape"/>
<feGaussianBlur stdDeviation="2" result="effect2_foregroundBlur_110_397"/>
</filter>
<clipPath id="clip0_110_397">
<rect width="100" height="100" fill="white" transform="translate(47 47)"/>
</clipPath>
</defs>
</svg>
