<svg width="299" height="264" viewBox="0 0 299 264" fill="none" xmlns="http://www.w3.org/2000/svg">
<g filter="url(#filter0_df_110_362)">
<ellipse cx="136.5" cy="119" rx="114.5" ry="97" fill="#DDC4CB" fill-opacity="0.38" shape-rendering="crispEdges"/>
</g>
<path d="M181.391 55H91.6094C69.7337 55 52 68.4315 52 85V153C52 169.569 69.7337 183 91.6094 183H181.391C203.266 183 221 169.569 221 153V85C221 68.4315 203.266 55 181.391 55Z" fill="#0277BD"/>
<path d="M87.4854 106.326L89.3747 122.297H136.563V106.326H87.4854ZM136.563 74H83.6875L85.6046 89.971H136.563V74ZM136.563 164.421V147.804L136.47 147.823L112.986 143.02L111.485 130.282H90.3168L93.271 155.359L136.466 164.441L136.563 164.421Z" fill="#EBEBEB"/>
<path d="M162.456 122.297L160.008 143.009L136.49 147.817V164.433L179.719 155.359L180.036 152.66L184.991 110.614L185.505 106.326L189.312 74H136.49V89.971H166.203L164.285 106.326H136.49V122.297H162.456Z" fill="white"/>
<defs>
<filter id="filter0_df_110_362" x="0" y="0" width="299" height="264" filterUnits="userSpaceOnUse" color-interpolation-filters="sRGB">
<feFlood flood-opacity="0" result="BackgroundImageFix"/>
<feColorMatrix in="SourceAlpha" type="matrix" values="0 0 0 0 0 0 0 0 0 0 0 0 0 0 0 0 0 0 127 0" result="hardAlpha"/>
<feOffset dx="13" dy="13"/>
<feGaussianBlur stdDeviation="17.5"/>
<feComposite in2="hardAlpha" operator="out"/>
<feColorMatrix type="matrix" values="0 0 0 0 0 0 0 0 0 0 0 0 0 0 0 0 0 0 0.25 0"/>
<feBlend mode="normal" in2="BackgroundImageFix" result="effect1_dropShadow_110_362"/>
<feBlend mode="normal" in="SourceGraphic" in2="effect1_dropShadow_110_362" result="shape"/>
<feGaussianBlur stdDeviation="2" result="effect2_foregroundBlur_110_362"/>
</filter>
</defs>
</svg>
