<svg width="211" height="44" viewBox="0 0 211 44" fill="none" xmlns="http://www.w3.org/2000/svg">
<g clip-path="url(#clip0_28_839)">
<path d="M18.3683 0.889804C20.0394 0.852896 21.7077 1.05341 23.3292 1.48605C24.7016 1.74985 26.0127 2.29601 27.1896 3.09409C28.2896 3.83079 29.1522 4.90887 29.6616 6.1837C30.2389 7.67174 30.5214 9.27116 30.4912 10.8814C30.5582 12.7175 30.0454 14.5245 29.0351 16.0126C28.0382 17.4705 26.7096 18.6333 25.1748 19.3914C27.2863 19.962 29.1399 21.3127 30.4066 23.2037C31.594 25.1215 32.2188 27.3735 32.2013 29.672C32.2277 31.5042 31.8508 33.3175 31.1008 34.9659C30.391 36.423 29.3487 37.6657 28.07 38.5795C26.7225 39.527 25.2339 40.2235 23.6679 40.6392C22.0489 41.1019 20.3828 41.3507 18.7069 41.38H0.353271V0.889804H18.3683ZM17.2678 17.3316C18.5854 17.3977 19.889 17.0184 20.9927 16.2475C21.473 15.804 21.8477 15.2452 22.0861 14.617C22.3246 13.9887 22.4198 13.3091 22.3641 12.6339C22.3891 11.8289 22.2504 11.0276 21.9578 10.2851C21.6611 9.69902 21.2373 9.19721 20.7218 8.82162C20.1507 8.43144 19.5288 8.13314 18.8763 7.93629C18.1489 7.81043 17.4115 7.76201 16.6752 7.79175H8.7174V17.3316H17.2678ZM17.6741 34.6587C18.4673 34.6268 19.2555 34.5118 20.0276 34.3154C20.7241 34.1752 21.3831 33.8729 21.9578 33.4301C22.5153 33.0023 22.9825 32.4545 23.3292 31.8221C23.6912 31.0116 23.9038 30.1345 23.9557 29.2384C24.0114 28.3925 23.8881 27.5442 23.5951 26.756C23.302 25.9679 22.8466 25.2602 22.2625 24.6852C20.9665 23.7513 19.4226 23.2888 17.8604 23.3663H8.7174V34.6768L17.6741 34.6587ZM44.2734 34.5142C44.9463 35.152 45.7316 35.6403 46.5834 35.9505C47.4352 36.2607 48.3364 36.3867 49.2343 36.321C50.6431 36.3368 52.0276 35.9299 53.2301 35.1466C54.131 34.4988 54.8321 33.5809 55.245 32.5087H62.0176C61.206 35.5738 59.4604 38.2631 57.0566 40.1514C54.664 41.7331 51.8961 42.5483 49.0819 42.5002C47.0608 42.5059 45.0566 42.1075 43.1729 41.3258C41.4784 40.6508 39.9663 39.5399 38.7707 38.0916C37.4914 36.7445 36.5434 35.0813 36.0109 33.2494C35.3245 31.2299 34.9972 29.0914 35.0458 26.9437C35.0081 24.844 35.3354 22.7551 36.0109 20.7826C36.6763 18.9423 37.6583 17.251 38.9061 15.7958C40.1648 14.4255 41.6595 13.3273 43.3083 12.5617C45.1447 11.7794 47.1047 11.3807 49.0819 11.3873C51.2298 11.3138 53.3606 11.817 55.2788 12.8508C56.977 13.7477 58.4336 15.0906 59.5117 16.7534C60.6343 18.4465 61.4708 20.3359 61.9837 22.3364C62.2867 24.4764 62.3775 26.6445 62.2546 28.8047H42.3094C42.2762 30.9023 42.9764 32.9378 44.2734 34.5142ZM52.9423 19.1023C51.7735 17.9885 50.2406 17.4108 48.6756 17.4942C47.6243 17.4781 46.5848 17.7322 45.6449 18.235C44.9205 18.65 44.2677 19.1938 43.7147 19.8431C43.207 20.4111 42.8708 21.1286 42.7496 21.9028C42.602 22.5305 42.5113 23.1718 42.4787 23.818H54.8556C54.7268 22.0558 54.0402 20.3928 52.9084 19.1023H52.9423ZM73.0569 0.889804V16.2475C73.9025 14.6539 75.2011 13.3885 76.7648 12.6339C78.1335 11.9019 79.6366 11.5009 81.167 11.4595C82.86 11.3892 84.5485 11.6905 86.1279 12.3449C87.324 12.8809 88.3685 13.7403 89.1586 14.8382C89.9043 15.9832 90.4175 17.2817 90.6655 18.6506C90.9794 20.2375 91.1495 21.853 91.1735 23.4747V41.5426H83.6051V24.9743C83.7105 23.0941 83.3298 21.2191 82.5046 19.554C82.0929 18.9282 81.5322 18.4309 80.8805 18.1134C80.2287 17.7958 79.5094 17.6694 78.7966 17.7472C77.9736 17.6771 77.1467 17.8139 76.3822 18.1465C75.6177 18.4791 74.9369 18.9983 74.3944 19.6624C73.3236 21.6219 72.8558 23.8905 73.0569 26.1488V41.5426H65.4377V0.889804H73.0569ZM96.6762 16.4463C97.4742 15.2028 98.5064 14.1505 99.7069 13.3567C100.992 12.5823 102.388 12.039 103.838 11.7486C105.336 11.4593 106.854 11.3142 108.376 11.315C109.747 11.315 111.136 11.4595 112.643 11.6041C113.984 11.7491 115.291 12.1467 116.503 12.7785C117.637 13.3567 118.629 14.2107 119.398 15.2719C120.157 16.5422 120.529 18.0313 120.465 19.5359V34.9478C120.482 36.2233 120.572 37.4965 120.736 38.7602C120.845 39.7593 121.183 40.7146 121.718 41.5426H114.014C113.746 41.1477 113.556 40.699 113.455 40.2237C113.343 39.7456 113.297 39.2525 113.32 38.7602C112.127 40.0392 110.664 40.9935 109.053 41.5426C107.448 42.077 105.773 42.3272 104.092 42.2834C102.833 42.3114 101.579 42.1098 100.384 41.6872C99.2872 41.362 98.2585 40.8162 97.3535 40.0791C96.4882 39.318 95.7841 38.3697 95.2878 37.2967C94.8218 36.0371 94.5862 34.6939 94.5936 33.3398C94.5429 31.9142 94.8282 30.4978 95.4233 29.2203C95.9577 28.2157 96.6574 27.3221 97.4889 26.5824C98.4169 25.9202 99.4409 25.4257 100.52 25.1189C101.631 24.7902 102.763 24.5427 103.906 24.3781L107.292 23.9445C108.421 23.7999 109.386 23.6554 110.187 23.5108C110.923 23.2869 111.62 22.9392 112.253 22.481C112.513 22.2521 112.714 21.9557 112.835 21.6203C112.957 21.2849 112.995 20.9217 112.947 20.5658C112.992 19.8524 112.851 19.1396 112.541 18.506C112.246 18.0445 111.873 17.6461 111.44 17.3316C110.972 17.0462 110.463 16.8448 109.934 16.7354C109.297 16.6086 108.65 16.5601 108.003 16.5908C106.796 16.4923 105.595 16.8575 104.617 17.6207C103.718 18.492 103.177 19.7057 103.11 20.9994H95.4402C95.4524 19.3893 95.88 17.814 96.6762 16.4463ZM111.677 27.9013C111.271 28.0459 110.712 28.1904 110.171 28.335C109.629 28.4795 109.07 28.4795 108.376 28.6241C107.682 28.7686 107.14 28.7686 106.581 28.9131L104.888 29.3468C104.382 29.4725 103.911 29.7266 103.517 30.0876C103.125 30.4067 102.797 30.806 102.551 31.262C102.208 31.829 102.064 32.5076 102.145 33.1772C102.106 33.8095 102.247 34.4396 102.551 34.984C102.805 35.4287 103.139 35.8155 103.533 36.1222C104.002 36.4077 104.511 36.6091 105.04 36.7185C105.631 36.8459 106.234 36.8944 106.835 36.863C108.031 36.9117 109.22 36.6578 110.306 36.1222C110.996 35.633 111.575 34.9847 111.999 34.2251C112.413 33.5707 112.653 32.809 112.693 32.0208C112.799 31.4255 112.845 30.8197 112.829 30.214V27.0883C112.478 27.4092 112.091 27.6823 111.677 27.9013ZM131.894 12.0558V16.2475H132.029C132.875 14.6539 134.173 13.3885 135.737 12.6339C137.201 11.8995 138.793 11.4994 140.41 11.4595C142.103 11.3892 143.792 11.6905 145.371 12.3449C146.588 12.8414 147.642 13.7084 148.402 14.8382C149.155 16.0032 149.727 17.2906 150.095 18.6506C150.363 20.2422 150.488 21.8576 150.467 23.4747V41.5426H142.899V24.9743C143.004 23.0941 142.624 21.2191 141.798 19.554C141.373 18.8965 140.791 18.3723 140.113 18.0356C139.434 17.6989 138.683 17.5619 137.938 17.6388C137.074 17.6041 136.214 17.7872 135.429 18.1733C134.643 18.5594 133.954 19.1377 133.417 19.8611C132.338 21.8114 131.859 24.0734 132.046 26.3294V41.7414H124.461V12.0558H131.894ZM167.399 17.3316C166.327 17.2884 165.269 17.5974 164.368 18.2169C163.513 18.8118 162.805 19.6174 162.302 20.5658C161.771 21.5203 161.399 22.5655 161.202 23.6554C160.971 24.7821 160.88 25.9363 160.931 27.0883C160.953 28.1716 161.043 29.2521 161.202 30.3224C161.399 31.3671 161.772 32.365 162.302 33.2675C162.797 34.1364 163.454 34.8869 164.233 35.4718C165.134 36.0913 166.192 36.4004 167.263 36.3571C168.825 36.4142 170.349 35.8399 171.53 34.7491C172.61 33.5611 173.248 31.9939 173.325 30.3405H180.622C180.346 33.8267 178.817 37.0638 176.356 39.3745C173.769 41.5198 170.553 42.6148 167.28 42.4641C165.347 42.4713 163.431 42.0722 161.642 41.2897C159.982 40.612 158.48 39.5578 157.24 38.2001C155.973 36.8052 154.983 35.1522 154.328 33.3398C153.653 31.4172 153.326 29.3757 153.363 27.3232C153.312 25.1695 153.639 23.0246 154.328 20.9994C154.946 19.1233 155.881 17.3841 157.088 15.8681C158.341 14.4541 159.835 13.3074 161.49 12.4894C163.373 11.7077 165.378 11.3093 167.399 11.315C168.981 11.335 170.553 11.5842 172.072 12.0558C173.512 12.4706 174.868 13.1692 176.068 14.1155C177.318 15.0226 178.318 16.2703 178.963 17.7291C179.696 19.2812 180.117 20.9798 180.199 22.7159H172.766C172.806 21.9678 172.691 21.2196 172.431 20.5239C172.17 19.8281 171.77 19.2017 171.259 18.6885C170.747 18.1753 170.137 17.7879 169.47 17.5535C168.803 17.3191 168.096 17.2434 167.399 17.3316ZM40.8025 3.67226H56.2101V7.62914H40.8025V3.67226ZM192.034 34.5142C193.403 35.7852 195.184 36.4337 196.995 36.321C198.404 36.3368 199.788 35.9299 200.991 35.1466C201.904 34.5041 202.617 33.5857 203.039 32.5087H209.643C208.831 35.5738 207.086 38.2631 204.682 40.1514C202.269 41.7241 199.483 42.5208 196.656 42.446C194.635 42.4517 192.631 42.0533 190.747 41.2716C189.085 40.5445 187.587 39.4483 186.352 38.0558C185.117 36.6634 184.174 35.0065 183.585 33.1952C182.899 31.1757 182.572 29.0372 182.62 26.8895C182.583 24.7898 182.91 22.7009 183.585 20.7284C184.254 18.8803 185.242 17.1826 186.497 15.7236C187.756 14.3532 189.251 13.255 190.9 12.4894C192.74 11.7208 194.697 11.3227 196.673 11.315C198.779 11.2231 200.871 11.7281 202.735 12.7785C204.451 13.6854 205.92 15.048 207.001 16.7354C208.124 18.4284 208.961 20.3179 209.473 22.3184C210.013 24.4723 210.202 26.709 210.032 28.9312H190.104C190.081 30.9823 190.768 32.9703 192.034 34.5142ZM200.838 19.1023C199.67 17.9885 198.137 17.4108 196.572 17.4942C195.52 17.4781 194.481 17.7322 193.541 18.235C192.78 18.6117 192.108 19.1677 191.577 19.8611C191.121 20.466 190.792 21.1684 190.612 21.9209C190.464 22.5485 190.373 23.1899 190.341 23.8361H202.718C202.467 22.1181 201.802 20.4992 200.788 19.1384L200.838 19.1023Z" fill="white" fill-opacity="0.55"/>
</g>
<defs>
<clipPath id="clip0_28_839">
<rect width="210" height="43" fill="white" transform="translate(0.215088 0.3396)"/>
</clipPath>
</defs>
</svg>
