<svg width="129" height="92" viewBox="0 0 129 92" fill="none" xmlns="http://www.w3.org/2000/svg">
<mask id="mask0_110_325" style="mask-type:luminance" maskUnits="userSpaceOnUse" x="-1" y="0" width="130" height="92">
<path d="M127 46C127.01 51.7296 125.389 57.4039 122.231 62.695C119.072 67.986 114.438 72.789 108.597 76.8262C102.803 80.8515 95.9266 84.0426 88.3602 86.2172C80.7938 88.3918 72.6859 89.5073 64.4998 89.5C29.981 89.5 1.99981 70.025 1.99981 46C1.97796 34.8461 8.13378 24.1155 19.1873 16.0394C25.0196 11.756 32.0464 8.34587 39.8377 6.01784C47.629 3.68981 56.0208 2.49279 64.4998 2.50004C72.6859 2.49266 80.7938 3.60816 88.3602 5.78279C95.9266 7.95741 102.803 11.1485 108.597 15.1737C114.438 19.211 119.072 24.014 122.231 29.305C125.389 34.5961 127.01 40.2704 127 46Z" fill="white" stroke="white" stroke-width="4" stroke-linecap="round" stroke-linejoin="round"/>
<path d="M127 46C117.881 46 92.7251 43.6075 70.2095 50.487C45.7501 57.9625 28.0408 69.5574 20.322 76.7697" stroke="black" stroke-width="4" stroke-linecap="round" stroke-linejoin="round"/>
<path d="M41.062 5.6626C50.8433 11.9462 72.187 27.9433 80.1245 43.8251C88.062 59.7069 90.9995 79.2341 92.812 84.7912" stroke="black" stroke-width="4" stroke-linecap="round" stroke-linejoin="round"/>
<path d="M2.4812 40.5625C14.2874 41.0584 45.5405 41.5043 65.5405 35.56C85.5405 29.6157 102.75 18.682 108.653 15.2129" stroke="black" stroke-width="4" stroke-linecap="round" stroke-linejoin="round"/>
<path d="M6.68731 62.5583C12.1945 71.8366 22.127 79.5107 34.8123 84.2887M1.99981 46C1.97796 34.8461 8.13378 24.1155 19.1873 16.0394C25.0196 11.756 32.0464 8.34587 39.8377 6.01784C47.629 3.6898 56.0208 2.49278 64.4998 2.50003M89.4997 6.11923C96.6173 8.2867 103.093 11.3571 108.597 15.1737C114.438 19.211 119.072 24.014 122.231 29.305C125.389 34.5961 127.01 40.2704 127 46C127 51.3548 125.609 56.4857 123.062 61.225M64.4998 89.5C72.6859 89.5073 80.7938 88.3918 88.3602 86.2172C95.9266 84.0426 102.803 80.8515 108.597 76.8262" stroke="white" stroke-width="4" stroke-linecap="round" stroke-linejoin="round"/>
</mask>
<g mask="url(#mask0_110_325)">
<path d="M-19.0002 -6.5H131V97.8999H-19.0002V-6.5Z" fill="#808080" fill-opacity="0.48"/>
</g>
</svg>
