<svg width="220" height="220" viewBox="0 0 220 220" fill="none" xmlns="http://www.w3.org/2000/svg">
<g filter="url(#filter0_df_110_401)">
<circle cx="97" cy="97" r="75" fill="#DDC4CB" fill-opacity="0.38" shape-rendering="crispEdges"/>
</g>
<g clip-path="url(#clip0_110_401)">
<path d="M82.5469 153.781C91.8437 153.781 99.3438 146.281 99.3438 136.984V120.188H82.5469C73.25 120.188 65.75 127.688 65.75 136.984C65.75 146.281 73.25 153.781 82.5469 153.781Z" fill="#0ACF83"/>
<path d="M65.75 103.391C65.75 94.0938 73.25 86.5938 82.5469 86.5938H99.3438V120.188H82.5469C73.25 120.188 65.75 112.687 65.75 103.391Z" fill="#A259FF"/>
<path d="M65.75 69.7969C65.75 60.5 73.25 53 82.5469 53H99.3438V86.5938H82.5469C73.25 86.5938 65.75 79.0937 65.75 69.7969Z" fill="#F24E1E"/>
<path d="M99.3438 53H116.141C125.437 53 132.938 60.5 132.938 69.7969C132.938 79.0937 125.437 86.5938 116.141 86.5938H99.3438V53Z" fill="#FF7262"/>
<path d="M132.938 103.391C132.938 112.687 125.437 120.188 116.141 120.188C106.844 120.188 99.3438 112.687 99.3438 103.391C99.3438 94.0938 106.844 86.5938 116.141 86.5938C125.437 86.5938 132.938 94.0938 132.938 103.391Z" fill="#1ABCFE"/>
</g>
<defs>
<filter id="filter0_df_110_401" x="0" y="0" width="220" height="220" filterUnits="userSpaceOnUse" color-interpolation-filters="sRGB">
<feFlood flood-opacity="0" result="BackgroundImageFix"/>
<feColorMatrix in="SourceAlpha" type="matrix" values="0 0 0 0 0 0 0 0 0 0 0 0 0 0 0 0 0 0 127 0" result="hardAlpha"/>
<feOffset dx="13" dy="13"/>
<feGaussianBlur stdDeviation="17.5"/>
<feComposite in2="hardAlpha" operator="out"/>
<feColorMatrix type="matrix" values="0 0 0 0 0 0 0 0 0 0 0 0 0 0 0 0 0 0 0.25 0"/>
<feBlend mode="normal" in2="BackgroundImageFix" result="effect1_dropShadow_110_401"/>
<feBlend mode="normal" in="SourceGraphic" in2="effect1_dropShadow_110_401" result="shape"/>
<feGaussianBlur stdDeviation="2" result="effect2_foregroundBlur_110_401"/>
</filter>
<clipPath id="clip0_110_401">
<rect width="100" height="100" fill="white" transform="translate(47 53)"/>
</clipPath>
</defs>
</svg>
