<svg width="314" height="253" viewBox="0 0 314 253" fill="none" xmlns="http://www.w3.org/2000/svg">
<g filter="url(#filter0_df_110_401)">
<ellipse cx="144" cy="113.5" rx="121.5" ry="91" fill="#DDC4CB" fill-opacity="0.38" shape-rendering="crispEdges"/>
</g>
<g clip-path="url(#clip0_110_401)">
<path d="M134 182.5C145.9 182.5 155.5 172.9 155.5 161V139.5H134C122.1 139.5 112.5 149.1 112.5 161C112.5 172.9 122.1 182.5 134 182.5Z" fill="#0ACF83"/>
<path d="M112.5 118C112.5 106.1 122.1 96.5 134 96.5H155.5V139.5H134C122.1 139.5 112.5 129.9 112.5 118Z" fill="#A259FF"/>
<path d="M112.5 75C112.5 63.1 122.1 53.5 134 53.5H155.5V96.5H134C122.1 96.5 112.5 86.9 112.5 75Z" fill="#F24E1E"/>
<path d="M155.5 53.5H177C188.9 53.5 198.5 63.1 198.5 75C198.5 86.9 188.9 96.5 177 96.5H155.5V53.5Z" fill="#FF7262"/>
<path d="M198.5 118C198.5 129.9 188.9 139.5 177 139.5C165.1 139.5 155.5 129.9 155.5 118C155.5 106.1 165.1 96.5 177 96.5C188.9 96.5 198.5 106.1 198.5 118Z" fill="#1ABCFE"/>
</g>
<defs>
<filter id="filter0_df_110_401" x="0.5" y="0.5" width="313" height="252" filterUnits="userSpaceOnUse" color-interpolation-filters="sRGB">
<feFlood flood-opacity="0" result="BackgroundImageFix"/>
<feColorMatrix in="SourceAlpha" type="matrix" values="0 0 0 0 0 0 0 0 0 0 0 0 0 0 0 0 0 0 127 0" result="hardAlpha"/>
<feOffset dx="13" dy="13"/>
<feGaussianBlur stdDeviation="17.5"/>
<feComposite in2="hardAlpha" operator="out"/>
<feColorMatrix type="matrix" values="0 0 0 0 0 0 0 0 0 0 0 0 0 0 0 0 0 0 0.25 0"/>
<feBlend mode="normal" in2="BackgroundImageFix" result="effect1_dropShadow_110_401"/>
<feBlend mode="normal" in="SourceGraphic" in2="effect1_dropShadow_110_401" result="shape"/>
<feGaussianBlur stdDeviation="2" result="effect2_foregroundBlur_110_401"/>
</filter>
<clipPath id="clip0_110_401">
<rect width="128" height="128" fill="white" transform="translate(88.5 53.5)"/>
</clipPath>
</defs>
</svg>
