<svg width="241" height="49" viewBox="0 0 241 49" fill="none" xmlns="http://www.w3.org/2000/svg">
<g clip-path="url(#clip0_110_320)">
<path d="M230.873 48.1159C232.18 48.1167 233.474 47.946 234.682 47.6135C235.889 47.2809 236.987 46.7931 237.912 46.1777C238.837 45.5624 239.571 44.8316 240.072 44.0272C240.573 43.2227 240.832 42.3603 240.833 41.4892C240.835 40.6181 240.578 39.7554 240.08 38.9502C239.581 38.1451 238.849 37.4134 237.926 36.7968C237.003 36.1802 235.907 35.6909 234.7 35.3567C233.493 35.0225 232.2 34.8501 230.893 34.8492C228.254 34.8474 225.722 35.5446 223.855 36.7873C221.987 38.0301 220.936 39.7166 220.933 41.4759C220.931 43.2351 221.976 44.9231 223.84 46.1683C225.705 47.4135 228.234 48.1141 230.873 48.1159ZM220.913 23.4159H212.413C206.953 23.4159 204.013 26.1492 204.013 30.6959V47.1359H187.913V23.4159H181.073C175.603 23.4159 172.673 26.1492 172.673 30.6959V47.1359H156.573V14.6425H172.673V19.5759C175.313 15.7492 178.933 14.6425 184.303 14.6425H204.023V19.5759C206.663 15.7492 210.273 14.6425 215.643 14.6425H220.913V23.4159ZM153.053 33.4225H119.463C120.343 37.0625 123.763 39.1425 129.523 39.1425C133.823 39.1425 136.843 37.9759 137.823 35.8959L152.073 38.5625C148.563 44.2159 139.873 47.6559 129.523 47.6559C112.043 47.6559 104.033 38.6225 104.033 30.8892C104.033 23.2892 111.063 14.1892 128.533 14.1892C147.093 14.1892 153.243 23.4159 153.243 30.2425C153.243 31.7359 153.143 32.7092 153.043 33.4225H153.053ZM137.433 27.1225C137.033 24.3225 134.013 21.7225 128.543 21.7225C123.463 21.7225 120.443 23.2225 119.463 27.1225H137.433ZM75.9133 47.1292H90.0732L107.743 14.6359H91.5433L82.9433 33.5492L74.1633 14.6359H58.0332L75.9133 47.1292ZM9.91325 47.1292H25.9333V23.4092H41.1733V47.1292H57.0833V14.6359H25.9333V12.6225C25.9333 10.4092 28.2833 9.04921 31.9933 9.04921H41.1733V0.275879H29.3333C17.7133 0.275879 9.90325 5.02255 9.90325 11.9759V14.6425H0.833252V23.4159H9.91325V47.1359V47.1292Z" fill="#808080" fill-opacity="0.49"/>
</g>
<defs>
<clipPath id="clip0_110_320">
<rect width="241" height="49" fill="white"/>
</clipPath>
</defs>
</svg>
