<svg width="220" height="220" viewBox="0 0 220 220" fill="none" xmlns="http://www.w3.org/2000/svg">
<g filter="url(#filter0_df_110_409)">
<circle cx="97" cy="97" r="75" fill="#DDC4CB" fill-opacity="0.38" shape-rendering="crispEdges"/>
</g>
<g clip-path="url(#clip0_110_409)">
<path d="M123.562 47H70.4375C57.4933 47 47 57.4933 47 70.4375V123.562C47 136.507 57.4933 147 70.4375 147H123.562C136.507 147 147 136.507 147 123.562V70.4375C147 57.4933 136.507 47 123.562 47Z" fill="#F03C2E"/>
<mask id="mask0_110_409" style="mask-type:luminance" maskUnits="userSpaceOnUse" x="57" y="57" width="80" height="80">
<path d="M57.9375 57.9375H136.062V136.062H57.9375V57.9375Z" fill="white"/>
</mask>
<g mask="url(#mask0_110_409)">
<path d="M134.588 93.5211L100.479 59.4121C99.7756 58.708 98.8792 58.2285 97.9032 58.0343C96.9272 57.8401 95.9156 57.9399 94.9964 58.3211C94.3861 58.574 93.8316 58.9448 93.3647 59.4121L86.2847 66.4922L95.269 75.4766C97.3589 74.7441 99.7515 75.2445 101.416 76.9098C102.209 77.7038 102.762 78.7047 103.013 79.7982C103.264 80.8917 103.202 82.0337 102.835 83.0938L111.494 91.7535C113.589 91.0309 116.006 91.4969 117.678 93.1742C118.516 94.0115 119.086 95.0786 119.317 96.2402C119.548 97.4019 119.429 98.606 118.976 99.7C118.367 101.167 117.202 102.332 115.734 102.939C114.267 103.547 112.619 103.547 111.152 102.939C110.425 102.638 109.765 102.197 109.209 101.641C107.451 99.8832 107.017 97.2953 107.906 95.1297L99.8296 87.0535V108.306C100.416 108.596 100.952 108.979 101.416 109.439C102.539 110.562 103.17 112.085 103.17 113.672C103.17 115.26 102.539 116.783 101.416 117.906C100.294 119.029 98.7707 119.659 97.1829 119.659C95.5951 119.659 94.0723 119.029 92.9495 117.906C92.1115 117.069 91.5407 116.002 91.3094 114.841C91.0781 113.679 91.1968 112.475 91.6503 111.381C91.9514 110.654 92.3929 109.995 92.9495 109.439C93.528 108.863 94.1702 108.426 94.91 108.133V86.6824C94.176 86.3823 93.5093 85.9383 92.9495 85.3766C92.1089 84.5369 91.5374 83.4658 91.3078 82.3001C91.0782 81.1343 91.201 79.9266 91.6604 78.8309L82.7983 69.9738L59.4097 93.3379C58.7056 94.0415 58.226 94.9382 58.0316 95.9144C57.8373 96.8907 57.9369 97.9026 58.3179 98.8223C58.571 99.4328 58.942 99.9875 59.4097 100.455L93.521 134.561C93.988 135.028 94.5424 135.399 95.1526 135.652C96.3855 136.162 97.7705 136.162 99.0034 135.652C99.6136 135.399 100.168 135.028 100.635 134.561L134.588 100.662C135.055 100.195 135.426 99.6402 135.679 99.0297C135.932 98.4192 136.063 97.7648 136.063 97.1039C136.063 96.4429 135.933 95.7884 135.679 95.1778C135.426 94.5672 135.055 94.0125 134.588 93.5453" fill="white"/>
</g>
</g>
<defs>
<filter id="filter0_df_110_409" x="0" y="0" width="220" height="220" filterUnits="userSpaceOnUse" color-interpolation-filters="sRGB">
<feFlood flood-opacity="0" result="BackgroundImageFix"/>
<feColorMatrix in="SourceAlpha" type="matrix" values="0 0 0 0 0 0 0 0 0 0 0 0 0 0 0 0 0 0 127 0" result="hardAlpha"/>
<feOffset dx="13" dy="13"/>
<feGaussianBlur stdDeviation="17.5"/>
<feComposite in2="hardAlpha" operator="out"/>
<feColorMatrix type="matrix" values="0 0 0 0 0 0 0 0 0 0 0 0 0 0 0 0 0 0 0.25 0"/>
<feBlend mode="normal" in2="BackgroundImageFix" result="effect1_dropShadow_110_409"/>
<feBlend mode="normal" in="SourceGraphic" in2="effect1_dropShadow_110_409" result="shape"/>
<feGaussianBlur stdDeviation="2" result="effect2_foregroundBlur_110_409"/>
</filter>
<clipPath id="clip0_110_409">
<rect x="47" y="47" width="100" height="100" rx="50" fill="white"/>
</clipPath>
</defs>
</svg>
