<svg width="331" height="281" viewBox="0 0 331 281" fill="none" xmlns="http://www.w3.org/2000/svg">
<g filter="url(#filter0_df_110_409)">
<ellipse cx="152.5" cy="127.5" rx="130" ry="105.5" fill="#DDC4CB" fill-opacity="0.38" shape-rendering="crispEdges"/>
</g>
<g clip-path="url(#clip0_110_409)">
<path d="M189.5 64H121.5C104.931 64 91.5 77.4315 91.5 94V162C91.5 178.569 104.931 192 121.5 192H189.5C206.069 192 219.5 178.569 219.5 162V94C219.5 77.4315 206.069 64 189.5 64Z" fill="#F03C2E"/>
<mask id="mask0_110_409" style="mask-type:luminance" maskUnits="userSpaceOnUse" x="105" y="78" width="101" height="100">
<path d="M105.5 78H205.5V178H105.5V78Z" fill="white"/>
</mask>
<g mask="url(#mask0_110_409)">
<path d="M203.613 123.547L159.953 79.8873C159.053 78.9861 157.906 78.3724 156.656 78.1237C155.407 77.8751 154.112 78.0029 152.936 78.4908C152.154 78.8146 151.445 79.2891 150.847 79.8873L141.785 88.9498L153.285 100.45C155.959 99.5123 159.022 100.153 161.153 102.284C162.167 103.301 162.876 104.582 163.197 105.982C163.518 107.381 163.439 108.843 162.968 110.2L174.053 121.284C176.735 120.359 179.828 120.956 181.968 123.103C183.041 124.175 183.771 125.54 184.066 127.027C184.362 128.514 184.21 130.055 183.629 131.456C182.85 133.333 181.358 134.825 179.48 135.602C177.602 136.38 175.492 136.38 173.615 135.602C172.685 135.217 171.84 134.652 171.128 133.94C168.878 131.69 168.322 128.378 169.46 125.606L159.122 115.268V142.472C159.872 142.843 160.558 143.333 161.153 143.922C162.59 145.359 163.398 147.308 163.398 149.341C163.398 151.373 162.59 153.322 161.153 154.759C159.716 156.196 157.767 157.004 155.734 157.004C153.702 157.004 151.753 156.196 150.315 154.759C149.243 153.688 148.512 152.323 148.216 150.836C147.92 149.349 148.072 147.808 148.653 146.407C149.038 145.477 149.603 144.633 150.315 143.922C151.056 143.184 151.878 142.625 152.825 142.25V114.793C151.885 114.409 151.032 113.841 150.315 113.122C149.24 112.047 148.508 110.676 148.214 109.184C147.92 107.692 148.077 106.146 148.666 104.743L137.322 93.4063L107.385 123.312C106.483 124.213 105.869 125.361 105.621 126.61C105.372 127.86 105.499 129.155 105.987 130.332C106.311 131.114 106.786 131.824 107.385 132.422L151.047 176.078C151.645 176.676 152.354 177.15 153.136 177.474C154.714 178.128 156.486 178.128 158.064 177.474C158.846 177.15 159.555 176.676 160.153 176.078L203.613 132.687C204.211 132.089 204.686 131.379 205.01 130.598C205.333 129.816 205.5 128.979 205.501 128.133C205.501 127.287 205.334 126.449 205.01 125.667C204.686 124.886 204.211 124.176 203.613 123.578" fill="white"/>
</g>
</g>
<defs>
<filter id="filter0_df_110_409" x="0.5" y="0" width="330" height="281" filterUnits="userSpaceOnUse" color-interpolation-filters="sRGB">
<feFlood flood-opacity="0" result="BackgroundImageFix"/>
<feColorMatrix in="SourceAlpha" type="matrix" values="0 0 0 0 0 0 0 0 0 0 0 0 0 0 0 0 0 0 127 0" result="hardAlpha"/>
<feOffset dx="13" dy="13"/>
<feGaussianBlur stdDeviation="17.5"/>
<feComposite in2="hardAlpha" operator="out"/>
<feColorMatrix type="matrix" values="0 0 0 0 0 0 0 0 0 0 0 0 0 0 0 0 0 0 0.25 0"/>
<feBlend mode="normal" in2="BackgroundImageFix" result="effect1_dropShadow_110_409"/>
<feBlend mode="normal" in="SourceGraphic" in2="effect1_dropShadow_110_409" result="shape"/>
<feGaussianBlur stdDeviation="2" result="effect2_foregroundBlur_110_409"/>
</filter>
<clipPath id="clip0_110_409">
<rect width="128" height="128" fill="white" transform="translate(91.5 64)"/>
</clipPath>
</defs>
</svg>
