<svg width="331" height="281" viewBox="0 0 331 281" fill="none" xmlns="http://www.w3.org/2000/svg">
<g filter="url(#filter0_df_110_419)">
<ellipse cx="152.5" cy="127.5" rx="130" ry="105.5" fill="#DDC4CB" fill-opacity="0.38" shape-rendering="crispEdges"/>
</g>
<path d="M153.003 53C115.155 53 84.5 86.2652 84.5 127.336C84.4918 142.94 89.0116 158.151 97.4185 170.81C105.825 183.47 117.692 192.936 131.336 197.865C134.761 198.512 136.049 196.282 136.049 194.327C136.049 192.565 135.96 186.715 135.96 180.486C118.752 183.927 114.299 175.936 112.929 171.751C112.155 169.61 108.819 163.017 105.907 161.248C103.51 159.857 100.085 156.416 105.818 156.327C111.216 156.23 115.066 161.716 116.354 163.946C122.519 175.185 132.363 172.026 136.302 170.079C136.905 165.247 138.7 161.998 140.673 160.14C125.431 158.282 109.504 151.866 109.504 123.433C109.504 115.345 112.155 108.663 116.525 103.452C115.84 101.593 113.443 93.9738 117.21 83.7526C117.21 83.7526 122.944 81.8051 136.049 91.3795C141.625 89.6999 147.387 88.8546 153.175 88.8669C158.997 88.8669 164.82 89.6995 170.301 91.372C183.405 81.7084 189.139 83.7601 189.139 83.7601C192.907 93.9812 190.509 101.601 189.824 103.459C194.188 108.663 196.846 115.256 196.846 123.433C196.846 151.963 180.836 158.282 165.588 160.14C168.074 162.459 170.218 166.919 170.218 173.892C170.218 183.831 170.129 191.822 170.129 194.334C170.129 196.282 171.417 198.601 174.842 197.858C188.439 192.875 200.254 183.39 208.623 170.74C216.993 158.089 221.497 142.909 221.5 127.336C221.5 86.2652 190.845 53 152.997 53H153.003Z" fill="black"/>
<defs>
<filter id="filter0_df_110_419" x="0.5" y="0" width="330" height="281" filterUnits="userSpaceOnUse" color-interpolation-filters="sRGB">
<feFlood flood-opacity="0" result="BackgroundImageFix"/>
<feColorMatrix in="SourceAlpha" type="matrix" values="0 0 0 0 0 0 0 0 0 0 0 0 0 0 0 0 0 0 127 0" result="hardAlpha"/>
<feOffset dx="13" dy="13"/>
<feGaussianBlur stdDeviation="17.5"/>
<feComposite in2="hardAlpha" operator="out"/>
<feColorMatrix type="matrix" values="0 0 0 0 0 0 0 0 0 0 0 0 0 0 0 0 0 0 0.25 0"/>
<feBlend mode="normal" in2="BackgroundImageFix" result="effect1_dropShadow_110_419"/>
<feBlend mode="normal" in="SourceGraphic" in2="effect1_dropShadow_110_419" result="shape"/>
<feGaussianBlur stdDeviation="2" result="effect2_foregroundBlur_110_419"/>
</filter>
</defs>
</svg>
