<svg width="220" height="220" viewBox="0 0 220 220" fill="none" xmlns="http://www.w3.org/2000/svg">
<g filter="url(#filter0_df_110_419)">
<circle cx="97" cy="97" r="75" fill="#DDC4CB" fill-opacity="0.38" shape-rendering="crispEdges"/>
</g>
<path d="M97.0025 47C69.3761 47 47 69.9415 47 98.2659C46.994 109.027 50.2932 119.518 56.4295 128.249C62.5659 136.979 71.2279 143.508 81.1867 146.907C83.6868 147.353 84.6269 145.815 84.6269 144.467C84.6269 143.252 84.5619 139.217 84.5619 134.921C72.0013 137.295 68.7511 131.784 67.751 128.897C67.186 127.421 64.7509 122.874 62.6258 121.653C60.8757 120.695 58.3756 118.321 62.5608 118.26C66.501 118.193 69.3111 121.976 70.2512 123.514C74.7514 131.266 81.9367 129.087 84.8119 127.744C85.2519 124.412 86.562 122.171 88.0021 120.89C76.8765 119.608 65.2509 115.184 65.2509 95.5745C65.2509 89.9968 67.186 85.3879 70.3762 81.7942C69.8761 80.5125 68.1261 75.2578 70.8762 68.2087C70.8762 68.2087 75.0614 66.8656 84.6269 73.4686C88.6974 72.3103 92.9031 71.7273 97.1275 71.7358C101.378 71.7358 105.628 72.31 109.628 73.4635C119.194 66.7989 123.379 68.2138 123.379 68.2138C126.129 75.2629 124.379 80.5177 123.879 81.7993C127.064 85.3879 129.004 89.9352 129.004 95.5745C129.004 115.25 117.319 119.608 106.188 120.89C108.003 122.489 109.568 125.565 109.568 130.374C109.568 137.228 109.503 142.739 109.503 144.472C109.503 145.815 110.443 147.415 112.943 146.902C122.868 143.465 131.492 136.924 137.601 128.2C143.71 119.475 146.998 109.006 147 98.2659C147 69.9415 124.624 47 96.9975 47H97.0025Z" fill="black"/>
<defs>
<filter id="filter0_df_110_419" x="0" y="0" width="220" height="220" filterUnits="userSpaceOnUse" color-interpolation-filters="sRGB">
<feFlood flood-opacity="0" result="BackgroundImageFix"/>
<feColorMatrix in="SourceAlpha" type="matrix" values="0 0 0 0 0 0 0 0 0 0 0 0 0 0 0 0 0 0 127 0" result="hardAlpha"/>
<feOffset dx="13" dy="13"/>
<feGaussianBlur stdDeviation="17.5"/>
<feComposite in2="hardAlpha" operator="out"/>
<feColorMatrix type="matrix" values="0 0 0 0 0 0 0 0 0 0 0 0 0 0 0 0 0 0 0.25 0"/>
<feBlend mode="normal" in2="BackgroundImageFix" result="effect1_dropShadow_110_419"/>
<feBlend mode="normal" in="SourceGraphic" in2="effect1_dropShadow_110_419" result="shape"/>
<feGaussianBlur stdDeviation="2" result="effect2_foregroundBlur_110_419"/>
</filter>
</defs>
</svg>
