<svg width="220" height="220" viewBox="0 0 220 220" fill="none" xmlns="http://www.w3.org/2000/svg">
<g filter="url(#filter0_df_110_355)">
<circle cx="97" cy="97" r="75" fill="#DDC4CB" fill-opacity="0.38" shape-rendering="crispEdges"/>
</g>
<g clip-path="url(#clip0_110_355)">
<path d="M123.562 47H70.4375C57.4933 47 47 57.4933 47 70.4375V123.562C47 136.507 57.4933 147 70.4375 147H123.562C136.507 147 147 136.507 147 123.562V70.4375C147 57.4933 136.507 47 123.562 47Z" fill="#E14E1D"/>
<path d="M65.75 61.8438L69.1133 99.5754H112.359L110.908 115.759L96.984 119.524L83.0859 115.764L82.1566 105.373H69.6328L71.4238 125.405L96.9813 132.503L122.571 125.405L126.002 87.0996H80.525L79.3832 74.3223H127.132L128.25 61.8438H65.75Z" fill="white"/>
<path d="M97 61.8438H65.75L69.1133 99.5754H97V87.0996H80.525L79.3832 74.3223H97V61.8438ZM97 119.518L96.984 119.524L83.0859 115.764L82.1566 105.373H69.6328L71.4238 125.405L96.9812 132.503L97.0004 132.498V119.518H97Z" fill="#EBEBEB"/>
</g>
<defs>
<filter id="filter0_df_110_355" x="0" y="0" width="220" height="220" filterUnits="userSpaceOnUse" color-interpolation-filters="sRGB">
<feFlood flood-opacity="0" result="BackgroundImageFix"/>
<feColorMatrix in="SourceAlpha" type="matrix" values="0 0 0 0 0 0 0 0 0 0 0 0 0 0 0 0 0 0 127 0" result="hardAlpha"/>
<feOffset dx="13" dy="13"/>
<feGaussianBlur stdDeviation="17.5"/>
<feComposite in2="hardAlpha" operator="out"/>
<feColorMatrix type="matrix" values="0 0 0 0 0 0 0 0 0 0 0 0 0 0 0 0 0 0 0.25 0"/>
<feBlend mode="normal" in2="BackgroundImageFix" result="effect1_dropShadow_110_355"/>
<feBlend mode="normal" in="SourceGraphic" in2="effect1_dropShadow_110_355" result="shape"/>
<feGaussianBlur stdDeviation="2" result="effect2_foregroundBlur_110_355"/>
</filter>
<clipPath id="clip0_110_355">
<rect x="47" y="47" width="100" height="100" rx="50" fill="white"/>
</clipPath>
</defs>
</svg>
