<svg width="220" height="220" viewBox="0 0 220 220" fill="none" xmlns="http://www.w3.org/2000/svg">
<g filter="url(#filter0_df_110_368)">
<circle cx="97" cy="97" r="75" fill="#DDC4CB" fill-opacity="0.38" shape-rendering="crispEdges"/>
</g>
<path d="M48.1 97.0005C48.1 69.9938 69.9932 48.1001 97 48.1001V48.1001C124.007 48.1001 145.9 69.9938 145.9 97.0005V97.0005C145.9 124.007 124.007 145.901 97 145.901V145.901C69.9932 145.901 48.1 124.007 48.1 97.0005V97.0005Z" fill="#F0DB4F"/>
<path d="M130.623 109.92C129.906 105.458 126.997 101.711 118.379 98.2161C115.385 96.8403 112.048 95.8552 111.053 93.5864C110.7 92.2661 110.653 91.5224 110.877 90.7232C111.518 88.1294 114.614 87.3208 117.068 88.0646C118.648 88.5942 120.145 89.8122 121.047 91.7552C125.267 89.0224 125.259 89.0403 128.205 87.1622C127.127 85.4896 126.551 84.7177 125.845 84.0021C123.306 81.1669 119.848 79.7067 114.316 79.8185L111.435 80.1911C108.674 80.8888 106.043 82.338 104.5 84.281C99.8703 89.5341 101.191 98.7278 106.824 102.511C112.374 106.677 120.527 107.625 121.569 111.52C122.582 116.289 118.064 117.833 113.573 117.284C110.264 116.596 108.423 114.914 106.434 111.855C102.771 113.975 102.771 113.975 99.0055 116.14C99.8984 118.093 100.837 118.976 102.334 120.668C109.418 127.854 127.146 127.501 130.326 116.624C130.455 116.251 131.311 113.76 130.623 109.92ZM93.9938 80.3942H84.8461L84.8086 104.044C84.8086 109.074 85.0688 113.685 84.2508 115.098C82.9125 117.878 79.4445 117.533 77.8641 116.994C76.2555 116.204 75.4375 115.079 74.4898 113.49C74.2297 113.034 74.0344 112.681 73.9688 112.654L66.5312 117.208C67.768 119.747 69.5898 121.95 71.9234 123.381C75.4094 125.473 80.0945 126.115 84.9945 124.99C88.1836 124.061 90.9352 122.136 92.3758 119.208C94.4586 115.368 94.0117 110.72 93.993 105.579C94.0398 97.1927 93.9938 88.8075 93.9938 80.3942Z" fill="#323330"/>
<defs>
<filter id="filter0_df_110_368" x="0" y="0" width="220" height="220" filterUnits="userSpaceOnUse" color-interpolation-filters="sRGB">
<feFlood flood-opacity="0" result="BackgroundImageFix"/>
<feColorMatrix in="SourceAlpha" type="matrix" values="0 0 0 0 0 0 0 0 0 0 0 0 0 0 0 0 0 0 127 0" result="hardAlpha"/>
<feOffset dx="13" dy="13"/>
<feGaussianBlur stdDeviation="17.5"/>
<feComposite in2="hardAlpha" operator="out"/>
<feColorMatrix type="matrix" values="0 0 0 0 0 0 0 0 0 0 0 0 0 0 0 0 0 0 0.25 0"/>
<feBlend mode="normal" in2="BackgroundImageFix" result="effect1_dropShadow_110_368"/>
<feBlend mode="normal" in="SourceGraphic" in2="effect1_dropShadow_110_368" result="shape"/>
<feGaussianBlur stdDeviation="2" result="effect2_foregroundBlur_110_368"/>
</filter>
</defs>
</svg>
