<svg width="302" height="266" viewBox="0 0 302 266" fill="none" xmlns="http://www.w3.org/2000/svg">
<g filter="url(#filter0_df_110_368)">
<ellipse cx="138" cy="120" rx="116" ry="98" fill="#DDC4CB" fill-opacity="0.38" shape-rendering="crispEdges"/>
</g>
<path d="M70.573 53.0181H210.427V187.983H70.573V53.0181Z" fill="#F0DB4F"/>
<path d="M188.58 138.33C187.556 132.172 183.396 127.001 171.072 122.178C166.791 120.28 162.018 118.92 160.596 115.789C160.091 113.967 160.024 112.941 160.343 111.838C161.261 108.259 165.688 107.143 169.197 108.169C171.457 108.9 173.597 110.581 174.887 113.262C180.922 109.491 180.91 109.516 185.124 106.924C183.581 104.616 182.758 103.55 181.748 102.563C178.118 98.6503 173.172 96.6353 165.262 96.7895L161.142 97.3037C157.194 98.2665 153.431 100.266 151.225 102.948C144.605 110.197 146.493 122.884 154.549 128.106C162.485 133.854 174.144 135.162 175.633 140.538C177.082 147.119 170.622 149.249 164.2 148.492C159.468 147.542 156.836 145.221 153.99 141C148.753 143.925 148.753 143.925 143.368 146.914C144.645 149.608 145.987 150.827 148.127 153.161C158.258 163.078 183.609 162.591 188.156 147.581C188.34 147.066 189.565 143.629 188.58 138.33ZM136.201 97.5841H123.12L123.066 130.221C123.066 137.162 123.438 143.525 122.269 145.475C120.355 149.311 115.396 148.836 113.136 148.092C110.835 147.001 109.666 145.45 108.31 143.257C107.938 142.627 107.659 142.14 107.565 142.102L96.9297 148.387C98.6982 151.89 101.303 154.931 104.641 156.906C109.625 159.793 116.325 160.678 123.332 159.126C127.893 157.844 131.827 155.188 133.887 151.146C136.866 145.847 136.227 139.434 136.2 132.34C136.267 120.766 136.201 109.194 136.201 97.5841Z" fill="#323330"/>
<defs>
<filter id="filter0_df_110_368" x="0" y="0" width="302" height="266" filterUnits="userSpaceOnUse" color-interpolation-filters="sRGB">
<feFlood flood-opacity="0" result="BackgroundImageFix"/>
<feColorMatrix in="SourceAlpha" type="matrix" values="0 0 0 0 0 0 0 0 0 0 0 0 0 0 0 0 0 0 127 0" result="hardAlpha"/>
<feOffset dx="13" dy="13"/>
<feGaussianBlur stdDeviation="17.5"/>
<feComposite in2="hardAlpha" operator="out"/>
<feColorMatrix type="matrix" values="0 0 0 0 0 0 0 0 0 0 0 0 0 0 0 0 0 0 0.25 0"/>
<feBlend mode="normal" in2="BackgroundImageFix" result="effect1_dropShadow_110_368"/>
<feBlend mode="normal" in="SourceGraphic" in2="effect1_dropShadow_110_368" result="shape"/>
<feGaussianBlur stdDeviation="2" result="effect2_foregroundBlur_110_368"/>
</filter>
</defs>
</svg>
