<svg width="189" height="62" viewBox="0 0 189 62" fill="none" xmlns="http://www.w3.org/2000/svg">
<ellipse cx="27.5" cy="31.5" rx="23.5" ry="22.5" fill="white"/>
<path d="M18.36 47.62C17.3733 47.62 16.5067 47.54 15.76 47.38C15.0133 47.22 14.36 46.8333 13.8 46.22C13.2667 45.6066 13 44.66 13 43.38C13 41.5933 13.5333 39.1933 14.6 36.18C15.6933 33.1666 17.12 30.14 18.88 27.1C17.5467 27.18 16.4933 27.38 15.72 27.7C14.9467 28.02 14.44 28.5133 14.2 29.18C14.3067 29.18 14.4133 29.3133 14.52 29.58C14.6533 29.8466 14.72 30.1266 14.72 30.42C14.72 30.9 14.5067 31.2866 14.08 31.58C13.6533 31.8466 13.12 31.98 12.48 31.98C11.7333 31.98 11.1333 31.78 10.68 31.38C10.2267 30.98 10 30.4066 10 29.66C10 28.7533 10.3467 27.9266 11.04 27.18C11.76 26.4333 12.7467 25.8466 14 25.42C15.2533 24.9666 16.64 24.74 18.16 24.74C18.72 24.74 19.4133 24.78 20.24 24.86C22.4267 21.3933 24.7333 18.5666 27.16 16.38C29.6133 14.1666 31.9467 13.06 34.16 13.06C35.44 13.06 36.4933 13.2466 37.32 13.62L33.1001 51.5L25.28 43.06L28.36 28.54C27.3733 28.0866 26.4667 27.7533 25.64 27.54C24.8133 27.3266 23.9333 27.18 23 27.1C21.48 30.38 20.2267 33.74 19.24 37.18C18.28 40.5933 17.8 43.3266 17.8 45.38C17.8 46.3933 17.9867 47.14 18.36 47.62ZM31.04 15.9C29.8933 16.5133 28.6933 17.66 27.44 19.34C26.2133 20.9933 25.0133 23.0066 23.84 25.38C25.76 25.7533 27.3867 26.22 28.72 26.78L31.04 15.9Z" fill="#D529A6"/>
<path d="M60.4858 47.7399C59.2058 47.7399 58.1658 47.3399 57.3658 46.5399C56.5924 45.7132 56.2058 44.4866 56.2058 42.8599C56.2058 42.1932 56.3124 41.3266 56.5258 40.2599L60.8058 20.2199L70.4874 11L62.1258 41.0199C62.0191 41.4199 61.9658 41.8066 61.9658 42.1799C61.9658 43.2466 62.5124 43.7799 63.6058 43.7799C64.0858 43.7799 64.5124 43.6999 64.8858 43.5399C64.7791 44.8732 64.2991 45.9132 63.4458 46.6599C62.6191 47.3799 61.6324 47.7399 60.4858 47.7399Z" fill="#D529A6"/>
<path d="M85.1997 46.6599C83.6797 46.6599 82.413 46.1399 81.3997 45.0999C80.3863 44.0599 79.8797 42.4332 79.8797 40.2199C79.8797 38.2466 80.2663 36.1799 81.0397 34.0199C81.8397 31.8332 83.013 29.9932 84.5597 28.4999C86.133 26.9799 87.9997 26.2199 90.1597 26.2199C91.253 26.2199 92.0663 26.4066 92.5996 26.7799C93.133 27.1532 93.3996 27.6466 93.3996 28.2599V28.5399L93.8396 26.4199H99.5996L96.7196 40.0199C96.613 40.4199 96.5596 40.8466 96.5596 41.2999C96.5596 42.4466 97.1063 43.0199 98.1996 43.0199C98.9463 43.0199 99.5863 42.6732 100.12 41.9799C100.68 41.2866 101.12 40.3799 101.44 39.2599H103.12C102.133 42.1399 100.906 44.0999 99.4396 45.1399C97.9996 46.1532 96.5463 46.6599 95.0796 46.6599C93.9596 46.6599 93.053 46.3532 92.3596 45.7399C91.693 45.0999 91.293 44.1799 91.1596 42.9799C90.3863 44.0732 89.5197 44.9666 88.5597 45.6599C87.6263 46.3266 86.5063 46.6599 85.1997 46.6599ZM87.7997 42.7799C88.4663 42.7799 89.1197 42.4732 89.7597 41.8599C90.4263 41.2199 90.8796 40.3532 91.1196 39.2599L93.0396 30.2199C93.0396 29.8732 92.9063 29.5399 92.6396 29.2199C92.373 28.8732 91.9596 28.6999 91.3996 28.6999C90.333 28.6999 89.373 29.3266 88.5197 30.5799C87.6663 31.8066 86.9997 33.2999 86.5197 35.0599C86.0397 36.7932 85.7997 38.3266 85.7997 39.6599C85.7997 40.9932 85.9863 41.8466 86.3597 42.2199C86.7597 42.5932 87.2397 42.7799 87.7997 42.7799Z" fill="#D529A6"/>
<path d="M122.348 47.2199C120.828 47.2199 119.561 46.6999 118.548 45.6599C117.535 44.6199 117.028 42.9932 117.028 40.7799C117.028 38.8066 117.415 36.7399 118.188 34.5799C118.988 32.3932 120.161 30.5532 121.708 29.0599C123.281 27.5399 125.148 26.7799 127.308 26.7799C128.401 26.7799 129.215 26.9666 129.748 27.3399C130.281 27.7132 130.548 28.2066 130.548 28.8199V29.0999L130.988 26.9799H136.748L133.868 40.5799C133.761 40.9799 133.708 41.4066 133.708 41.8599C133.708 42.3932 133.828 42.7799 134.068 43.0199C134.335 43.2332 134.761 43.3399 135.348 43.3399C135.721 43.3399 136.015 43.2866 136.228 43.1799C135.641 44.6732 135.081 45.7266 134.548 46.3399C134.015 46.9266 133.241 47.2199 132.228 47.2199C131.135 47.2199 130.241 46.8999 129.548 46.2599C128.881 45.5932 128.468 44.6732 128.308 43.4999C126.681 45.9799 124.695 47.2199 122.348 47.2199ZM124.948 43.3399C125.615 43.3399 126.268 43.0332 126.908 42.4199C127.575 41.7799 128.028 40.9132 128.268 39.8199L130.188 30.7799C130.188 30.4332 130.055 30.0999 129.788 29.7799C129.521 29.4332 129.108 29.2599 128.548 29.2599C127.481 29.2599 126.521 29.8866 125.668 31.1399C124.815 32.3666 124.148 33.8599 123.668 35.6199C123.188 37.3532 122.948 38.8866 122.948 40.2199C122.948 41.5532 123.135 42.4066 123.508 42.7799C123.908 43.1532 124.388 43.3399 124.948 43.3399Z" fill="#D529A6"/>
<circle cx="145.5" cy="43.5" r="2.5" fill="#D529A6"/>
</svg>
