<svg width="219" height="52" viewBox="0 0 219 52" fill="none" xmlns="http://www.w3.org/2000/svg">
<g clip-path="url(#clip0_26_823)" filter="url(#filter0_d_26_823)">
<path d="M62.2507 27.4966C58.8377 27.4966 55.6398 26.5065 52.7342 24.8947L53.4417 22.6193L53.4725 22.535C54.1025 20.1124 56.1012 16.046 62.2507 16.046C66.8625 16.046 70.6137 18.6164 70.6137 21.7765C70.5982 24.9262 66.8473 27.4966 62.2507 27.4966ZM62.2507 10.2418C54.3945 10.2418 48.307 13.7391 45.8321 19.4907C42.0501 15.6036 39.1904 10.9371 37.515 7.00781H29.0596V22.082C29.0596 25.0526 25.5236 27.4752 21.1883 27.4752C16.8529 27.4752 13.3174 25.0526 13.3174 22.082V7.00781H4.86118V22.082C4.83042 28.2551 12.1636 33.3218 21.1723 33.3218C30.1814 33.3218 37.5145 28.2551 37.5145 22.082V19.554C39.1593 21.903 41.1731 24.273 43.6177 26.38L38.4366 43.0657H47.0921L50.843 30.9622C54.1328 32.4053 57.9149 33.3114 62.2503 33.3114C71.5202 33.3114 79.0687 28.1076 79.0687 21.7554C79.0687 15.4139 71.5206 10.2418 62.2507 10.2418Z" fill="white" fill-opacity="0.55"/>
<path d="M104.528 15.9115L109.985 30.9857L115.997 15.9115H123.161L113.921 37.6959H106.757L101.085 22.5268L95.427 37.6853H88.2632L79.0232 15.9011H86.1874L92.1982 30.9753L97.6558 15.9011H104.528V15.9118L104.528 15.9115ZM140.302 15.2584C131.001 15.2584 123.468 20.4305 123.468 26.793C123.468 33.1663 131.016 38.328 140.302 38.328C149.603 38.328 157.151 33.1663 157.151 26.793C157.151 20.4201 149.603 15.2584 140.302 15.2584ZM140.302 33.5876C134.829 33.5876 130.401 30.5537 130.401 26.8037C130.401 23.0535 134.844 20.0198 140.302 20.0198C145.775 20.0198 150.202 23.0535 150.202 26.8037C150.202 30.5433 145.775 33.5876 140.302 33.5876ZM177.613 20.7888C172.801 20.7888 168.912 23.4643 168.912 26.7509V37.6853H161.701V15.9115H168.912V19.2613C168.912 19.2613 171.986 15.9008 178.305 15.9008H180.518V20.7888H177.613ZM201.811 25.9505C206.93 23.9699 210.404 20.2093 210.404 15.9008H203.194C203.194 19.535 198.89 22.4846 193.586 22.4846H192.617V5.39844H185.407V37.685H192.617V27.4251H193.479C194.186 27.4251 195.108 27.7413 195.523 28.1308L205.761 37.6853H214.401L201.811 25.9505Z" fill="white" fill-opacity="0.55"/>
</g>
<defs>
<filter id="filter0_d_26_823" x="0.784912" y="0.3396" width="218" height="51" filterUnits="userSpaceOnUse" color-interpolation-filters="sRGB">
<feFlood flood-opacity="0" result="BackgroundImageFix"/>
<feColorMatrix in="SourceAlpha" type="matrix" values="0 0 0 0 0 0 0 0 0 0 0 0 0 0 0 0 0 0 127 0" result="hardAlpha"/>
<feOffset dy="4"/>
<feGaussianBlur stdDeviation="2"/>
<feComposite in2="hardAlpha" operator="out"/>
<feColorMatrix type="matrix" values="0 0 0 0 0 0 0 0 0 0 0 0 0 0 0 0 0 0 0.25 0"/>
<feBlend mode="normal" in2="BackgroundImageFix" result="effect1_dropShadow_26_823"/>
<feBlend mode="normal" in="SourceGraphic" in2="effect1_dropShadow_26_823" result="shape"/>
</filter>
<clipPath id="clip0_26_823">
<rect width="210" height="43" fill="white" transform="translate(4.78491 0.3396)"/>
</clipPath>
</defs>
</svg>
