<svg width="185" height="62" viewBox="0 0 185 62" fill="none" xmlns="http://www.w3.org/2000/svg">
<path d="M78 26.6676C78 41.8238 53.3379 62 36.5104 62C19.683 62 0 41.8238 0 26.6676C0 11.5115 10.5553 0 27.3828 0C44.2102 0 78 11.5115 78 26.6676Z" fill="white" fill-opacity="0.97"/>
<path d="M36.4297 43H31.3516V36.125H13.5V43H8.42188V28.9961C8.42188 26.9518 8.77344 25.0703 9.47656 23.3516C10.1797 21.6328 11.1562 20.1549 12.4062 18.918C13.6562 17.681 15.1341 16.7174 16.8398 16.0273C18.5456 15.3372 20.4076 14.9922 22.4258 14.9922H33.8711C34.2227 14.9922 34.5547 15.0573 34.8672 15.1875C35.1797 15.3177 35.4531 15.5 35.6875 15.7344C35.9219 15.9688 36.1042 16.2422 36.2344 16.5547C36.3646 16.8672 36.4297 17.1992 36.4297 17.5508V43ZM13.5 31.0469H31.3516V20.0703H22.4258C22.2695 20.0703 21.9375 20.0964 21.4297 20.1484C20.9349 20.1875 20.3555 20.2982 19.6914 20.4805C19.0404 20.6628 18.3503 20.9427 17.6211 21.3203C16.8919 21.6979 16.2214 22.2188 15.6094 22.8828C14.9974 23.5469 14.4896 24.3802 14.0859 25.3828C13.6953 26.3724 13.5 27.5768 13.5 28.9961V31.0469ZM69.4586 43H67.193C66.4638 43 65.6826 42.8763 64.8492 42.6289C64.0289 42.3815 63.2607 41.9779 62.5445 41.418C61.8284 40.8451 61.2359 40.1094 60.7672 39.2109C60.2984 38.2995 60.0641 37.1862 60.0641 35.8711V12.9609H65.1422V35.8711C65.1422 36.4961 65.3375 36.9974 65.7281 37.375C66.1188 37.7396 66.607 37.9219 67.193 37.9219H69.4586V43Z" fill="#D529A6"/>
<path d="M112.917 36.0078C112.917 36.7109 112.793 37.4727 112.546 38.293C112.299 39.1003 111.895 39.8555 111.335 40.5586C110.788 41.2487 110.066 41.8281 109.167 42.2969C108.282 42.7656 107.201 43 105.925 43H96.7648C96.0617 43 95.3 42.8763 94.4797 42.6289C93.6724 42.3815 92.9172 41.9844 92.2141 41.4375C91.524 40.8776 90.9445 40.1549 90.4758 39.2695C90.007 38.3711 89.7727 37.2839 89.7727 36.0078C89.7727 35.3047 89.8964 34.543 90.1438 33.7227C90.3911 32.9023 90.7883 32.1471 91.3352 31.457C91.8951 30.7539 92.6177 30.168 93.5031 29.6992C94.4016 29.2305 95.4888 28.9961 96.7648 28.9961H105.925V33.8398H96.7648C96.0747 33.8398 95.5409 34.0547 95.1633 34.4844C94.7857 34.901 94.5969 35.4219 94.5969 36.0469C94.5969 36.7109 94.8117 37.2318 95.2414 37.6094C95.6841 37.974 96.205 38.1562 96.8039 38.1562H105.925C106.615 38.1562 107.149 37.9479 107.527 37.5312C107.904 37.1146 108.093 36.5938 108.093 35.9688V28.8789C108.093 28.2148 107.885 27.6875 107.468 27.2969C107.064 26.9062 106.55 26.7109 105.925 26.7109H94.7727V21.8867H105.925C106.628 21.8867 107.383 22.0104 108.191 22.2578C109.011 22.5052 109.766 22.9089 110.456 23.4688C111.159 24.0156 111.745 24.7383 112.214 25.6367C112.683 26.5221 112.917 27.6029 112.917 28.8789V36.0078ZM157.45 36.0078C157.45 36.7109 157.326 37.4727 157.079 38.293C156.832 39.1003 156.428 39.8555 155.868 40.5586C155.321 41.2487 154.598 41.8281 153.7 42.2969C152.815 42.7656 151.734 43 150.458 43H141.298C140.595 43 139.833 42.8763 139.012 42.6289C138.205 42.3815 137.45 41.9844 136.747 41.4375C136.057 40.8776 135.477 40.1549 135.009 39.2695C134.54 38.3711 134.305 37.2839 134.305 36.0078C134.305 35.3047 134.429 34.543 134.677 33.7227C134.924 32.9023 135.321 32.1471 135.868 31.457C136.428 30.7539 137.151 30.168 138.036 29.6992C138.934 29.2305 140.022 28.9961 141.298 28.9961H150.458V33.8398H141.298C140.608 33.8398 140.074 34.0547 139.696 34.4844C139.318 34.901 139.13 35.4219 139.13 36.0469C139.13 36.7109 139.345 37.2318 139.774 37.6094C140.217 37.974 140.738 38.1562 141.337 38.1562H150.458C151.148 38.1562 151.682 37.9479 152.059 37.5312C152.437 37.1146 152.626 36.5938 152.626 35.9688V28.8789C152.626 28.2148 152.417 27.6875 152.001 27.2969C151.597 26.9062 151.083 26.7109 150.458 26.7109H139.305V21.8867H150.458C151.161 21.8867 151.916 22.0104 152.723 22.2578C153.544 22.5052 154.299 22.9089 154.989 23.4688C155.692 24.0156 156.278 24.7383 156.747 25.6367C157.216 26.5221 157.45 27.6029 157.45 28.8789V36.0078Z" fill="white"/>
</svg>
