<svg width="129" height="91" viewBox="0 0 129 91" fill="none" xmlns="http://www.w3.org/2000/svg">
<mask id="mask0_110_325" style="mask-type:luminance" maskUnits="userSpaceOnUse" x="0" y="0" width="130" height="91">
<path d="M127 45.5C127.011 51.2296 125.39 56.9039 122.231 62.195C119.072 67.486 114.438 72.289 108.597 76.3262C102.803 80.3515 95.9268 83.5426 88.3604 85.7172C80.7941 87.8918 72.6861 89.0073 64.5 89C29.9813 89 2.00006 69.525 2.00006 45.5C1.9782 34.3461 8.13402 23.6155 19.1875 15.5394C25.0199 11.256 32.0467 7.84587 39.8379 5.51784C47.6292 3.18981 56.0211 1.99279 64.5 2.00004C72.6861 1.99266 80.7941 3.10816 88.3604 5.28279C95.9268 7.45741 102.803 10.6485 108.597 14.6737C114.438 18.711 119.072 23.514 122.231 28.805C125.39 34.0961 127.011 39.7704 127 45.5Z" fill="white" stroke="white" stroke-width="4" stroke-linecap="round" stroke-linejoin="round"/>
<path d="M127 45.5C117.882 45.5 92.7253 43.1075 70.2097 49.987C45.7504 57.4625 28.041 69.0574 20.3223 76.2697" stroke="black" stroke-width="4" stroke-linecap="round" stroke-linejoin="round"/>
<path d="M41.0623 5.16272C50.8435 11.4463 72.1872 27.4434 80.1247 43.3252C88.0622 59.2071 90.9997 78.7342 92.8122 84.2913" stroke="black" stroke-width="4" stroke-linecap="round" stroke-linejoin="round"/>
<path d="M2.48145 40.0624C14.2877 40.5583 45.5408 41.0041 65.5408 35.0599C85.5408 29.1156 102.75 18.1819 108.653 14.7128" stroke="black" stroke-width="4" stroke-linecap="round" stroke-linejoin="round"/>
<path d="M6.68755 62.0583C12.1948 71.3366 22.1272 79.0107 34.8125 83.7887M2.00006 45.5C1.9782 34.3461 8.13402 23.6155 19.1875 15.5394C25.0199 11.256 32.0467 7.84587 39.8379 5.51784C47.6292 3.1898 56.0211 1.99278 64.5 2.00003M89.5 5.61923C96.6176 7.7867 103.093 10.8571 108.597 14.6737C114.438 18.711 119.072 23.514 122.231 28.805C125.39 34.0961 127.011 39.7704 127 45.5C127 50.8548 125.609 55.9857 123.062 60.725M64.5 89C72.6861 89.0073 80.7941 87.8918 88.3604 85.7172C95.9268 83.5426 102.803 80.3515 108.597 76.3262" stroke="white" stroke-width="4" stroke-linecap="round" stroke-linejoin="round"/>
</mask>
<g mask="url(#mask0_110_325)">
<path d="M-19 -7H131V97.3999H-19V-7Z" fill="#FCE9F1"/>
</g>
</svg>
