<svg width="160" height="70" viewBox="0 0 160 70" fill="none" xmlns="http://www.w3.org/2000/svg">
<g clip-path="url(#clip0_110_334)">
<path d="M134.317 47.8003C134.986 47.6038 135.541 47.3211 135.928 46.9803C136.316 46.6389 136.52 46.2514 136.522 45.8567L136.601 32.8386C136.603 32.4439 136.808 32.0564 137.195 31.715C137.584 31.3738 138.142 31.091 138.813 30.895L152.609 26.8358C153.278 26.6401 154.036 26.5377 154.807 26.5388C155.579 26.5398 156.337 26.6445 157.005 26.8425C157.673 27.0391 158.228 27.3218 158.616 27.6625C159.001 28.0042 159.204 28.3917 159.203 28.7861V52.4534C159.203 52.8492 158.998 53.2379 158.61 53.5803C158.221 53.9227 157.663 54.2068 156.992 54.4037L104.89 69.7028C104.225 69.8975 103.471 70 102.705 70C101.938 70 101.185 69.8975 100.52 69.7028L59.6332 57.751C58.9594 57.5545 58.3993 57.2705 58.0093 56.9277C57.6197 56.5843 57.4148 56.1943 57.4152 55.7973V43.8625C57.4152 43.849 57.4416 43.8422 57.468 43.849C57.4944 43.8557 57.5208 43.849 57.5208 43.8321V43.8186C57.5208 43.8085 57.534 43.8017 57.5472 43.795L91.2257 33.9083C91.2521 33.8982 91.2389 33.8745 91.2059 33.8745C91.2008 33.8745 91.1957 33.8739 91.1911 33.8728C91.1866 33.8716 91.1826 33.8699 91.1795 33.8678C91.1766 33.8659 91.1745 33.8637 91.1734 33.8614C91.1722 33.8591 91.1721 33.8567 91.1729 33.8543L91.2389 22.1556C91.242 21.7594 91.0404 21.3697 90.6544 21.0261C90.2684 20.6824 89.7118 20.397 89.0408 20.1985C88.3714 20.001 87.6122 19.897 86.8393 19.897C86.0665 19.897 85.3072 20.001 84.6379 20.1985L59.6134 27.5747C58.9456 27.771 58.1888 27.8743 57.4185 27.8743C56.6482 27.8743 55.8914 27.771 55.2237 27.5747L30.1133 20.185C29.4446 19.9888 28.6867 19.8859 27.9157 19.8864C27.1446 19.887 26.3874 19.991 25.7197 20.1881C25.052 20.3853 24.4973 20.6686 24.111 21.0097C23.7248 21.3509 23.5206 21.7379 23.5189 22.132V43.2787C23.5192 43.6729 23.3169 44.0602 22.9322 44.4019C22.5476 44.7436 21.9942 45.0277 21.3273 45.2257C20.6615 45.4232 19.9057 45.528 19.1358 45.5294C18.3649 45.5305 17.6069 45.4281 16.9377 45.2324L3.00287 41.1596C2.32915 40.9631 1.76897 40.6791 1.37901 40.3363C0.988297 39.9919 0.783295 39.6007 0.784922 39.2026L0.910341 2.24392C0.912735 1.85026 1.11707 1.46382 1.50295 1.12315C1.88884 0.782477 2.44277 0.499503 3.10946 0.30247C3.77615 0.105436 4.53228 0.00123436 5.30238 0.000265701C6.07247 -0.000702955 6.82959 0.101595 7.49817 0.29695L55.2237 14.3104C55.8914 14.5067 56.6482 14.61 57.4185 14.61C58.1888 14.61 58.9456 14.5067 59.6134 14.3104L107.326 0.29695C107.995 0.101156 108.753 -0.00124808 109.524 1.14804e-05C110.296 0.000804161 111.054 0.105546 111.722 0.303698C112.391 0.50117 112.946 0.785115 113.333 1.12703C113.715 1.46912 113.916 1.85658 113.913 2.25067V39.2194C113.913 39.6142 113.715 40.0023 113.326 40.3464C112.938 40.6888 112.38 40.9728 111.709 41.1698L86.7238 48.5257C86.0517 48.7237 85.4938 49.0089 85.1066 49.3524C84.7201 49.6951 84.5174 50.0839 84.5191 50.4794C84.5198 50.8753 84.7247 51.264 85.1132 51.6065C85.5047 51.9498 86.0673 52.2339 86.7436 52.4298L100.527 56.4418C101.191 56.6342 101.941 56.7353 102.705 56.7354C103.474 56.7349 104.23 56.6313 104.896 56.4351L134.317 47.7969V47.8003ZM137.209 14.6377C137.208 15.0347 137.413 15.4247 137.803 15.7681C138.196 16.1118 138.761 16.396 139.44 16.5914C140.116 16.7868 140.881 16.8871 141.658 16.8824C142.435 16.8777 143.195 16.768 143.862 16.5644L157.071 12.5153C157.722 12.3156 158.261 12.0331 158.635 11.6953C159.011 11.3569 159.209 10.9744 159.21 10.5852V2.3384C159.208 1.9411 159.001 1.5511 158.609 1.20801C158.216 0.864891 157.652 0.5811 156.975 0.385508C156.298 0.189917 155.532 0.0895054 154.754 0.0944917C153.977 0.0989445 153.217 0.208375 152.549 0.411675L139.347 4.46083C138.694 4.66003 138.152 4.94256 137.776 5.28078C137.403 5.6196 137.207 6.00204 137.209 6.39092V14.6377Z" fill="#808080" fill-opacity="0.52"/>
</g>
<defs>
<clipPath id="clip0_110_334">
<rect width="160" height="70" fill="white"/>
</clipPath>
</defs>
</svg>
