<svg width="220" height="220" viewBox="0 0 220 220" fill="none" xmlns="http://www.w3.org/2000/svg">
<g filter="url(#filter0_df_110_393)">
<circle cx="97" cy="97" r="75" fill="#DDC4CB" fill-opacity="0.38" shape-rendering="crispEdges"/>
</g>
<g clip-path="url(#clip0_110_393)">
<path d="M131.286 123.281C131.708 123.001 132.059 122.596 132.304 122.109C132.549 121.622 132.679 121.069 132.68 120.505L132.73 101.909C132.732 101.345 132.861 100.792 133.106 100.305C133.351 99.8174 133.702 99.413 134.125 99.1324L142.839 93.3421C143.261 93.0614 143.74 92.9142 144.227 92.9151C144.714 92.916 145.192 93.065 145.614 93.3472C146.035 93.6294 146.385 94.0349 146.628 94.5229C146.872 95.011 147 95.5645 147 96.1279V129.936C147 130.501 146.871 131.056 146.626 131.546C146.381 132.035 146.029 132.441 145.605 132.722L112.719 154.573C112.299 154.852 111.823 154.999 111.338 155C110.854 155.001 110.378 154.855 109.957 154.576L84.1484 137.5C83.7232 137.219 83.3698 136.813 83.1238 136.324C82.8779 135.834 82.7483 135.278 82.748 134.711V117.664C82.748 117.645 82.7676 117.632 82.7844 117.641C82.7981 117.651 82.8176 117.641 82.8176 117.619V117.6C82.8176 117.587 82.823 117.574 82.8344 117.568L104.091 103.442C104.11 103.429 104.102 103.393 104.079 103.393C104.073 103.393 104.068 103.391 104.064 103.386C104.059 103.381 104.057 103.375 104.057 103.368L104.099 86.6549C104.101 86.0897 103.974 85.5339 103.731 85.0436C103.488 84.5533 103.137 84.1458 102.715 83.8622C102.292 83.5786 101.812 83.429 101.324 83.4285C100.835 83.4279 100.355 83.5765 99.932 83.8591L84.1344 94.39C83.7128 94.6708 83.2348 94.8186 82.7482 94.8186C82.2617 94.8186 81.7837 94.6708 81.3621 94.39L65.5145 83.8343C65.0923 83.553 64.6135 83.4051 64.1263 83.4055C63.6391 83.4058 63.1606 83.5544 62.7387 83.8364C62.3168 84.1183 61.9664 84.5236 61.7228 85.0116C61.4791 85.4997 61.3507 86.0533 61.3504 86.6169V116.823C61.3508 117.386 61.2232 117.939 60.9806 118.427C60.738 118.915 60.3888 119.321 59.968 119.603C59.5472 119.886 59.0695 120.036 58.5828 120.038C58.0961 120.04 57.6175 119.894 57.1949 119.615L48.4 113.798C47.9741 113.516 47.6203 113.11 47.3744 112.619C47.1285 112.128 46.9993 111.57 47 111.003L47.0781 58.2064C47.0794 57.6438 47.2083 57.0914 47.4521 56.6044C47.6958 56.1175 48.0458 55.7132 48.467 55.4319C48.8883 55.1506 49.366 55.0021 49.8524 55.0014C50.3388 55.0007 50.8168 55.1478 51.2387 55.4279L81.3648 75.443C81.7858 75.7227 82.2628 75.8699 82.7482 75.8699C83.2337 75.8699 83.7107 75.7227 84.1316 75.443L114.249 55.427C114.671 55.1462 115.15 54.999 115.638 55C116.125 55.001 116.603 55.1504 117.025 55.4329C117.447 55.7155 117.796 56.1214 118.04 56.6099C118.283 57.0984 118.411 57.6523 118.41 58.2159V111.025C118.41 111.59 118.282 112.145 118.038 112.634C117.793 113.123 117.442 113.529 117.019 113.811L101.246 124.319C100.822 124.601 100.471 125.008 100.227 125.498C99.9823 125.988 99.8543 126.544 99.8554 127.11C99.8565 127.676 99.9867 128.231 100.233 128.72C100.479 129.209 100.832 129.614 101.257 129.894L109.957 135.624C110.378 135.9 110.854 136.045 111.337 136.044C111.821 136.043 112.296 135.896 112.716 135.617L131.286 123.281L131.286 123.281ZM133.111 75.9094C133.111 76.4777 133.242 77.0357 133.489 77.5266C133.737 78.0174 134.093 78.4235 134.52 78.7034C134.948 78.9834 135.432 79.1271 135.923 79.12C136.414 79.1129 136.895 78.9553 137.316 78.6631L145.65 72.8791C146.061 72.594 146.402 72.1905 146.638 71.7079C146.875 71.2254 147 70.6802 147 70.1254V58.3384C146.999 57.7703 146.868 57.2127 146.62 56.7223C146.373 56.2319 146.017 55.8262 145.589 55.5467C145.162 55.2671 144.678 55.1237 144.187 55.1309C143.696 55.1381 143.215 55.2958 142.794 55.5878L134.461 61.3718C134.049 61.6569 133.709 62.0604 133.472 62.5431C133.235 63.0257 133.111 63.5711 133.111 64.1259V75.9125V75.9094Z" fill="#007FFF"/>
</g>
<defs>
<filter id="filter0_df_110_393" x="0" y="0" width="220" height="220" filterUnits="userSpaceOnUse" color-interpolation-filters="sRGB">
<feFlood flood-opacity="0" result="BackgroundImageFix"/>
<feColorMatrix in="SourceAlpha" type="matrix" values="0 0 0 0 0 0 0 0 0 0 0 0 0 0 0 0 0 0 127 0" result="hardAlpha"/>
<feOffset dx="13" dy="13"/>
<feGaussianBlur stdDeviation="17.5"/>
<feComposite in2="hardAlpha" operator="out"/>
<feColorMatrix type="matrix" values="0 0 0 0 0 0 0 0 0 0 0 0 0 0 0 0 0 0 0.25 0"/>
<feBlend mode="normal" in2="BackgroundImageFix" result="effect1_dropShadow_110_393"/>
<feBlend mode="normal" in="SourceGraphic" in2="effect1_dropShadow_110_393" result="shape"/>
<feGaussianBlur stdDeviation="2" result="effect2_foregroundBlur_110_393"/>
</filter>
<clipPath id="clip0_110_393">
<rect width="100" height="100" fill="white" transform="translate(47 55)"/>
</clipPath>
</defs>
</svg>
