<svg width="321" height="278" viewBox="0 0 321 278" fill="none" xmlns="http://www.w3.org/2000/svg">
<g filter="url(#filter0_df_110_393)">
<ellipse cx="147.5" cy="126" rx="125" ry="104" fill="#DDC4CB" fill-opacity="0.38" shape-rendering="crispEdges"/>
</g>
<g clip-path="url(#clip0_110_393)">
<path d="M195.085 147.986C195.715 147.641 196.238 147.143 196.603 146.544C196.968 145.945 197.161 145.264 197.163 144.571L197.238 121.698C197.24 121.005 197.433 120.324 197.798 119.725C198.163 119.125 198.686 118.628 199.316 118.283L212.3 111.161C212.929 110.816 213.642 110.634 214.368 110.636C215.094 110.637 215.806 110.82 216.434 111.167C217.062 111.514 217.584 112.013 217.946 112.613C218.309 113.214 218.5 113.894 218.5 114.587V156.171C218.5 156.866 218.308 157.549 217.943 158.151C217.578 158.753 217.054 159.252 216.422 159.598L167.421 186.475C166.795 186.818 166.086 186.999 165.364 187C164.642 187.001 163.933 186.821 163.306 186.479L124.851 165.475C124.218 165.13 123.691 164.631 123.325 164.028C122.958 163.426 122.765 162.742 122.765 162.045V141.077C122.765 141.053 122.794 141.038 122.819 141.049C122.839 141.061 122.868 141.049 122.868 141.021V140.998C122.868 140.982 122.876 140.966 122.893 140.958L154.565 123.583C154.594 123.567 154.581 123.524 154.548 123.524C154.539 123.524 154.531 123.521 154.525 123.515C154.518 123.509 154.515 123.501 154.515 123.492L154.577 102.935C154.58 102.24 154.391 101.557 154.029 100.954C153.667 100.351 153.145 99.8493 152.515 99.5005C151.885 99.1517 151.17 98.9677 150.442 98.967C149.714 98.9664 148.999 99.1491 148.369 99.4967L124.83 112.45C124.202 112.795 123.49 112.977 122.765 112.977C122.04 112.977 121.328 112.795 120.7 112.45L97.0865 99.4662C96.4575 99.1202 95.7442 98.9383 95.0182 98.9387C94.2923 98.9392 93.5792 99.122 92.9506 99.4687C92.322 99.8155 91.8 100.314 91.4369 100.914C91.0738 101.515 90.8825 102.196 90.8821 102.889V140.042C90.8826 140.734 90.6926 141.415 90.3311 142.015C89.9696 142.615 89.4493 143.114 88.8223 143.462C88.1953 143.81 87.4835 143.995 86.7584 143.997C86.0332 144 85.3201 143.82 84.6904 143.477L71.586 136.321C70.9514 135.975 70.4242 135.475 70.0578 134.871C69.6914 134.267 69.4989 133.582 69.5 132.884L69.6164 67.9439C69.6183 67.2518 69.8104 66.5724 70.1736 65.9735C70.5368 65.3746 71.0583 64.8772 71.6859 64.5312C72.3135 64.1852 73.0253 64.0026 73.7501 64.0017C74.4748 64.0009 75.1871 64.1818 75.8156 64.5263L120.704 89.1449C121.331 89.4889 122.042 89.67 122.765 89.67C123.488 89.67 124.199 89.4889 124.826 89.1449L169.701 64.5252C170.33 64.1798 171.044 63.9987 171.77 64C172.496 64.0013 173.209 64.1849 173.837 64.5325C174.465 64.8801 174.987 65.3793 175.349 65.9802C175.711 66.581 175.902 67.2623 175.901 67.9556V132.91C175.902 133.605 175.71 134.288 175.346 134.89C174.982 135.491 174.458 135.991 173.828 136.337L150.327 149.262C149.695 149.609 149.171 150.11 148.808 150.713C148.444 151.316 148.253 151.999 148.255 152.695C148.256 153.391 148.45 154.074 148.817 154.675C149.184 155.277 149.71 155.775 150.343 156.119L163.307 163.167C163.933 163.508 164.642 163.686 165.363 163.684C166.083 163.683 166.791 163.502 167.416 163.159L195.086 147.985L195.085 147.986ZM197.805 89.7185C197.805 90.4175 198 91.1039 198.369 91.7077C198.738 92.3114 199.268 92.8109 199.905 93.1552C200.542 93.4995 201.263 93.6764 201.995 93.6676C202.727 93.6589 203.444 93.465 204.071 93.1056L216.489 85.9913C217.101 85.6406 217.609 85.1443 217.961 84.5508C218.314 83.9572 218.499 83.2866 218.5 82.6043V68.1062C218.499 67.4075 218.304 66.7216 217.934 66.1184C217.565 65.5152 217.035 65.0163 216.398 64.6724C215.761 64.3286 215.04 64.1521 214.309 64.161C213.577 64.1699 212.861 64.3638 212.233 64.7231L199.817 71.8373C199.204 72.188 198.696 72.6844 198.343 73.278C197.991 73.8717 197.805 74.5424 197.805 75.2249V89.7224V89.7185Z" fill="#007FFF"/>
</g>
<defs>
<filter id="filter0_df_110_393" x="0.5" y="0" width="320" height="278" filterUnits="userSpaceOnUse" color-interpolation-filters="sRGB">
<feFlood flood-opacity="0" result="BackgroundImageFix"/>
<feColorMatrix in="SourceAlpha" type="matrix" values="0 0 0 0 0 0 0 0 0 0 0 0 0 0 0 0 0 0 127 0" result="hardAlpha"/>
<feOffset dx="13" dy="13"/>
<feGaussianBlur stdDeviation="17.5"/>
<feComposite in2="hardAlpha" operator="out"/>
<feColorMatrix type="matrix" values="0 0 0 0 0 0 0 0 0 0 0 0 0 0 0 0 0 0 0.25 0"/>
<feBlend mode="normal" in2="BackgroundImageFix" result="effect1_dropShadow_110_393"/>
<feBlend mode="normal" in="SourceGraphic" in2="effect1_dropShadow_110_393" result="shape"/>
<feGaussianBlur stdDeviation="2" result="effect2_foregroundBlur_110_393"/>
</filter>
<clipPath id="clip0_110_393">
<rect width="149" height="123" fill="white" transform="translate(69.5 64)"/>
</clipPath>
</defs>
</svg>
