<svg width="290" height="266" viewBox="0 0 290 266" fill="none" xmlns="http://www.w3.org/2000/svg">
<g filter="url(#filter0_df_110_383)">
<ellipse cx="132" cy="120" rx="109.5" ry="98" fill="#DDC4CB" fill-opacity="0.38" shape-rendering="crispEdges"/>
</g>
<path d="M176.709 99.2938C175.218 98.8216 173.714 98.3841 172.199 97.9819C172.453 97.022 172.688 96.0738 172.896 95.1423C176.31 79.8451 174.078 67.5215 166.454 63.4639C159.144 59.5741 147.189 63.6301 135.116 73.3279C133.926 74.2854 132.762 75.2704 131.626 76.2822C130.866 75.6094 130.092 74.9497 129.305 74.3034C116.651 63.9342 103.968 59.564 96.3518 63.6331C89.0484 67.5351 86.8858 79.1202 89.9598 93.6177C90.2656 95.0535 90.6109 96.4819 90.9954 97.9015C89.2 98.3724 87.4676 98.8735 85.8097 99.4069C70.9742 104.181 61.5 111.662 61.5 119.422C61.5 127.436 71.671 135.475 87.1228 140.35C88.3755 140.743 89.6387 141.108 90.9111 141.443C90.4978 142.972 90.1309 144.512 89.8109 146.06C86.8803 160.306 89.1688 171.617 96.4525 175.494C103.975 179.498 116.602 175.383 128.896 165.464C129.893 164.657 130.868 163.828 131.82 162.977C133.05 164.072 134.313 165.136 135.608 166.167C147.517 175.624 159.279 179.443 166.555 175.556C174.071 171.54 176.514 159.389 173.342 144.605C173.092 143.447 172.812 142.294 172.502 141.148C173.389 140.906 174.259 140.656 175.107 140.397C191.171 135.485 201.623 127.544 201.623 119.422C201.623 111.634 191.843 104.102 176.709 99.2938ZM173.225 135.153C172.459 135.387 171.673 135.613 170.872 135.832C169.098 130.651 166.705 125.141 163.776 119.449C166.571 113.892 168.872 108.453 170.596 103.305C172.029 103.688 173.42 104.091 174.761 104.517C187.728 108.637 195.637 114.728 195.637 119.422C195.637 124.421 187.095 130.911 173.225 135.153ZM167.47 145.678C168.873 152.215 169.072 158.125 168.143 162.746C167.309 166.898 165.631 169.666 163.556 170.775C159.14 173.134 149.697 170.067 139.512 161.979C138.308 161.021 137.133 160.032 135.989 159.013C139.937 155.028 143.883 150.395 147.734 145.249C154.508 144.695 160.908 143.787 166.712 142.549C166.991 143.586 167.244 144.63 167.47 145.678ZM109.271 170.367C104.957 171.773 101.52 171.813 99.4432 170.708C95.0233 168.355 93.1859 159.273 95.6922 147.09C95.9901 145.651 96.3313 144.219 96.7152 142.797C102.455 143.969 108.808 144.811 115.598 145.32C119.475 150.355 123.535 154.983 127.627 159.035C126.757 159.812 125.867 160.568 124.957 161.304C119.52 165.69 114.072 168.802 109.271 170.367ZM89.0594 135.122C82.2267 132.967 76.584 130.165 72.7164 127.109C69.2407 124.362 67.4864 121.635 67.4864 119.422C67.4864 114.713 75.093 108.706 87.7802 104.624C89.3199 104.129 90.9313 103.662 92.6035 103.223C94.3572 108.487 96.6572 113.991 99.4328 119.556C96.6211 125.204 94.2882 130.796 92.5175 136.122C91.3561 135.815 90.203 135.481 89.0594 135.122ZM95.8345 92.5563C93.2012 80.1356 94.95 70.7662 99.3513 68.4146C104.039 65.9099 114.405 69.481 125.33 78.4347C126.043 79.0199 126.744 79.6169 127.433 80.2255C123.362 84.2604 119.339 88.8539 115.496 93.8591C108.906 94.4229 102.598 95.3282 96.7979 96.5411C96.4405 95.2207 96.1193 93.8917 95.8345 92.5563ZM156.277 106.331C154.907 104.147 153.487 101.991 152.016 99.8636C156.487 100.385 160.771 101.078 164.793 101.925C163.586 105.497 162.08 109.232 160.309 113.061C159.014 110.793 157.67 108.55 156.277 106.331ZM131.629 84.174C134.39 86.9347 137.155 90.0168 139.875 93.361C134.357 93.1206 128.831 93.1195 123.313 93.358C126.036 90.0446 128.825 86.9666 131.629 84.174ZM106.822 106.369C105.447 108.57 104.128 110.799 102.866 113.057C101.124 109.241 99.6321 105.489 98.4142 101.866C102.412 101.041 106.675 100.366 111.118 99.8535C109.631 101.994 108.199 104.167 106.822 106.369ZM111.245 139.383C106.656 138.91 102.328 138.27 98.3316 137.467C99.5686 133.779 101.093 129.948 102.874 126.05C104.141 128.309 105.465 130.54 106.846 132.742C108.266 135.005 109.736 137.222 111.245 139.383ZM131.794 155.059C128.957 152.234 126.127 149.108 123.363 145.747C126.046 145.844 128.782 145.893 131.562 145.893C134.418 145.893 137.241 145.834 140.02 145.72C137.291 149.142 134.536 152.272 131.794 155.059ZM160.365 125.851C162.238 129.792 163.817 133.603 165.07 137.228C161.008 138.083 156.621 138.773 151.999 139.284C153.48 137.117 154.914 134.923 156.301 132.704C157.711 130.448 159.066 128.163 160.365 125.851ZM151.116 129.944C148.993 133.347 146.751 136.685 144.394 139.954C140.123 140.233 135.843 140.371 131.562 140.369C127.201 140.369 122.959 140.244 118.875 140C116.456 136.739 114.171 133.394 112.026 129.974C109.891 126.572 107.897 123.096 106.048 119.554C107.892 116.011 109.881 112.533 112.008 109.128C114.135 105.723 116.401 102.393 118.802 99.1463C122.969 98.8553 127.242 98.7037 131.561 98.7037C135.899 98.7037 140.179 98.8568 144.344 99.1498C146.721 102.392 148.973 105.71 151.096 109.099C153.231 112.497 155.246 115.957 157.137 119.475C155.265 123.03 153.257 126.521 151.116 129.944ZM163.464 68.2499C168.156 70.7475 169.981 80.8191 167.033 94.0269C166.845 94.8695 166.633 95.7278 166.403 96.5982C160.589 95.3595 154.277 94.4386 147.667 93.8662C143.817 88.8059 139.828 84.2053 135.823 80.2225C136.872 79.2887 137.947 78.3791 139.046 77.4946C149.391 69.186 159.059 65.9054 163.464 68.2499ZM131.562 107.874C138.472 107.874 144.074 113.044 144.074 119.422C144.074 125.8 138.472 130.97 131.562 130.97C124.651 130.97 119.049 125.8 119.049 119.422C119.049 113.044 124.651 107.874 131.562 107.874Z" fill="#00B5CD"/>
<defs>
<filter id="filter0_df_110_383" x="0.5" y="0" width="289" height="266" filterUnits="userSpaceOnUse" color-interpolation-filters="sRGB">
<feFlood flood-opacity="0" result="BackgroundImageFix"/>
<feColorMatrix in="SourceAlpha" type="matrix" values="0 0 0 0 0 0 0 0 0 0 0 0 0 0 0 0 0 0 127 0" result="hardAlpha"/>
<feOffset dx="13" dy="13"/>
<feGaussianBlur stdDeviation="17.5"/>
<feComposite in2="hardAlpha" operator="out"/>
<feColorMatrix type="matrix" values="0 0 0 0 0 0 0 0 0 0 0 0 0 0 0 0 0 0 0.25 0"/>
<feBlend mode="normal" in2="BackgroundImageFix" result="effect1_dropShadow_110_383"/>
<feBlend mode="normal" in="SourceGraphic" in2="effect1_dropShadow_110_383" result="shape"/>
<feGaussianBlur stdDeviation="2" result="effect2_foregroundBlur_110_383"/>
</filter>
</defs>
</svg>
