<svg width="321" height="278" viewBox="0 0 321 278" fill="none" xmlns="http://www.w3.org/2000/svg">
<g filter="url(#filter0_df_110_386)">
<ellipse cx="147.5" cy="126" rx="125" ry="104" fill="#DDC4CB" fill-opacity="0.38" shape-rendering="crispEdges"/>
</g>
<g clip-path="url(#clip0_110_386)">
<path d="M184.513 137.562C190.159 137.069 194.442 132.964 194.247 128.037C194.053 123.11 189.185 119.169 183.344 119.169H182.955C176.919 119.333 172.247 123.603 172.441 128.693C172.636 131.157 173.804 133.292 175.556 134.77C168.937 145.773 158.812 153.82 143.626 160.553C133.307 165.152 122.599 166.794 111.89 165.645C103.129 164.659 96.3143 161.375 92.0303 155.955C85.8004 147.908 85.2165 139.204 90.4734 130.5C94.1729 124.259 100.013 119.661 103.713 117.362C102.934 115.227 101.766 111.614 101.182 108.987C72.9502 126.23 75.8709 149.551 84.4377 160.553C90.8625 168.765 103.908 173.856 118.315 173.856C122.209 173.856 126.103 173.527 129.997 172.707C154.919 168.601 173.805 156.119 184.513 137.562ZM218.78 117.198C203.983 102.582 182.177 94.5348 157.255 94.5348H154.14C152.388 91.5788 148.688 89.6077 144.6 89.6077H144.21C138.175 89.7721 133.502 94.0418 133.697 99.1332C133.891 104.06 138.759 108.001 144.6 108.001H144.989C149.272 107.837 152.972 105.538 154.529 102.417H158.034C172.831 102.417 186.849 106.03 199.505 113.092C209.24 118.512 216.249 125.574 220.143 134.113C223.453 141.011 223.258 147.744 219.753 153.492C214.302 162.196 205.151 166.959 193.08 166.959C185.292 166.959 177.893 164.988 173.999 163.509C171.857 165.152 167.963 167.779 165.237 169.422C173.61 172.706 182.177 174.513 190.354 174.513C209.045 174.513 222.869 165.809 228.126 157.105C233.772 147.58 233.382 131.157 218.78 117.198ZM119.873 140.353C120.068 145.28 124.935 149.221 130.776 149.221H131.165C137.201 149.058 141.874 144.787 141.679 139.696C141.485 134.769 136.617 130.828 130.776 130.828H130.387C129.997 130.828 129.413 130.828 129.024 130.992C121.041 119.825 117.731 107.673 118.9 94.5343C119.678 84.6807 123.572 76.1407 130.387 69.0788C136.033 63.0024 146.936 60.0464 154.335 59.8826C174.972 59.5539 183.734 81.2316 184.318 89.9359C186.849 90.4284 191.132 91.5782 194.053 92.3994C191.716 65.7951 172.247 52 153.556 52C136.033 52 119.873 62.6748 113.447 78.4404C104.491 99.4613 110.332 119.661 121.235 135.591C120.262 136.74 119.678 138.547 119.873 140.353Z" fill="#764ABC"/>
</g>
<defs>
<filter id="filter0_df_110_386" x="0.5" y="0" width="320" height="278" filterUnits="userSpaceOnUse" color-interpolation-filters="sRGB">
<feFlood flood-opacity="0" result="BackgroundImageFix"/>
<feColorMatrix in="SourceAlpha" type="matrix" values="0 0 0 0 0 0 0 0 0 0 0 0 0 0 0 0 0 0 127 0" result="hardAlpha"/>
<feOffset dx="13" dy="13"/>
<feGaussianBlur stdDeviation="17.5"/>
<feComposite in2="hardAlpha" operator="out"/>
<feColorMatrix type="matrix" values="0 0 0 0 0 0 0 0 0 0 0 0 0 0 0 0 0 0 0.25 0"/>
<feBlend mode="normal" in2="BackgroundImageFix" result="effect1_dropShadow_110_386"/>
<feBlend mode="normal" in="SourceGraphic" in2="effect1_dropShadow_110_386" result="shape"/>
<feGaussianBlur stdDeviation="2" result="effect2_foregroundBlur_110_386"/>
</filter>
<clipPath id="clip0_110_386">
<rect width="153" height="123" fill="white" transform="translate(78.5 52)"/>
</clipPath>
</defs>
</svg>
