<svg width="211" height="44" viewBox="0 0 211 44" fill="none" xmlns="http://www.w3.org/2000/svg">
<g clip-path="url(#clip0_26_821)">
<path d="M201.399 42.9034C202.537 42.9042 203.665 42.7551 204.717 42.4646C205.769 42.1741 206.725 41.748 207.531 41.2105C208.336 40.6731 208.976 40.0348 209.412 39.3322C209.849 38.6295 210.074 37.8763 210.075 37.1154C210.077 36.3546 209.854 35.601 209.419 34.8978C208.984 34.1946 208.347 33.5554 207.543 33.0169C206.739 32.4783 205.784 32.0509 204.733 31.7591C203.682 31.4672 202.555 31.3166 201.416 31.3158C199.118 31.3142 196.912 31.9232 195.285 33.0086C193.658 34.0941 192.742 35.5672 192.74 37.1038C192.738 38.6404 193.649 40.1147 195.273 41.2023C196.896 42.2899 199.1 42.9018 201.399 42.9034ZM192.723 21.3295H185.318C180.562 21.3295 178.001 23.7169 178.001 27.6881V42.0474H163.975V21.3295H158.017C153.252 21.3295 150.699 23.7169 150.699 27.6881V42.0474H136.674V13.6665H150.699V17.9755C152.999 14.6331 156.153 13.6665 160.831 13.6665H178.009V17.9755C180.309 14.6331 183.454 13.6665 188.132 13.6665H192.723V21.3295ZM133.608 30.0697H104.347C105.113 33.249 108.092 35.0657 113.11 35.0657C116.856 35.0657 119.487 34.0467 120.341 32.23L132.754 34.5592C129.696 39.497 122.126 42.5016 113.11 42.5016C97.8828 42.5016 90.9051 34.6116 90.9051 27.857C90.9051 21.2189 97.0291 13.2706 112.248 13.2706C128.416 13.2706 133.773 21.3295 133.773 27.2922C133.773 28.5965 133.686 29.4466 133.599 30.0697H133.608ZM120.001 24.567C119.652 22.1214 117.022 19.8505 112.256 19.8505C107.831 19.8505 105.2 21.1606 104.347 24.567H120.001ZM66.409 42.0416H78.7441L94.137 13.6607H80.0247L72.533 30.1803L64.8845 13.6607H50.8332L66.409 42.0416ZM8.91448 42.0416H22.87V21.3237H36.146V42.0416H50.0056V13.6607H22.87V11.9022C22.87 9.96899 24.9171 8.78112 28.149 8.78112H36.146V1.11816H25.8318C15.7093 1.11816 8.90577 5.26408 8.90577 11.3374V13.6665H1.00464V21.3295H8.91448V42.0474V42.0416Z" fill="white" fill-opacity="0.55"/>
</g>
<defs>
<clipPath id="clip0_26_821">
<rect width="210" height="43" fill="white" transform="translate(0.784912 0.3396)"/>
</clipPath>
</defs>
</svg>
