<svg width="220" height="220" viewBox="0 0 220 220" fill="none" xmlns="http://www.w3.org/2000/svg">
<g filter="url(#filter0_df_110_390)">
<circle cx="97" cy="97" r="75" fill="#DDC4CB" fill-opacity="0.38" shape-rendering="crispEdges"/>
</g>
<path d="M97 45.241C83.6664 45.241 75.3359 56.3483 72 78.5721C76.9984 67.4635 82.8336 63.2979 89.4984 66.0754C93.3039 67.6562 96.0234 72.2554 99.0352 77.352C103.937 85.6428 109.61 95.241 122 95.241C135.333 95.241 143.664 84.1323 147 61.9033C142.001 73.0185 136.166 77.184 129.501 74.4065C125.696 72.8244 122.98 68.2265 119.964 63.1299C115.066 54.8391 109.394 45.241 97 45.241ZM72 95.241C58.6672 95.241 50.3359 106.35 47 128.579C51.9984 117.463 57.8328 113.298 64.4984 116.075C68.3039 117.657 71.0234 122.255 74.0352 127.352C78.9367 135.643 84.6102 145.241 97 145.241C110.333 145.241 118.664 134.134 122 111.91C117.001 123.018 111.166 127.184 104.501 124.407C100.696 122.826 97.9797 118.227 94.9641 113.13C90.0656 104.839 84.3938 95.241 72 95.241Z" fill="#38BDF8"/>
<defs>
<filter id="filter0_df_110_390" x="0" y="0" width="220" height="220" filterUnits="userSpaceOnUse" color-interpolation-filters="sRGB">
<feFlood flood-opacity="0" result="BackgroundImageFix"/>
<feColorMatrix in="SourceAlpha" type="matrix" values="0 0 0 0 0 0 0 0 0 0 0 0 0 0 0 0 0 0 127 0" result="hardAlpha"/>
<feOffset dx="13" dy="13"/>
<feGaussianBlur stdDeviation="17.5"/>
<feComposite in2="hardAlpha" operator="out"/>
<feColorMatrix type="matrix" values="0 0 0 0 0 0 0 0 0 0 0 0 0 0 0 0 0 0 0.25 0"/>
<feBlend mode="normal" in2="BackgroundImageFix" result="effect1_dropShadow_110_390"/>
<feBlend mode="normal" in="SourceGraphic" in2="effect1_dropShadow_110_390" result="shape"/>
<feGaussianBlur stdDeviation="2" result="effect2_foregroundBlur_110_390"/>
</filter>
</defs>
</svg>
