<svg width="220" height="220" viewBox="0 0 220 220" fill="none" xmlns="http://www.w3.org/2000/svg">
<g filter="url(#filter0_df_110_373)">
<circle cx="97" cy="97" r="75" fill="#DDC4CB" fill-opacity="0.38" shape-rendering="crispEdges"/>
</g>
<g clip-path="url(#clip0_110_373)">
<path d="M97 47C124.614 47 147 69.3859 147 97C147 124.614 124.614 147 97 147C69.3859 147 47 124.614 47 97C47 69.3859 69.3859 47 97 47Z" fill="#3178C6"/>
<path d="M101.868 109.778V119.555C103.437 120.37 105.293 120.982 107.435 121.389C109.577 121.796 111.835 122 114.208 122C116.521 122 118.719 121.776 120.8 121.328C122.882 120.88 124.707 120.141 126.276 119.113C127.845 118.084 129.087 116.739 130.002 115.079C130.918 113.419 131.375 111.367 131.375 108.923C131.375 107.15 131.114 105.597 130.591 104.263C130.075 102.941 129.306 101.731 128.328 100.704C127.342 99.6645 126.161 98.7328 124.783 97.9078C123.405 97.0828 121.851 96.3035 120.121 95.5703C118.854 95.0406 117.718 94.5262 116.712 94.0273C115.707 93.5281 114.852 93.0191 114.148 92.4996C113.444 91.9801 112.901 91.4301 112.519 90.8496C112.136 90.2691 111.945 89.6121 111.945 88.8789C111.945 88.2066 112.116 87.6008 112.458 87.0609C112.8 86.5211 113.283 86.0574 113.906 85.6703C114.53 85.2836 115.294 84.9828 116.199 84.7691C117.104 84.5555 118.11 84.4484 119.216 84.4484C120.021 84.4484 120.871 84.5094 121.766 84.632C122.661 84.7539 123.561 84.9422 124.466 85.1969C125.369 85.4508 126.251 85.7725 127.106 86.1594C127.936 86.5323 128.729 86.9825 129.474 87.5039V78.368C128.006 77.7977 126.402 77.375 124.662 77.1C122.922 76.825 120.926 76.6875 118.673 76.6875C116.38 76.6875 114.208 76.9371 112.157 77.4359C110.105 77.9352 108.3 78.7145 106.741 79.7734C105.182 80.8328 103.95 82.182 103.045 83.8219C102.14 85.4617 101.688 87.4223 101.688 89.7039C101.688 92.6168 102.517 95.1016 104.177 97.159C105.836 99.2164 108.355 100.958 111.734 102.384C112.982 102.899 114.219 103.439 115.445 104.004C116.591 104.533 117.582 105.083 118.417 105.653C119.252 106.224 119.91 106.845 120.393 107.517C120.876 108.189 121.117 108.953 121.117 109.809C121.122 110.424 120.965 111.029 120.664 111.566C120.363 112.105 119.905 112.574 119.292 112.971C118.679 113.368 117.914 113.679 116.999 113.903C116.084 114.127 115.013 114.239 113.786 114.239C111.694 114.239 109.622 113.867 107.571 113.124C105.519 112.38 103.618 111.265 101.868 109.778ZM85.1684 85.493H97.7812V77.4688H62.625V85.4926H75.1766V121.219H85.168V85.4926L85.1684 85.493Z" fill="white"/>
</g>
<defs>
<filter id="filter0_df_110_373" x="0" y="0" width="220" height="220" filterUnits="userSpaceOnUse" color-interpolation-filters="sRGB">
<feFlood flood-opacity="0" result="BackgroundImageFix"/>
<feColorMatrix in="SourceAlpha" type="matrix" values="0 0 0 0 0 0 0 0 0 0 0 0 0 0 0 0 0 0 127 0" result="hardAlpha"/>
<feOffset dx="13" dy="13"/>
<feGaussianBlur stdDeviation="17.5"/>
<feComposite in2="hardAlpha" operator="out"/>
<feColorMatrix type="matrix" values="0 0 0 0 0 0 0 0 0 0 0 0 0 0 0 0 0 0 0.25 0"/>
<feBlend mode="normal" in2="BackgroundImageFix" result="effect1_dropShadow_110_373"/>
<feBlend mode="normal" in="SourceGraphic" in2="effect1_dropShadow_110_373" result="shape"/>
<feGaussianBlur stdDeviation="2" result="effect2_foregroundBlur_110_373"/>
</filter>
<clipPath id="clip0_110_373">
<rect width="100" height="100" fill="white" transform="translate(47 47)"/>
</clipPath>
</defs>
</svg>
