<svg width="302" height="266" viewBox="0 0 302 266" fill="none" xmlns="http://www.w3.org/2000/svg">
<g filter="url(#filter0_df_110_373)">
<ellipse cx="138" cy="120" rx="116" ry="98" fill="#DDC4CB" fill-opacity="0.38" shape-rendering="crispEdges"/>
</g>
<g clip-path="url(#clip0_110_373)">
<path d="M138 41C180.526 41 215 73.9073 215 114.5C215 155.093 180.526 188 138 188C95.4743 188 61 155.093 61 114.5C61 73.9073 95.4743 41 138 41Z" fill="#3178C6"/>
<path d="M145.497 133.284V147.657C147.914 148.854 150.771 149.753 154.07 150.352C157.369 150.951 160.846 151.25 164.501 151.25C168.062 151.25 171.447 150.92 174.653 150.262C177.858 149.603 180.669 148.518 183.085 147.005C185.501 145.493 187.414 143.517 188.824 141.077C190.233 138.636 190.938 135.62 190.938 132.026C190.938 129.421 190.535 127.138 189.73 125.176C188.936 123.233 187.752 121.455 186.245 119.944C184.727 118.417 182.907 117.047 180.786 115.834C178.664 114.622 176.271 113.476 173.607 112.398C171.656 111.62 169.906 110.863 168.357 110.13C166.808 109.396 165.492 108.648 164.407 107.884C163.323 107.121 162.487 106.312 161.899 105.459C161.31 104.606 161.016 103.64 161.016 102.562C161.016 101.574 161.279 100.683 161.806 99.8896C162.333 99.096 163.076 98.4144 164.036 97.8454C164.996 97.2769 166.173 96.8347 167.567 96.5206C168.961 96.2065 170.51 96.0492 172.213 96.0492C173.452 96.0492 174.761 96.1388 176.139 96.3191C177.518 96.4982 178.904 96.775 180.298 97.1494C181.688 97.5226 183.047 97.9956 184.363 98.5643C185.641 99.1125 186.862 99.7742 188.01 100.541V87.1109C185.749 86.2726 183.279 85.6512 180.6 85.247C177.92 84.8427 174.846 84.6406 171.377 84.6406C167.846 84.6406 164.501 85.0076 161.341 85.7408C158.182 86.4747 155.402 87.6202 153.001 89.177C150.6 90.7342 148.704 92.7176 147.31 95.1282C145.916 97.5387 145.219 100.421 145.219 103.775C145.219 108.057 146.496 111.709 149.052 114.734C151.607 117.758 155.487 120.319 160.691 122.414C162.612 123.172 164.518 123.965 166.406 124.795C168.171 125.573 169.696 126.382 170.982 127.22C172.267 128.059 173.282 128.972 174.025 129.96C174.769 130.948 175.14 132.071 175.14 133.329C175.147 134.233 174.907 135.123 174.443 135.911C173.979 136.705 173.274 137.394 172.329 137.978C171.385 138.561 170.208 139.018 168.798 139.348C167.389 139.677 165.739 139.841 163.85 139.841C160.629 139.841 157.438 139.295 154.279 138.202C151.119 137.109 148.192 135.47 145.497 133.284ZM119.779 97.5847H139.203V85.7891H85.0625V97.5841H104.392V150.102H119.779V97.5841L119.779 97.5847Z" fill="white"/>
</g>
<defs>
<filter id="filter0_df_110_373" x="0" y="0" width="302" height="266" filterUnits="userSpaceOnUse" color-interpolation-filters="sRGB">
<feFlood flood-opacity="0" result="BackgroundImageFix"/>
<feColorMatrix in="SourceAlpha" type="matrix" values="0 0 0 0 0 0 0 0 0 0 0 0 0 0 0 0 0 0 127 0" result="hardAlpha"/>
<feOffset dx="13" dy="13"/>
<feGaussianBlur stdDeviation="17.5"/>
<feComposite in2="hardAlpha" operator="out"/>
<feColorMatrix type="matrix" values="0 0 0 0 0 0 0 0 0 0 0 0 0 0 0 0 0 0 0.25 0"/>
<feBlend mode="normal" in2="BackgroundImageFix" result="effect1_dropShadow_110_373"/>
<feBlend mode="normal" in="SourceGraphic" in2="effect1_dropShadow_110_373" result="shape"/>
<feGaussianBlur stdDeviation="2" result="effect2_foregroundBlur_110_373"/>
</filter>
<clipPath id="clip0_110_373">
<rect width="154" height="147" fill="white" transform="translate(61 41)"/>
</clipPath>
</defs>
</svg>
