<svg width="119" height="114" viewBox="0 0 119 114" fill="none" xmlns="http://www.w3.org/2000/svg">
<g clip-path="url(#clip0_110_342)">
<mask id="mask0_110_342" style="mask-type:luminance" maskUnits="userSpaceOnUse" x="0" y="0" width="120" height="114">
<path d="M0.00012207 0.5H119V113.5H0.00012207V0.5Z" fill="white"/>
</mask>
<g mask="url(#mask0_110_342)">
<path d="M116.169 0.500004H2.82638C2.07635 0.501251 1.3575 0.785049 0.827614 1.2891C0.297732 1.79315 0.000125278 2.47625 0.000126428 3.18846V110.816C-0.000526748 111.169 0.0722588 111.519 0.214309 111.846C0.356359 112.172 0.564879 112.469 0.827911 112.719C1.09094 112.968 1.40331 113.166 1.74711 113.301C2.0909 113.436 2.45935 113.505 2.83133 113.505H116.174C116.546 113.505 116.914 113.435 117.257 113.3C117.601 113.165 117.913 112.967 118.176 112.717C118.439 112.468 118.647 112.171 118.79 111.845C118.932 111.519 119.005 111.169 119.005 110.816V3.18375C119.004 2.8307 118.931 2.48123 118.788 2.15528C118.645 1.82934 118.436 1.53331 118.172 1.2841C117.909 1.0349 117.596 0.837384 117.253 0.702848C116.909 0.568312 116.541 0.499385 116.169 0.500004ZM70.8349 60.8891H56.6689V102.737H45.3342V60.8891H31.1682V51.6184H70.8349V60.8891ZM74.0082 100.345V89.1626C74.0082 89.1626 80.4441 93.7673 88.1642 93.7673C95.8844 93.7673 95.5869 88.9743 95.5869 88.3151C95.5869 81.3609 73.7107 81.3609 73.7107 65.9458C73.7107 44.9843 105.588 53.2569 105.588 53.2569L105.191 63.2197C105.191 63.2197 99.8461 59.8344 93.8068 59.8344C87.7676 59.8344 85.5909 62.5652 85.5909 65.475C85.5909 72.9942 107.665 72.2456 107.665 87.3781C107.665 110.684 74.0082 100.35 74.0082 100.35V100.345Z" fill="#808080" fill-opacity="0.52"/>
</g>
</g>
<defs>
<clipPath id="clip0_110_342">
<rect width="119" height="114" fill="white"/>
</clipPath>
</defs>
</svg>
