<svg width="312" height="59" viewBox="0 0 312 59" fill="none" xmlns="http://www.w3.org/2000/svg">
<g clip-path="url(#clip0_110_317)" filter="url(#filter0_d_110_317)">
<path d="M87.4735 29.4987C82.5329 29.4987 77.9034 28.1862 73.6973 26.0496L74.7215 23.0335L74.7661 22.9217C75.6781 19.7103 78.5714 14.3199 87.4735 14.3199C94.1496 14.3199 99.5801 17.7272 99.5801 21.9162C99.5575 26.0913 94.1277 29.4987 87.4735 29.4987ZM87.4735 6.62603C76.1008 6.62603 67.2884 11.262 63.7057 18.8862C58.2307 13.7335 54.0911 7.54772 51.6656 2.33911H39.4255V22.3211C39.4255 26.259 34.3067 29.4704 28.0308 29.4704C21.7549 29.4704 16.6367 26.259 16.6367 22.3211V2.33911H4.3954V22.3211C4.35087 30.5042 14.9665 37.2205 28.0077 37.2205C41.0494 37.2205 51.665 30.5042 51.665 22.3211V18.9701C54.046 22.0838 56.9613 25.2255 60.5 28.0185L52.9998 50.1368H65.5297L70.9595 34.0926C75.722 36.0056 81.197 37.2067 87.4729 37.2067C100.892 37.2067 111.82 30.3086 111.82 21.8882C111.82 13.482 100.893 6.62603 87.4735 6.62603Z" fill="#808080" fill-opacity="0.55"/>
<path d="M148.675 14.1418L156.575 34.1238L165.277 14.1418H175.648L162.273 43.0188H151.902L143.69 22.9108L135.5 43.0046H125.13L111.754 14.128H122.125L130.826 34.11L138.727 14.128H148.674V14.1421L148.675 14.1418ZM200.462 13.2759C186.998 13.2759 176.093 20.132 176.093 28.5661C176.093 37.0144 187.02 43.8566 200.462 43.8566C213.926 43.8566 224.853 37.0144 224.853 28.5661C224.853 20.1182 213.926 13.2759 200.462 13.2759ZM200.462 37.5729C192.539 37.5729 186.13 33.5512 186.13 28.5803C186.13 23.609 192.561 19.5877 200.462 19.5877C208.385 19.5877 214.794 23.609 214.794 28.5803C214.794 33.5374 208.385 37.5729 200.462 37.5729ZM254.474 20.607C247.509 20.607 241.878 24.1536 241.878 28.5102V43.0046H231.44V14.1418H241.878V18.5822C241.878 18.5822 246.329 14.1276 255.476 14.1276H258.68V20.607H254.474ZM289.503 27.4492C296.913 24.8239 301.944 19.8388 301.944 14.1276H291.506C291.506 18.945 285.275 22.8549 277.597 22.8549H276.195V0.205811H265.758V43.0042H276.195V29.404H277.441C278.465 29.404 279.8 29.8231 280.401 30.3394L295.222 43.0046H307.73L289.503 27.4492Z" fill="#808080" fill-opacity="0.54"/>
</g>
<defs>
<filter id="filter0_d_110_317" x="0" y="0" width="312" height="59" filterUnits="userSpaceOnUse" color-interpolation-filters="sRGB">
<feFlood flood-opacity="0" result="BackgroundImageFix"/>
<feColorMatrix in="SourceAlpha" type="matrix" values="0 0 0 0 0 0 0 0 0 0 0 0 0 0 0 0 0 0 127 0" result="hardAlpha"/>
<feOffset dy="4"/>
<feGaussianBlur stdDeviation="2"/>
<feComposite in2="hardAlpha" operator="out"/>
<feColorMatrix type="matrix" values="0 0 0 0 0 0 0 0 0 0 0 0 0 0 0 0 0 0 0.25 0"/>
<feBlend mode="normal" in2="BackgroundImageFix" result="effect1_dropShadow_110_317"/>
<feBlend mode="normal" in="SourceGraphic" in2="effect1_dropShadow_110_317" result="shape"/>
</filter>
<clipPath id="clip0_110_317">
<rect width="304" height="51" fill="white" transform="translate(4)"/>
</clipPath>
</defs>
</svg>
