<svg width="145" height="113" viewBox="0 0 145 113" fill="none" xmlns="http://www.w3.org/2000/svg">
<g filter="url(#filter0_d_110_186)">
<path d="M5.50707 61.1217C4.71554 61.7554 4.51842 62.4386 5.06679 62.6476L14.0031 66.0526C14.5515 66.2615 15.6377 65.9171 16.4293 65.2834C17.2208 64.6496 17.4179 63.9664 16.8695 63.7575L8.92613 60.7308L20.3918 51.5503C21.1833 50.9166 21.3804 50.2334 20.832 50.0244C20.2837 49.8155 19.1975 50.1599 18.4059 50.7937L5.50707 61.1217ZM6.5 61.5C6.18867 62.579 6.18864 62.579 6.18862 62.579C6.18861 62.579 6.18859 62.579 6.18859 62.579C6.18858 62.579 6.1886 62.579 6.18863 62.579C6.1887 62.579 6.18885 62.5789 6.18908 62.5788C6.18955 62.5787 6.19035 62.5784 6.19149 62.5781C6.19375 62.5774 6.19733 62.5762 6.20224 62.5747C6.21204 62.5716 6.2271 62.5668 6.24735 62.5604C6.28785 62.5477 6.34912 62.5284 6.43062 62.5028C6.59361 62.4516 6.83749 62.3754 7.15795 62.2759C7.79887 62.0769 8.74602 61.7851 9.96484 61.4156L10.6707 59.2319C9.43654 59.606 8.47482 59.9023 7.8201 60.1055C7.49274 60.2072 7.24211 60.2855 7.07254 60.3388C6.98775 60.3654 6.92323 60.3857 6.87952 60.3995C6.85766 60.4064 6.841 60.4116 6.82962 60.4152C6.82392 60.417 6.81954 60.4184 6.81649 60.4194C6.81497 60.4199 6.81377 60.4203 6.81291 60.4205C6.81248 60.4207 6.81213 60.4208 6.81187 60.4209C6.81174 60.4209 6.81162 60.4209 6.81153 60.421C6.81149 60.421 6.81144 60.421 6.81141 60.421C6.81137 60.421 6.81132 60.421 6.5 61.5ZM17.7591 59.1089C20.0442 58.4474 22.6116 57.7165 25.4097 56.9388L26.2625 54.7124C23.4406 55.4966 20.8509 56.2339 18.545 56.9014L17.7591 59.1089ZM33.1141 54.8414C35.5589 54.1899 38.1153 53.5221 40.7592 52.8485L41.7431 50.5872C39.076 51.2666 36.4976 51.9402 34.0321 52.5972L33.1141 54.8414ZM48.3238 50.9678C50.7866 50.371 53.3002 49.7775 55.8481 49.1944L56.9733 46.8988C54.3998 47.4878 51.8619 48.0871 49.3762 48.6894L48.3238 50.9678ZM63.315 47.5401C65.7688 47.0151 68.2386 46.5058 70.7105 46.0182L72.0003 43.6876C69.4981 44.1811 66.9996 44.6964 64.5188 45.2272L63.315 47.5401ZM78.0195 44.6447C80.4368 44.2141 82.8424 43.8104 85.2234 43.4393L86.714 41.0731C84.2956 41.4501 81.8546 41.8598 79.4041 42.2963L78.0195 44.6447ZM92.2979 42.4268C94.6463 42.1229 96.9552 41.8583 99.2112 41.639L100.958 39.2402C98.6539 39.4642 96.2993 39.7341 93.9083 40.0436L92.2979 42.4268ZM105.919 41.1161C108.145 40.9898 110.297 40.9191 112.361 40.9107L114.448 38.4941C112.32 38.5028 110.106 38.5756 107.824 38.7052L105.919 41.1161ZM118.447 41.0903C120.442 41.2259 122.316 41.4401 124.052 41.7404L126.596 39.3593C124.776 39.0443 122.819 38.8211 120.747 38.6802L118.447 41.0903ZM128.997 42.9647C130.538 43.4903 131.896 44.1244 133.05 44.8758L136.147 42.6962C134.904 41.8873 133.451 41.2099 131.814 40.6519L128.997 42.9647ZM135.942 47.5752C136.674 48.6033 137.172 49.7662 137.412 51.0752L140.884 49.445C140.622 48.0127 140.077 46.7421 139.278 45.6216L135.942 47.5752ZM137.363 55.2938C137.109 56.7457 136.623 58.331 135.884 60.06L139.235 59.1946C140.028 57.3389 140.555 55.6254 140.832 54.047L137.363 55.2938ZM133.207 65.1689C132.198 66.8235 131.002 68.5831 129.606 70.4533L132.597 70.1969C134.056 68.2407 135.316 66.3891 136.384 64.638L133.207 65.1689ZM125.306 75.8189C124.53 76.7306 123.712 77.6644 122.853 78.6208L125.583 78.6815C126.47 77.6939 127.316 76.7278 128.121 75.7829L125.306 75.8189ZM122.853 78.6208C121.919 79.6614 121.007 80.657 120.117 81.6088L122.775 81.747C123.691 80.7676 124.627 79.746 125.583 78.6815L122.853 78.6208ZM114.63 87.197C112.437 89.3088 110.42 91.0908 108.572 92.5731L110.563 93.326C112.611 91.6828 114.78 89.7612 117.078 87.5484L114.63 87.197ZM101.867 97.0674C99.4631 98.2832 97.5159 98.7245 95.8223 98.5346L93.411 100.935C95.8551 101.209 98.885 100.529 102.416 98.7432L101.867 97.0674ZM91.9712 96.6238C91.1134 95.7603 90.3849 94.6258 89.7801 93.2453L86.364 95.0585C86.9965 96.5022 87.7737 97.7259 88.7206 98.6792L91.9712 96.6238ZM88.5337 89.3492C88.2359 88.0513 88.0034 86.6406 87.8307 85.1316L84.35 86.7009C84.5259 88.2384 84.7635 89.6826 85.0698 91.0172L88.5337 89.3492ZM87.5017 80.7224C87.4435 79.2684 87.4265 77.7522 87.4467 76.1837L83.9596 77.6256C83.9393 79.2108 83.9564 80.7456 84.0154 82.2197L87.5017 80.7224ZM87.6031 71.55C87.6842 70.0148 87.7939 68.4434 87.929 66.8439L84.446 68.2046C84.3099 69.8154 84.1993 71.399 84.1175 72.9474L87.6031 71.55ZM88.3946 62.0841C88.5692 60.5011 88.7643 58.8994 88.9772 57.2861L85.5005 58.5889C85.2865 60.2105 85.0902 61.8211 84.9146 63.4137L88.3946 62.0841ZM89.6628 52.441C89.9075 50.8155 90.167 49.1856 90.4384 47.5584L86.9684 48.8166C86.6958 50.4504 86.4352 52.0873 86.1893 53.7202L89.6628 52.441ZM91.2939 42.6469C91.5943 40.9892 91.9043 39.3421 92.2207 37.713L88.7572 38.9348C88.4397 40.5694 88.1287 42.2223 87.8271 43.8861L91.2939 42.6469ZM93.2124 32.7605C93.5606 31.0708 93.9125 29.4106 94.2644 27.7894L90.8073 28.98C90.4544 30.606 90.1014 32.2712 89.7521 33.9663L93.2124 32.7605ZM95.3746 22.7943C95.7712 21.0502 96.1626 19.3695 96.5432 17.766L93.0925 18.9283C92.7109 20.5361 92.3184 22.2215 91.9207 23.9706L95.3746 22.7943ZM97.771 12.6984C98.231 10.8376 98.6615 9.13746 99.0498 7.62953L95.6062 8.76303C95.2168 10.2756 94.7851 11.9806 94.3237 13.8466L97.771 12.6984ZM100.39 2.53765C100.604 1.74647 100.772 1.13288 100.887 0.717428C100.944 0.509705 100.988 0.35152 101.018 0.245442C101.033 0.192403 101.044 0.152392 101.051 0.125728C101.055 0.112396 101.058 0.102402 101.06 0.0957843C101.061 0.0924756 101.061 0.0900112 101.062 0.0883961C101.062 0.0875885 101.062 0.0869933 101.062 0.0866111C101.062 0.0864199 101.062 0.086282 101.062 0.0861975C101.062 0.0861552 101.062 0.0861262 101.062 0.0861106C101.062 0.0861028 101.062 0.0861011 101.062 0.0860972C101.062 0.0860988 101.062 0.0861038 99.3455 0.634651C97.6287 1.1832 97.6287 1.18321 97.6287 1.18322C97.6287 1.18323 97.6287 1.18325 97.6287 1.18327C97.6286 1.18331 97.6286 1.18336 97.6286 1.18342C97.6286 1.18355 97.6285 1.18374 97.6285 1.18397C97.6283 1.18444 97.6281 1.18513 97.6279 1.18602C97.6274 1.18782 97.6266 1.19046 97.6256 1.19395C97.6237 1.20092 97.6208 1.21128 97.6169 1.22497C97.6092 1.25236 97.5978 1.2931 97.5828 1.34688C97.5527 1.45444 97.5083 1.61414 97.4504 1.82342C97.3348 2.24196 97.1657 2.85881 96.9514 3.65339L100.39 2.53765Z" fill="white" fill-opacity="0.87"/>
</g>
<defs>
<filter id="filter0_d_110_186" x="0.756348" y="0.0861206" width="144.128" height="112.907" filterUnits="userSpaceOnUse" color-interpolation-filters="sRGB">
<feFlood flood-opacity="0" result="BackgroundImageFix"/>
<feColorMatrix in="SourceAlpha" type="matrix" values="0 0 0 0 0 0 0 0 0 0 0 0 0 0 0 0 0 0 127 0" result="hardAlpha"/>
<feOffset dy="8"/>
<feGaussianBlur stdDeviation="2"/>
<feComposite in2="hardAlpha" operator="out"/>
<feColorMatrix type="matrix" values="0 0 0 0 0 0 0 0 0 0 0 0 0 0 0 0 0 0 0.25 0"/>
<feBlend mode="normal" in2="BackgroundImageFix" result="effect1_dropShadow_110_186"/>
<feBlend mode="normal" in="SourceGraphic" in2="effect1_dropShadow_110_186" result="shape"/>
</filter>
</defs>
</svg>
