<svg width="129" height="128" viewBox="0 0 129 128" fill="none" xmlns="http://www.w3.org/2000/svg">
<g clip-path="url(#clip0_110_338)">
<path d="M59.8899 0.152012C59.4059 0.203012 57.8949 0.382012 56.5619 0.539012C51.1879 1.15201 45.0939 2.76601 39.7459 5.01901C20.3909 13.106 5.82391 30.849 1.80491 51.2C0.858906 56.04 0.628906 58.418 0.628906 64C0.628906 71.195 1.34391 76.16 3.23891 82.434C9.43391 102.964 25.5619 119.066 46.1449 125.285C52.3399 127.156 57.3319 127.871 64.4999 127.871C71.6949 127.871 76.6599 127.156 82.9339 125.261C103.464 119.066 119.566 102.938 125.785 82.355C127.656 76.16 128.371 71.168 128.371 64C128.371 60.953 128.219 57.473 128.039 56.191C125.965 41.395 119.871 28.953 109.711 18.789C99.5699 8.70301 87.1799 2.58601 72.6899 0.512012C70.6939 0.230012 61.4519 -0.0279879 59.8899 0.152012ZM39.0269 40.472C40.3869 40.882 41.0229 41.266 41.9449 42.187C43.7379 44.007 44.1479 45.004 44.1479 47.742C44.1479 49.793 44.0699 50.176 43.4569 51.25C42.2769 53.246 39.5389 55.09 37.6449 55.14C36.3119 55.168 36.3669 54.578 37.8249 53.043C39.7699 51.02 40.0509 50.253 40.0509 47.23C40.0269 44.313 39.6679 43.316 38.3119 42.496C37.1839 41.805 35.9569 41.856 34.1639 42.699C29.5039 44.929 24.4609 52.352 22.4919 59.957C19.8789 70.094 24.5119 78.207 32.1409 76.824C34.3669 76.414 38.5659 74.266 40.3869 72.574C41.8949 71.195 41.8949 71.168 42.0469 69.454C42.3829 65.867 44.9139 62.285 48.2969 60.621C49.8549 59.851 50.2419 59.777 52.3399 59.777C54.3359 59.777 54.7969 59.879 55.7699 60.414C58.8669 62.184 58.2269 66.304 54.8749 66.304C52.9299 66.304 51.9299 65.304 53.3399 64.77C54.7229 64.258 54.2069 62.336 52.5979 61.902C50.7029 61.414 48.5509 62.695 47.1949 65.152C45.5549 68.122 45.4799 71.656 47.0389 73.266C48.5509 74.879 50.4449 73.602 51.9059 69.937C52.6719 68.07 53.7729 67.07 55.0549 67.07C56.1799 67.07 56.3869 67.762 55.8979 69.863C55.1799 73.113 55.6679 73.957 57.6909 72.961C58.3549 72.652 59.4569 71.938 60.1209 71.426L61.3749 70.426L62.2229 65.996C63.1449 61.031 63.4999 60.363 65.3949 60.008C67.2149 59.672 67.6249 60.57 66.9569 63.41L66.5969 65L67.9299 63.64C71.0779 60.414 74.9449 58.828 76.2769 60.16C76.9919 60.875 76.9139 61.773 75.8909 64.945C75.4059 66.457 74.7379 68.84 74.4339 70.195C73.9729 72.242 73.9449 72.73 74.2039 73.063C75.0239 74.035 77.5309 73.035 79.7579 70.859L81.0629 69.582L81.2189 66.738C81.3709 63.461 81.6759 62.285 82.5469 61.234C83.3669 60.262 84.8519 59.547 85.6449 59.75C86.4379 59.957 86.4379 60.723 85.7229 62.977C84.7229 66.074 84.8279 73.215 85.8519 73.215C86.2619 73.215 88.3589 71.015 89.6919 69.172L90.6879 67.812L89.8949 66.996C88.5119 65.536 88.1799 64.59 88.1799 62.207C88.1799 60.469 88.3089 59.828 88.7419 58.98C89.4609 57.652 90.5859 56.68 91.9179 56.293C93.3239 55.859 95.0659 56.574 95.7809 57.855C96.4999 59.16 96.3209 62.078 95.3979 64.078L94.7339 65.535H95.6289C96.8589 65.535 97.3439 65.23 99.5469 63.156C100.699 62.055 102.031 61.106 103.027 60.645C106.945 58.805 111.555 59.75 112.32 62.566C112.96 64.82 111.555 66.406 109.094 66.226C107.328 66.098 106.996 65.636 108.02 64.77C109.863 63.23 108.02 61.262 105.383 61.977C103.949 62.363 102.336 63.973 101.493 65.844C99.8009 69.582 100.699 73.984 103.129 73.984C104.102 73.984 105.82 72.063 106.484 70.195C107.277 68.043 108.941 66.688 110.195 67.175C110.887 67.43 110.938 68.121 110.504 70.297C110.016 72.68 109.941 74.907 110.324 75.93C110.477 76.312 110.938 77.031 111.375 77.516C112.191 78.437 112.219 78.77 111.527 79.207C111.195 79.437 110.757 79.336 109.684 78.747C108.199 77.977 106.918 76.594 106.457 75.289L106.176 74.523L105.152 75.289C104.562 75.699 103.641 76.16 103.105 76.312C100.98 76.875 98.3669 75.418 97.1409 72.961C96.6519 72.011 96.4999 69.223 96.8589 68.148C97.0629 67.558 97.0629 67.558 96.2419 67.968C95.8089 68.199 94.8869 68.453 94.1719 68.531C92.9919 68.661 92.8119 68.789 91.6369 70.273C89.9729 72.343 87.0269 75.137 85.8239 75.727C83.2659 77.004 82.4219 76.645 81.7539 74.007L81.2929 72.242L80.1909 73.215C78.7849 74.445 75.9689 75.93 74.3549 76.289C72.8199 76.621 71.1799 76.133 70.5149 75.109C69.5199 73.574 69.8519 70.324 71.4369 65.945C72.6129 62.695 71.7699 62.645 68.8009 65.742C66.5979 68.07 65.6519 69.734 65.0389 72.32C64.3989 75.008 63.6289 75.98 61.8909 76.39C60.8399 76.621 60.3509 75.98 60.5589 74.574L60.7109 73.445L59.7379 74.113C58.3549 75.059 56.6129 75.93 55.4099 76.262C54.2069 76.594 52.6209 76.238 52.2379 75.57C51.5469 74.395 51.5469 74.395 50.4729 75.238C48.1409 77.133 44.8129 76.594 43.1249 74.086L42.5849 73.293L40.8979 74.855C36.0309 79.309 29.9409 81.305 25.4339 79.922C19.6989 78.184 16.5269 73.266 16.5779 66.176C16.6019 59.059 19.7499 51.559 25.0509 46.004C28.0469 42.879 30.8629 41.035 33.7309 40.344C35.8009 39.832 37.0589 39.858 39.0269 40.472Z" fill="white" fill-opacity="0.63"/>
<path d="M90.9179 58.676C90.3549 59.238 90.5619 61.492 91.2779 62.926C91.6369 63.668 92.0199 64.258 92.1479 64.258C92.2499 64.258 92.4799 63.668 92.6599 62.949C93.2999 60.289 92.1479 57.445 90.9179 58.676Z" fill="white" fill-opacity="0.63"/>
</g>
<defs>
<clipPath id="clip0_110_338">
<rect width="128" height="128" fill="white" transform="translate(0.5)"/>
</clipPath>
</defs>
</svg>
