<svg width="211" height="44" viewBox="0 0 211 44" fill="none" xmlns="http://www.w3.org/2000/svg">
<g clip-path="url(#clip0_283_2)">
<path d="M64.9473 17.5132C67.3508 17.5132 69.2991 15.8915 69.2991 13.8913C69.2991 11.8908 67.3508 10.2694 64.9473 10.2694C62.5438 10.2694 60.5955 11.8908 60.5955 13.8913C60.5955 15.8915 62.5438 17.5132 64.9473 17.5132ZM208.568 29.888C207.906 29.5006 207.395 29.4365 206.97 30.1886C199.661 43.3603 187.344 36.7874 188.568 37.3659C191.3 36.326 198.486 31.5312 197.399 24.9106C196.74 20.8645 192.566 19.0697 188.136 19.7123C180.403 20.8341 177.558 27.7741 179.006 33.9184C179.26 34.9736 179.713 35.8438 180.165 36.6963C171.426 42.6091 167.956 31.4032 167.562 30.0641C167.547 29.9924 174.31 25.302 176.191 14.1251C178.162 2.41097 173.671 0.278037 169.079 0.344585C160.58 0.467783 158.284 15.2417 161.369 27.5547C161.11 27.6107 159.908 28.1649 157.976 28.227C156.585 24.5867 150.644 21.3958 149.089 22.6254C145.198 25.7013 150.033 31.7148 153.435 32.1864C151.391 42.6603 138.61 40.0663 140.989 26.9442C145.151 20.5129 148.317 10.9502 147.752 5.17731C147.552 3.13344 145.736 0.395093 141.628 0.530918C133.728 0.790966 132.87 15.569 133.796 26.0576C133.75 25.7992 133.31 27.3319 130.073 28.0939C129.307 24.5573 122.463 21.0074 120.852 22.7141C117.836 25.9084 123.063 31.6039 125.538 32.0011C123.495 42.4747 110.713 39.8807 113.093 26.7585C117.255 20.3276 120.42 10.7649 119.855 4.992C119.655 2.94779 117.839 0.209442 113.732 0.344926C105.832 0.605315 104.973 15.3833 105.899 25.8719C105.853 25.6095 105.403 27.1926 102.033 27.942C101.92 23.3537 95.0515 21.2497 93.4015 22.7138C90.4607 25.3235 94.075 30.678 97.4186 32.0011C95.3747 42.4747 82.5935 39.8807 84.9728 26.7585C89.135 20.3276 92.3006 10.7649 91.7354 4.992C91.5357 2.94779 89.7195 0.209442 85.6118 0.344926C77.7122 0.605315 77.0764 16.1263 78.0026 26.6145C75.4005 35.8906 66.6745 47.4746 67.8081 24.2693C67.9201 22.6414 68.0423 22.0234 67.067 21.4139C66.3361 20.9402 64.6741 21.1682 63.7656 21.187C62.6615 21.2238 62.3846 21.7613 62.1406 22.5739C61.5721 24.672 61.47 26.706 61.3888 29.4812C61.3355 30.7794 61.2104 31.3851 60.6095 33.1553C60.0094 34.9251 56.5859 38.16 54.7114 37.6191C52.111 36.8751 52.9642 30.7671 53.4514 26.5705C53.8575 23.254 52.5573 21.7647 49.226 21.2231C47.2757 20.8849 46.0908 20.9368 44.0597 20.4041C42.1389 19.9004 41.7046 16.8774 37.6079 17.8848C35.3672 18.4363 36.8077 22.3865 36.2692 25.3143C33.6216 39.7162 28.1128 40.1117 25.5571 33.1157C37.0673 9.65988 28.8868 0.412839 24.0982 0.412839C19.1107 0.412839 13.4095 3.27131 15.8237 21.5606C14.6498 21.2757 14.2889 21.1221 13.0039 21.1221C5.73632 21.1221 0.784912 26.0105 0.784912 32.0407C0.784912 38.0709 5.73673 42.9596 13.0043 42.9596C17.2945 42.9596 20.3067 41.3362 22.588 38.8248C24.0765 40.5984 25.8889 42.9869 29.2034 42.8794C39.0828 42.5593 41.956 25.6975 42.2952 24.757C43.3513 24.8925 44.3505 25.1488 45.3258 25.2842C46.9509 25.4873 47.069 26.0224 47.0321 27.3824C46.6014 38.8504 49.1448 42.8658 54.9141 42.8658C58.1285 42.8658 60.9934 40.238 62.9671 38.359C64.4412 40.8905 66.7901 42.7883 69.9414 42.8654C77.5772 43.0234 80.5008 32.8969 80.2342 34.2296C80.0251 35.2753 82.7116 42.8084 90.5726 42.8357C100.31 42.8699 102.12 33.96 102.336 32.4676C102.375 32.2014 102.363 32.1707 102.336 32.4676L102.329 32.5581C105.42 32.0796 107.015 30.7005 107.015 30.7005C107.015 30.7005 109.497 42.9743 118.692 42.8361C128.241 42.6921 130.041 34.6381 130.277 33.0676C130.327 32.7386 130.309 32.6949 130.277 33.0676C130.276 33.0829 130.275 33.0983 130.274 33.1137C133.946 32.0021 134.912 30.8865 134.912 30.8865C134.912 30.8865 136.885 42.9163 146.589 43.0214C155.237 43.1156 158.442 35.7472 158.46 32.6632C159.919 32.6761 162.617 31.9431 162.554 31.9015C162.554 31.9015 165.721 42.4194 174.567 42.9596C178.721 43.2132 181.836 41.0151 183.612 40.0124C187.786 42.8248 201.684 46.417 210.46 34.0375C211.698 32.2608 209.035 30.162 208.568 29.888ZM12.6536 38.876C8.41341 38.876 5.69448 35.6138 5.69448 32.0963C5.69448 28.5792 8.19028 25.317 12.4305 25.317C14.3385 25.317 15.4 25.4917 16.886 26.5671C17.1555 27.4506 17.9192 29.4887 18.2908 30.4142C18.7887 31.6527 19.381 32.7069 19.9782 33.8542C19.125 36.797 16.3282 38.876 12.6536 38.876ZM22.9863 26.6705C22.8099 26.4367 22.8468 26.5804 22.6495 26.3596C21.8723 24.6003 20.3744 20.6737 20.2009 16.2136C20.0048 11.1683 21.0155 5.25443 23.9948 5.25443C26.0136 5.25443 28.1592 17.2398 22.9859 26.6705H22.9863ZM82.689 21.4136C82.2108 18.4196 82.1858 5.07254 86.0367 5.44008C88.163 6.15675 84.6885 18.7513 82.689 21.4136ZM110.809 21.4136C110.331 18.4196 110.306 5.07254 114.157 5.44008C116.283 6.15675 112.808 18.7513 110.809 21.4136ZM138.706 21.5996C138.227 18.6053 138.202 5.25819 142.053 5.62574C144.179 6.3424 140.705 18.9373 138.706 21.5996ZM169.504 4.65892C173.024 4.35519 172.879 17.148 165.812 25.2245C164.901 22.3053 163.503 5.66123 169.504 4.65858V4.65892ZM184.302 32.1864C183.171 27.4336 186.093 24.312 189.105 23.9697C190.158 23.8297 191.684 24.3973 191.988 25.4583C192.489 27.4578 191.916 30.4238 185.174 34.1869C185.184 34.219 184.554 33.245 184.302 32.1864H184.302Z" fill="white" fill-opacity="0.55"/>
</g>
<defs>
<clipPath id="clip0_283_2">
<rect width="210" height="43" fill="white" transform="translate(0.784912 0.3396)"/>
</clipPath>
</defs>
</svg>
