<svg width="312" height="59" viewBox="0 0 312 59" fill="none" xmlns="http://www.w3.org/2000/svg">
<g clip-path="url(#clip0_110_317)" filter="url(#filter0_d_110_317)">
<path d="M87.4735 29.4987C82.5329 29.4987 77.9034 28.1862 73.6973 26.0496L74.7215 23.0335L74.7661 22.9217C75.6781 19.7103 78.5714 14.3199 87.4735 14.3199C94.1496 14.3199 99.5801 17.7272 99.5801 21.9162C99.5575 26.0913 94.1277 29.4987 87.4735 29.4987ZM87.4735 6.62603C76.1008 6.62603 67.2884 11.262 63.7057 18.8862C58.2307 13.7335 54.0911 7.54772 51.6656 2.33911H39.4255V22.3211C39.4255 26.259 34.3067 29.4704 28.0308 29.4704C21.7549 29.4704 16.6367 26.259 16.6367 22.3211V2.33911H4.3954V22.3211C4.35087 30.5042 14.9665 37.2205 28.0077 37.2205C41.0494 37.2205 51.665 30.5042 51.665 22.3211V18.9701C54.046 22.0838 56.9613 25.2255 60.5 28.0185L52.9998 50.1368H65.5297L70.9595 34.0926C75.722 36.0056 81.197 37.2067 87.4729 37.2067C100.892 37.2067 111.82 30.3086 111.82 21.8882C111.82 13.482 100.893 6.62603 87.4735 6.62603Z" fill="white" fill-opacity="0.63"/>
<path d="M148.675 14.1419L156.575 34.1239L165.277 14.1419H175.648L162.273 43.0189H151.902L143.69 22.9109L135.5 43.0047H125.13L111.754 14.1281H122.125L130.826 34.1101L138.727 14.1281H148.674V14.1422L148.675 14.1419ZM200.462 13.2761C186.998 13.2761 176.093 20.1321 176.093 28.5662C176.093 37.0145 187.02 43.8568 200.462 43.8568C213.926 43.8568 224.853 37.0145 224.853 28.5662C224.853 20.1183 213.926 13.2761 200.462 13.2761ZM200.462 37.573C192.539 37.573 186.13 33.5513 186.13 28.5804C186.13 23.6091 192.561 19.5878 200.462 19.5878C208.385 19.5878 214.794 23.6091 214.794 28.5804C214.794 33.5375 208.385 37.573 200.462 37.573ZM254.474 20.6071C247.509 20.6071 241.878 24.1538 241.878 28.5103V43.0047H231.44V14.1419H241.878V18.5823C241.878 18.5823 246.329 14.1277 255.476 14.1277H258.68V20.6071H254.474ZM289.503 27.4493C296.913 24.824 301.944 19.8389 301.944 14.1277H291.506C291.506 18.9451 285.275 22.8551 277.597 22.8551H276.195V0.205933H265.758V43.0044H276.195V29.4041H277.441C278.465 29.4041 279.8 29.8232 280.401 30.3396L295.222 43.0047H307.73L289.503 27.4493Z" fill="white" fill-opacity="0.63"/>
</g>
<defs>
<filter id="filter0_d_110_317" x="0" y="0" width="312" height="59" filterUnits="userSpaceOnUse" color-interpolation-filters="sRGB">
<feFlood flood-opacity="0" result="BackgroundImageFix"/>
<feColorMatrix in="SourceAlpha" type="matrix" values="0 0 0 0 0 0 0 0 0 0 0 0 0 0 0 0 0 0 127 0" result="hardAlpha"/>
<feOffset dy="4"/>
<feGaussianBlur stdDeviation="2"/>
<feComposite in2="hardAlpha" operator="out"/>
<feColorMatrix type="matrix" values="0 0 0 0 0 0 0 0 0 0 0 0 0 0 0 0 0 0 0.25 0"/>
<feBlend mode="normal" in2="BackgroundImageFix" result="effect1_dropShadow_110_317"/>
<feBlend mode="normal" in="SourceGraphic" in2="effect1_dropShadow_110_317" result="shape"/>
</filter>
<clipPath id="clip0_110_317">
<rect width="304" height="51" fill="white" transform="translate(4)"/>
</clipPath>
</defs>
</svg>
