<svg width="342" height="70" viewBox="0 0 342 70" fill="none" xmlns="http://www.w3.org/2000/svg">
<g clip-path="url(#clip0_283_2)">
<path d="M104.493 28.0573C108.407 28.0573 111.58 25.455 111.58 22.2454C111.58 19.0353 108.407 16.4336 104.493 16.4336C100.579 16.4336 97.4059 19.0353 97.4059 22.2454C97.4059 25.455 100.579 28.0573 104.493 28.0573ZM338.389 47.9145C337.311 47.293 336.479 47.19 335.788 48.397C323.885 69.5329 303.826 58.9858 305.818 59.914C310.267 58.2454 321.97 50.5513 320.201 39.9275C319.127 33.4349 312.329 30.555 305.115 31.5862C292.521 33.3862 287.888 44.5226 290.246 54.3819C290.659 56.0752 291.397 57.4716 292.133 58.8395C277.902 68.3276 272.25 50.346 271.609 48.1971C271.583 48.0821 282.598 40.5556 285.661 22.6206C288.872 3.82354 281.558 0.400919 274.078 0.507704C260.238 0.705395 256.498 24.4124 261.522 44.1705C261.102 44.2603 259.143 45.1496 255.996 45.2493C253.732 39.4078 244.056 34.2876 241.524 36.2607C235.186 41.1963 243.061 50.8459 248.602 51.6028C245.273 68.4097 224.458 64.2473 228.332 43.1908C235.111 32.8709 240.266 17.5261 239.347 8.26254C239.021 4.98285 236.063 0.588752 229.374 0.806704C216.508 1.22399 215.109 24.9375 216.618 41.7681C216.543 41.3535 215.827 43.8129 210.554 45.0357C209.307 39.3607 198.162 33.6644 195.538 36.403C190.626 41.5287 199.138 50.668 203.17 51.3054C199.842 68.1118 179.026 63.9494 182.901 42.8929C189.68 32.5735 194.834 17.2287 193.915 7.96518C193.589 4.68494 190.632 0.290847 183.942 0.508252C171.076 0.926085 169.677 24.6396 171.186 41.4702C171.11 41.049 170.377 43.5894 164.89 44.792C164.706 37.4293 153.52 34.0532 150.833 36.4025C146.043 40.5901 151.929 49.1823 157.375 51.3054C154.046 68.1118 133.231 63.9494 137.106 42.8929C143.884 32.5735 149.04 17.2287 148.119 7.96518C147.794 4.68494 144.836 0.290847 138.147 0.508252C125.282 0.926085 124.246 25.8318 125.754 42.6618C121.517 57.5466 107.306 76.135 109.152 38.8985C109.334 36.2864 109.534 35.2947 107.945 34.3166C106.755 33.5565 104.048 33.9223 102.569 33.9524C100.77 34.0116 100.32 34.8741 99.9221 36.178C98.9963 39.5447 98.83 42.8085 98.6977 47.2618C98.6109 49.3449 98.4072 50.3169 97.4286 53.1574C96.4513 55.9974 90.8758 61.1883 87.8232 60.3203C83.5883 59.1265 84.9777 49.3252 85.7712 42.5911C86.4325 37.2694 84.315 34.8796 78.8898 34.0105C75.7136 33.4678 73.7838 33.551 70.476 32.6962C67.348 31.8879 66.6406 27.0371 59.9689 28.6537C56.3198 29.5386 58.6657 35.8773 57.7886 40.5753C53.4769 63.6854 44.5054 64.3201 40.3433 53.0939C59.0885 15.4555 45.7659 0.617228 37.9673 0.617228C29.8448 0.617228 20.5601 5.20408 24.4917 34.5521C22.58 34.0948 21.9922 33.8484 19.8995 33.8484C8.06372 33.8484 0 41.6925 0 51.3689C0 61.0453 8.06439 68.89 19.9001 68.89C26.8871 68.89 31.7926 66.285 35.5079 62.255C37.9319 65.101 40.8837 68.9338 46.2816 68.7613C62.3709 68.2476 67.05 41.1903 67.6024 39.6811C69.3225 39.8985 70.9496 40.3098 72.5381 40.5272C75.1846 40.853 75.3769 41.7117 75.3168 43.8939C74.6154 62.2961 78.7575 68.7394 88.1532 68.7394C93.388 68.7394 98.0538 64.5227 101.268 61.5075C103.669 65.5698 107.494 68.6151 112.626 68.7388C125.062 68.9924 129.823 52.7429 129.389 54.8813C129.048 56.5593 133.423 68.6474 146.226 68.6912C162.084 68.746 165.032 54.4487 165.383 52.054C165.447 51.6268 165.427 51.5776 165.383 52.054L165.371 52.1991C170.406 51.4313 173.003 49.2184 173.003 49.2184C173.003 49.2184 177.046 68.9135 192.02 68.6918C207.571 68.4607 210.503 55.5368 210.888 53.0167C210.969 52.4888 210.939 52.4187 210.888 53.0167C210.886 53.0413 210.884 53.066 210.882 53.0906C216.862 51.307 218.435 49.5169 218.435 49.5169C218.435 49.5169 221.648 68.8204 237.452 68.9891C251.536 69.1403 256.755 57.3166 256.786 52.3678C259.161 52.3886 263.555 51.2123 263.452 51.1455C263.452 51.1455 268.611 68.0231 283.017 68.89C289.781 69.2969 294.855 65.7697 297.747 64.1608C304.544 68.6737 327.178 74.4379 341.47 54.573C343.488 51.7221 339.15 48.3543 338.389 47.9145ZM19.329 62.3372C12.4236 62.3372 7.99559 57.1025 7.99559 51.4582C7.99559 45.8144 12.0602 40.5797 18.9656 40.5797C22.073 40.5797 23.8017 40.8601 26.2218 42.5857C26.6606 44.0034 27.9044 47.2738 28.5096 48.759C29.3205 50.7463 30.285 52.4379 31.2576 54.279C29.8682 59.0011 25.3133 62.3372 19.329 62.3372ZM36.1565 42.7516C35.8693 42.3765 35.9294 42.607 35.6081 42.2527C34.3423 39.4297 31.9029 33.1288 31.6203 25.972C31.301 17.876 32.9469 8.3863 37.799 8.3863C41.0868 8.3863 44.5809 27.6187 36.1558 42.7516H36.1565ZM133.387 34.3161C132.608 29.5118 132.567 8.09442 138.839 8.6842C142.301 9.8342 136.643 30.0441 133.387 34.3161ZM179.182 34.3161C178.403 29.5118 178.362 8.09442 184.634 8.6842C188.097 9.8342 182.438 30.0441 179.182 34.3161ZM224.614 34.6145C223.834 29.8097 223.794 8.39232 230.065 8.98211C233.528 10.1321 227.87 30.3425 224.614 34.6145ZM274.77 7.4307C280.504 6.94332 280.268 27.4714 268.759 40.4313C267.274 35.747 264.999 9.03906 274.77 7.43016V7.4307ZM298.871 51.6028C297.029 43.9761 301.788 38.967 306.693 38.4177C308.408 38.1932 310.893 39.1039 311.388 40.8064C312.203 44.0149 311.27 48.7743 300.291 54.8129C300.307 54.8644 299.281 53.3015 298.871 51.6028H298.871Z" fill="white" fill-opacity="0.63"/>
</g>
<defs>
<clipPath id="clip0_283_2">
<rect width="342" height="69" fill="white" transform="translate(0 0.5)"/>
</clipPath>
</defs>
</svg>
