<svg width="331" height="281" viewBox="0 0 331 281" fill="none" xmlns="http://www.w3.org/2000/svg">
<g filter="url(#filter0_df_184_2)">
<ellipse cx="152.5" cy="127.5" rx="130" ry="105.5" fill="#DDC4CB" fill-opacity="0.38" shape-rendering="crispEdges"/>
</g>
<g clip-path="url(#clip0_184_2)">
<path d="M197.125 47H107.875C86.1288 47 68.5 63.9992 68.5 84.9688V171.031C68.5 192.001 86.1288 209 107.875 209H197.125C218.871 209 236.5 192.001 236.5 171.031V84.9688C236.5 63.9992 218.871 47 197.125 47Z" fill="#001E36"/>
<path d="M106.3 159.666V90.2086C106.3 89.7359 106.51 89.4663 107 89.4663C108.19 89.4663 109.31 89.4663 110.92 89.3986C112.6 89.3309 114.35 89.3309 116.24 89.2638C118.13 89.1961 120.16 89.1961 122.33 89.1284C124.5 89.0613 126.6 89.0613 128.7 89.0613C134.44 89.0613 139.2 89.7359 143.12 91.1534C146.634 92.3041 149.838 94.195 152.5 96.6886C154.756 98.8708 156.498 101.495 157.61 104.384C158.66 107.219 159.22 110.121 159.22 113.159C159.22 118.964 157.82 123.756 155.02 127.536C152.22 131.316 148.3 134.151 143.75 135.771C138.99 137.459 133.74 138.066 128 138.066C126.32 138.066 125.2 138.066 124.5 137.999C123.8 137.931 122.82 137.931 121.49 137.931V159.598C121.56 160.071 121.21 160.476 120.72 160.544H107.14C106.58 160.544 106.3 160.274 106.3 159.666ZM121.56 102.493V125.173C122.54 125.241 123.45 125.309 124.29 125.309H128C130.73 125.309 133.46 124.904 136.05 124.094C138.29 123.486 140.25 122.204 141.79 120.516C143.26 118.829 143.96 116.534 143.96 113.564C144.026 111.454 143.467 109.37 142.35 107.556C141.16 105.801 139.48 104.451 137.45 103.708C134.86 102.696 132.06 102.291 129.19 102.359C127.37 102.359 125.76 102.359 124.43 102.426C123.03 102.359 122.05 102.426 121.56 102.493ZM202.9 121.056C200.8 119.976 198.56 119.234 196.18 118.761C193.59 118.221 191 117.883 188.34 117.883C186.94 117.816 185.47 118.019 184.14 118.356C183.23 118.559 182.46 119.031 181.97 119.706C181.62 120.246 181.41 120.921 181.41 121.528C181.41 122.136 181.69 122.743 182.11 123.284C182.74 124.026 183.58 124.634 184.49 125.106C186.113 125.917 187.771 126.66 189.46 127.334C193.24 128.549 196.88 130.236 200.24 132.261C202.55 133.678 204.44 135.569 205.77 137.864C206.89 140.024 207.45 142.386 207.38 144.816C207.45 147.989 206.47 151.161 204.65 153.794C202.698 156.488 199.973 158.576 196.81 159.801C193.38 161.218 189.18 161.961 184.14 161.961C180.92 161.961 177.77 161.691 174.62 161.084C172.151 160.672 169.75 159.946 167.48 158.924C166.99 158.654 166.64 158.181 166.71 157.641V145.896C166.71 145.694 166.78 145.423 166.99 145.289C167.2 145.154 167.41 145.221 167.62 145.356C170.35 146.909 173.22 147.989 176.3 148.663C178.96 149.339 181.76 149.676 184.56 149.676C187.22 149.676 189.11 149.339 190.37 148.731C191.49 148.258 192.26 147.111 192.26 145.896C192.26 144.951 191.7 144.074 190.58 143.196C189.46 142.319 187.15 141.306 183.72 140.024C180.201 138.828 176.86 137.194 173.78 135.164C171.587 133.656 169.769 131.696 168.46 129.426C167.34 127.266 166.78 124.904 166.85 122.541C166.85 119.639 167.69 116.871 169.23 114.374C170.98 111.674 173.57 109.514 176.58 108.163C179.87 106.543 184 105.801 188.97 105.801C191.84 105.801 194.78 106.004 197.65 106.409C199.75 106.679 201.78 107.219 203.67 107.961C203.95 108.029 204.23 108.299 204.37 108.568C204.44 108.839 204.51 109.109 204.51 109.378V120.381C204.51 120.651 204.37 120.921 204.16 121.056C203.53 121.191 203.18 121.191 202.9 121.056Z" fill="#31A8FF"/>
</g>
<defs>
<filter id="filter0_df_184_2" x="0.5" y="0" width="330" height="281" filterUnits="userSpaceOnUse" color-interpolation-filters="sRGB">
<feFlood flood-opacity="0" result="BackgroundImageFix"/>
<feColorMatrix in="SourceAlpha" type="matrix" values="0 0 0 0 0 0 0 0 0 0 0 0 0 0 0 0 0 0 127 0" result="hardAlpha"/>
<feOffset dx="13" dy="13"/>
<feGaussianBlur stdDeviation="17.5"/>
<feComposite in2="hardAlpha" operator="out"/>
<feColorMatrix type="matrix" values="0 0 0 0 0 0 0 0 0 0 0 0 0 0 0 0 0 0 0.25 0"/>
<feBlend mode="normal" in2="BackgroundImageFix" result="effect1_dropShadow_184_2"/>
<feBlend mode="normal" in="SourceGraphic" in2="effect1_dropShadow_184_2" result="shape"/>
<feGaussianBlur stdDeviation="2" result="effect2_foregroundBlur_184_2"/>
</filter>
<clipPath id="clip0_184_2">
<rect x="68.5" y="47" width="168" height="162" rx="78" fill="white"/>
</clipPath>
</defs>
</svg>
