<svg width="172" height="90" viewBox="0 0 172 90" fill="none" xmlns="http://www.w3.org/2000/svg">
<g clip-path="url(#clip0_110_336)">
<path d="M101.529 45.0108C101.529 47.4659 99.8605 49.8205 96.8902 51.5569C93.9199 53.2933 89.891 54.2693 85.6894 54.2704C81.4866 54.2704 77.4559 53.2948 74.4841 51.5583C71.5122 49.8218 69.8427 47.4666 69.8427 45.0108C69.8427 42.5557 71.5113 40.2012 74.4816 38.4648C77.4519 36.7284 81.4808 35.7523 85.6824 35.7512C89.8852 35.7512 93.9158 36.7268 96.8877 38.4633C99.8595 40.1998 101.529 42.555 101.529 45.0108ZM120.296 0.742058C110.757 0.742058 98.2761 4.71755 85.654 11.6001C73.039 4.75482 60.5515 0.82488 51.0194 0.82488C48.1136 0.82488 45.4702 1.21001 43.181 1.97612C33.4363 5.26004 31.2534 15.4928 36.2853 28.3345C14.7121 32.2271 0.679688 38.4513 0.679688 45.0108C0.679688 51.5952 14.783 57.8359 36.4199 61.6996C31.4306 74.591 33.656 84.8403 43.422 88.1201C45.6899 88.8944 48.3121 89.2589 51.232 89.2589C60.7641 89.2589 73.2516 85.2834 85.8737 78.3925C98.4887 85.242 110.976 89.1719 120.508 89.1719C123.414 89.1719 126.058 88.7992 128.347 88.0331C138.084 84.7533 140.274 74.5206 135.242 61.6748C156.738 57.8152 170.77 51.5787 170.77 45.0108C170.77 38.4264 156.667 32.1857 135.03 28.3137C140.019 15.4348 137.794 5.17722 128.028 1.89329C125.667 1.11749 123.004 0.720318 120.296 0.742058ZM120.26 5.2559V5.28074C121.855 5.28074 123.138 5.46295 124.215 5.80667C128.935 7.38858 130.983 13.4057 129.388 21.1454C129.006 23.0504 128.382 25.0588 127.617 27.1087C120.37 26.0841 113.013 25.3453 105.597 24.8973C101.18 21.336 96.3624 17.9507 91.1748 14.7639C102.458 8.63506 113.053 5.27246 120.267 5.26004L120.26 5.2559ZM51.0194 5.33872C58.1915 5.33872 68.8363 8.68476 80.1473 14.7805C75.2856 17.7621 70.438 21.1454 65.8314 24.8932C58.3978 25.3359 51.026 26.0804 43.7692 27.1211C43.0084 25.1789 42.4076 23.2165 41.9691 21.2407C40.3391 13.505 42.3518 7.49211 47.0293 5.88949C48.3759 5.51679 49.8642 5.35943 51.0194 5.33872ZM85.6186 17.9692C88.8432 19.9072 92.0678 22.0772 95.257 24.4459C92.1387 24.3631 88.9495 24.3051 85.7249 24.3051C82.4648 24.3051 79.2402 24.3465 76.0864 24.4459C79.2047 22.0772 82.4294 19.9114 85.6186 17.9692ZM85.7249 28.8438C90.9693 28.8438 96.1925 28.9846 101.331 29.2289C104.208 31.6391 107.015 34.2107 109.715 36.9315C112.351 39.5818 114.747 42.2735 116.929 44.9901C114.747 47.7026 112.351 50.415 109.75 53.0653C107.057 55.7985 104.272 58.3991 101.387 60.8093C90.985 61.3411 80.5235 61.348 70.1191 60.83C67.1437 58.3311 64.3467 55.7614 61.735 53.1274C59.0986 50.4771 56.7032 47.7854 54.5204 45.0688C56.7104 42.3117 59.1058 39.6118 61.6996 36.977C64.3927 34.2439 67.1779 31.6515 70.0624 29.2414C75.2706 28.9724 80.4964 28.837 85.7249 28.8355V28.8438ZM59.9633 29.8957C58.2624 31.4569 56.5615 33.0554 54.9739 34.6994C53.3794 36.3144 51.8911 37.9378 50.4736 39.5611C48.5956 36.8445 47.001 34.1362 45.6828 31.4983C50.2185 30.8771 55.0023 30.3222 59.9633 29.8957ZM111.416 29.8957C116.341 30.3222 121.089 30.8481 125.632 31.4983C124.357 34.1155 122.762 36.8072 120.955 39.5031C118.063 36.2068 114.881 33 111.423 29.8957H111.416ZM133.123 32.6909C136.554 33.3121 139.814 34.0037 142.868 34.7532C155.143 37.8177 163.081 41.8263 163.081 45.0067C163.045 48.1871 155.108 52.2123 142.833 55.256C139.856 56.0014 136.596 56.6723 133.23 57.2976C131.101 53.0878 128.497 48.9652 125.434 44.957C128.623 40.7454 131.174 36.6333 133.123 32.6826V32.6909ZM38.1917 32.7075C40.1619 36.683 42.7629 40.8117 45.9875 45.0481C42.9469 49.0324 40.3753 53.1334 38.2909 57.3224C34.8608 56.7012 31.6007 56.0055 28.5816 55.2518C16.3067 52.1998 8.36919 48.1871 8.36919 45.0067C8.36919 41.8263 16.3067 37.7928 28.5816 34.7532C31.5582 34.0078 34.8182 33.3369 38.1917 32.7075ZM120.955 50.4316C122.833 53.1523 124.428 55.8647 125.746 58.4985C121.21 59.1487 116.419 59.6994 111.458 60.1135C114.912 56.9851 118.078 53.7534 120.955 50.4316ZM50.4736 50.5144C51.8911 52.1377 53.3794 53.7569 55.0094 55.3802C56.6394 56.9953 58.3049 58.5772 60.0058 60.1135C55.2271 59.7096 50.4831 59.1762 45.7891 58.5151C47.0647 55.9061 48.6664 53.2061 50.4666 50.5102L50.4736 50.5144ZM127.68 62.884C128.474 64.9255 129.098 66.8926 129.481 68.7768C131.111 76.5124 129.098 82.5254 124.42 84.1321C123.379 84.5048 122.025 84.6622 120.43 84.6622C113.258 84.6622 102.613 81.3203 91.3024 75.2204C96.1642 72.2388 101.012 68.8596 105.618 65.116C113.464 64.6274 120.884 63.8778 127.68 62.884ZM43.8401 62.9254C50.6437 63.8944 58.0568 64.6439 65.8597 65.1285C70.5372 68.8762 75.3919 72.2802 80.282 75.2577C68.9781 81.399 58.3687 84.7616 51.154 84.7616C49.7911 84.7679 48.446 84.5803 47.2348 84.215C42.5148 82.6413 40.4667 76.6201 42.0613 68.8803C42.444 66.9754 43.0747 64.9711 43.8401 62.9254ZM76.1573 65.5757C79.2756 65.6585 82.4648 65.7165 85.6894 65.7165C88.9495 65.7165 92.1741 65.6751 95.3279 65.5757C92.2096 67.9444 88.9849 70.1102 85.7957 72.0566C82.5711 70.1102 79.3465 67.9444 76.1573 65.5757Z" fill="white" fill-opacity="0.63"/>
</g>
<defs>
<clipPath id="clip0_110_336">
<rect width="171" height="90" fill="white" transform="translate(0.5)"/>
</clipPath>
</defs>
</svg>
