<svg width="249" height="57" viewBox="0 0 249 57" fill="none" xmlns="http://www.w3.org/2000/svg">
<g clip-path="url(#clip0_110_320)" filter="url(#filter0_d_110_320)">
<path d="M234.873 48.1159C236.18 48.1167 237.474 47.946 238.682 47.6135C239.889 47.2809 240.987 46.7931 241.912 46.1777C242.837 45.5624 243.571 44.8316 244.072 44.0272C244.573 43.2227 244.832 42.3603 244.833 41.4892C244.835 40.6181 244.578 39.7554 244.08 38.9502C243.581 38.1451 242.849 37.4134 241.926 36.7968C241.003 36.1802 239.907 35.6909 238.7 35.3567C237.493 35.0225 236.2 34.8501 234.893 34.8492C232.254 34.8474 229.722 35.5446 227.855 36.7873C225.987 38.0301 224.936 39.7166 224.933 41.4759C224.931 43.2351 225.976 44.9231 227.84 46.1683C229.705 47.4135 232.234 48.1141 234.873 48.1159ZM224.913 23.4159H216.413C210.953 23.4159 208.013 26.1492 208.013 30.6959V47.1359H191.913V23.4159H185.073C179.603 23.4159 176.673 26.1492 176.673 30.6959V47.1359H160.573V14.6425H176.673V19.5759C179.313 15.7492 182.933 14.6425 188.303 14.6425H208.023V19.5759C210.663 15.7492 214.273 14.6425 219.643 14.6425H224.913V23.4159ZM157.053 33.4225H123.463C124.343 37.0625 127.763 39.1425 133.523 39.1425C137.823 39.1425 140.843 37.9759 141.823 35.8959L156.073 38.5625C152.563 44.2159 143.873 47.6559 133.523 47.6559C116.043 47.6559 108.033 38.6225 108.033 30.8892C108.033 23.2892 115.063 14.1892 132.533 14.1892C151.093 14.1892 157.243 23.4159 157.243 30.2425C157.243 31.7359 157.143 32.7092 157.043 33.4225H157.053ZM141.433 27.1225C141.033 24.3225 138.013 21.7225 132.543 21.7225C127.463 21.7225 124.443 23.2225 123.463 27.1225H141.433ZM79.9133 47.1292H94.0732L111.743 14.6359H95.5433L86.9433 33.5492L78.1633 14.6359H62.0332L79.9133 47.1292ZM13.9133 47.1292H29.9333V23.4092H45.1733V47.1292H61.0833V14.6359H29.9333V12.6225C29.9333 10.4092 32.2833 9.04921 35.9933 9.04921H45.1733V0.275879H33.3333C21.7133 0.275879 13.9033 5.02255 13.9033 11.9759V14.6425H4.83325V23.4159H13.9133V47.1359V47.1292Z" fill="white" fill-opacity="0.63"/>
</g>
<defs>
<filter id="filter0_d_110_320" x="0" y="0" width="249" height="57" filterUnits="userSpaceOnUse" color-interpolation-filters="sRGB">
<feFlood flood-opacity="0" result="BackgroundImageFix"/>
<feColorMatrix in="SourceAlpha" type="matrix" values="0 0 0 0 0 0 0 0 0 0 0 0 0 0 0 0 0 0 127 0" result="hardAlpha"/>
<feOffset dy="4"/>
<feGaussianBlur stdDeviation="2"/>
<feComposite in2="hardAlpha" operator="out"/>
<feColorMatrix type="matrix" values="0 0 0 0 0 0 0 0 0 0 0 0 0 0 0 0 0 0 0.25 0"/>
<feBlend mode="normal" in2="BackgroundImageFix" result="effect1_dropShadow_110_320"/>
<feBlend mode="normal" in="SourceGraphic" in2="effect1_dropShadow_110_320" result="shape"/>
</filter>
<clipPath id="clip0_110_320">
<rect width="241" height="49" fill="white" transform="translate(4)"/>
</clipPath>
</defs>
</svg>
