<svg width="140" height="136" viewBox="0 0 140 136" fill="none" xmlns="http://www.w3.org/2000/svg">
<ellipse cx="69.5728" cy="67.6689" rx="68.1773" ry="66.2316" transform="rotate(-1.22066 69.5728 67.6689)" fill="white"/>
<path d="M83.0333 96.7847V55.0764C78.8955 53.8125 74.1589 52.7593 68.8233 51.9167C63.5967 51.0039 58.2611 50.3368 52.8167 49.9155C51.51 53.005 50.3122 56.1999 49.2233 59.5C48.1344 62.7299 47.2089 65.9599 46.4467 69.1898C45.6844 72.3495 45.0856 75.4742 44.65 78.5637C44.2144 81.5829 43.9967 84.4618 43.9967 87.2002C43.9967 90.2897 44.3233 93.309 44.9767 96.2581C45.7389 99.2072 47.3178 102.121 49.7133 105C47.2089 105 44.5956 104.824 41.8733 104.473C39.1511 104.122 36.6467 103.315 34.36 102.051C32.0733 100.857 30.1678 99.1019 28.6433 96.7847C27.2278 94.5378 26.52 91.4834 26.52 87.6215C26.52 85.164 26.7922 82.4255 27.3367 79.4062C27.8811 76.387 28.6978 73.2272 29.7867 69.9271C30.8756 66.6269 32.1822 63.2566 33.7067 59.816C35.34 56.3052 37.1367 52.8646 39.0967 49.4942C35.9389 49.5644 32.9444 49.74 30.1133 50.0208C27.3911 50.3017 24.9956 50.723 22.9267 51.2847C20.9667 51.7762 19.3878 52.3731 18.19 53.0752C16.9922 53.7774 16.3933 54.5498 16.3933 55.3924C16.3933 55.6732 16.4478 55.8839 16.5567 56.0243C19.3878 56.586 20.8033 57.7446 20.8033 59.5C20.8033 60.7639 20.0956 61.6416 18.68 62.1331C17.2644 62.6246 15.74 62.8704 14.1067 62.8704C11.3844 62.8704 8.88 62.3789 6.59333 61.3958C4.19778 60.3426 3 58.5521 3 56.0243C3 54.3391 3.81667 52.8295 5.45 51.4954C6.97444 50.1613 9.09778 49.0378 11.82 48.125C14.6511 47.142 17.9178 46.4047 21.62 45.9132C25.4311 45.4217 29.5689 45.1759 34.0333 45.1759C35.2311 45.1759 36.4833 45.211 37.79 45.2813C39.0967 45.2813 40.4033 45.3164 41.71 45.3866C44.4322 41.1736 47.4811 37.1713 50.8567 33.3796C54.2322 29.5177 57.88 26.1825 61.8 23.3738C65.72 20.495 69.8578 18.213 74.2133 16.5278C78.5689 14.8426 83.1422 14 87.9333 14C89.5667 14 91.5811 14.1053 93.9767 14.316C96.4811 14.5266 98.8222 14.9128 101 15.4745V122L83.0333 96.7847ZM54.45 46.4398C59.8944 47.0718 65.1211 47.8792 70.13 48.8623C75.1389 49.7751 79.44 50.7932 83.0333 51.9167V19.0556C80.3111 19.196 77.6433 20.0035 75.03 21.478C72.4167 22.8823 69.8578 24.8133 67.3533 27.2708C64.9578 29.7284 62.6711 32.6073 60.4933 35.9074C58.3156 39.1373 56.3011 42.6481 54.45 46.4398Z" fill="#D529A6"/>
</svg>
